<?xml version="1.0" encoding="UTF-8"?>
<svg xmlns="http://www.w3.org/2000/svg" xmlns:xlink="http://www.w3.org/1999/xlink" width="200pt" height="200pt" viewBox="0 0 200 200" version="1.1">
<g id="surface1">
<rect x="0" y="0" width="200" height="200" style="fill:rgb(14.509804%,55.686275%,81.176471%);fill-opacity:1;stroke:none;"/>
<path style=" stroke:none;fill-rule:evenodd;fill:rgb(25.490196%,59.215686%,83.529412%);fill-opacity:1;" d="M 173.371094 83.074219 L 172.261719 83.21875 L 171.78125 83.316406 L 170.480469 83.605469 L 169.277344 84.039062 L 169.132812 84.085938 L 168.890625 84.183594 L 167.929688 84.664062 L 167.6875 84.761719 L 167.589844 84.808594 L 167.300781 85 L 167.207031 85.050781 L 166.867188 85.242188 L 166.820312 85.292969 L 166.628906 85.386719 L 166.582031 85.484375 L 166.242188 85.628906 L 166.097656 85.773438 L 165.90625 85.871094 L 165.761719 86.011719 L 165.617188 86.109375 L 165.375 86.351562 L 165.183594 86.445312 L 164.894531 86.738281 L 164.703125 86.832031 L 163.976562 87.554688 L 163.835938 87.652344 L 163.738281 87.796875 L 162.964844 88.613281 L 162.871094 88.757812 L 162.53125 89.097656 L 162.484375 89.242188 L 162.292969 89.386719 L 162.242188 89.578125 L 162.050781 89.722656 L 162.003906 89.867188 L 161.808594 90.058594 L 161.761719 90.203125 L 161.667969 90.300781 L 161.523438 90.589844 L 161.425781 90.6875 L 161.328125 90.832031 L 161.28125 90.925781 L 161.089844 91.261719 L 161.039062 91.3125 L 160.320312 92.757812 L 159.980469 93.71875 L 159.886719 93.914062 L 159.835938 94.152344 L 159.59375 95.117188 L 159.496094 95.503906 L 159.402344 95.839844 L 159.355469 96.464844 L 159.257812 97.042969 L 159.160156 98.875 L 159.257812 98.972656 L 159.257812 100.800781 L 159.355469 100.800781 L 159.355469 101.378906 L 159.402344 101.378906 L 159.402344 102.003906 L 159.496094 102.003906 L 159.496094 102.390625 L 159.59375 102.390625 L 159.59375 102.730469 L 159.644531 102.730469 L 159.644531 103.066406 L 159.738281 103.066406 L 159.738281 103.355469 L 159.835938 103.355469 L 159.835938 103.691406 L 159.886719 103.691406 L 159.886719 103.933594 L 159.980469 103.933594 L 159.980469 104.078125 L 160.078125 104.078125 L 160.078125 104.316406 L 160.125 104.316406 L 160.125 104.558594 L 160.222656 104.558594 L 160.222656 104.800781 L 160.320312 104.800781 L 160.320312 105.039062 L 160.367188 105.039062 L 160.367188 105.234375 L 160.460938 105.234375 L 160.460938 105.378906 L 160.558594 105.378906 L 160.558594 105.519531 L 160.605469 105.519531 L 160.605469 105.714844 L 160.703125 105.714844 L 160.703125 105.859375 L 160.800781 105.859375 L 160.800781 106.003906 L 160.847656 106.003906 L 160.847656 106.195312 L 160.945312 106.195312 L 160.945312 106.339844 L 161.039062 106.339844 L 161.039062 106.484375 L 161.089844 106.484375 L 161.183594 106.582031 L 161.183594 106.726562 L 161.28125 106.726562 L 161.28125 106.917969 L 161.328125 106.917969 L 161.425781 106.964844 L 161.425781 107.160156 L 161.523438 107.160156 L 161.570312 107.207031 L 161.570312 107.398438 L 161.667969 107.398438 L 161.667969 107.546875 L 161.761719 107.546875 L 161.808594 107.640625 L 161.808594 107.785156 L 161.90625 107.785156 L 162.050781 107.929688 L 162.050781 108.125 L 162.148438 108.125 L 162.292969 108.265625 L 162.292969 108.410156 L 162.390625 108.410156 L 162.53125 108.605469 L 162.53125 108.75 L 162.628906 108.75 L 162.964844 109.085938 L 162.964844 109.230469 L 163.015625 109.230469 L 163.835938 110.050781 L 163.835938 110.195312 L 163.976562 110.195312 L 164.703125 110.914062 L 164.894531 111.011719 L 165.183594 111.300781 L 165.375 111.398438 L 165.617188 111.640625 L 165.761719 111.734375 L 165.90625 111.878906 L 166.097656 111.976562 L 166.242188 112.121094 L 166.582031 112.265625 L 166.628906 112.359375 L 166.820312 112.457031 L 166.867188 112.507812 L 167.207031 112.699219 L 167.300781 112.746094 L 167.589844 112.941406 L 167.6875 112.988281 L 167.929688 113.082031 L 168.890625 113.566406 L 169.132812 113.660156 L 169.277344 113.710938 L 170.480469 114.144531 L 171.78125 114.433594 L 172.261719 114.527344 L 173.371094 114.671875 L 176.839844 114.769531 L 176.839844 114.671875 L 177.945312 114.527344 L 178.429688 114.433594 L 179.730469 114.144531 L 180.933594 113.710938 L 181.078125 113.660156 L 181.320312 113.566406 L 182.28125 113.082031 L 182.523438 112.988281 L 182.621094 112.941406 L 182.957031 112.746094 L 183.003906 112.699219 L 183.339844 112.507812 L 183.4375 112.457031 L 183.582031 112.359375 L 183.679688 112.265625 L 183.96875 112.121094 L 184.160156 111.976562 L 184.304688 111.878906 L 184.449219 111.734375 L 184.644531 111.640625 L 184.785156 111.496094 L 184.929688 111.398438 L 185.363281 111.011719 L 185.511719 110.914062 L 187.097656 109.328125 L 187.195312 109.136719 L 187.582031 108.75 L 187.675781 108.605469 L 187.824219 108.410156 L 187.917969 108.265625 L 188.0625 108.125 L 188.160156 107.929688 L 188.300781 107.785156 L 188.496094 107.449219 L 188.542969 107.398438 L 188.640625 107.207031 L 188.734375 107.160156 L 188.882812 106.820312 L 188.976562 106.726562 L 189.121094 106.4375 L 189.21875 106.339844 L 189.265625 106.101562 L 189.746094 105.136719 L 189.84375 104.894531 L 189.941406 104.75 L 190.328125 103.546875 L 190.664062 102.246094 L 190.710938 101.765625 L 190.90625 100.65625 L 190.953125 97.1875 L 190.90625 97.1875 L 190.90625 96.609375 L 190.808594 96.609375 L 190.808594 96.082031 L 190.710938 96.082031 L 190.710938 95.601562 L 190.664062 95.601562 L 190.664062 95.261719 L 190.570312 95.261719 L 190.570312 94.925781 L 190.472656 94.925781 L 190.472656 94.636719 L 190.421875 94.636719 L 190.421875 94.296875 L 190.328125 94.296875 L 190.328125 94.058594 L 190.230469 94.058594 L 190.230469 93.816406 L 190.179688 93.816406 L 190.179688 93.578125 L 190.085938 93.578125 L 190.085938 93.335938 L 189.988281 93.335938 L 189.988281 93.09375 L 189.941406 93.09375 L 189.941406 92.949219 L 189.84375 92.949219 L 189.84375 92.707031 L 189.746094 92.707031 L 189.746094 92.515625 L 189.699219 92.515625 L 189.699219 92.371094 L 189.601562 92.371094 L 189.601562 92.226562 L 189.507812 92.226562 L 189.507812 92.035156 L 189.460938 92.035156 L 189.460938 91.890625 L 189.363281 91.890625 L 189.363281 91.746094 L 189.265625 91.746094 L 189.265625 91.503906 L 189.21875 91.410156 L 189.121094 91.410156 L 189.121094 91.261719 L 189.027344 91.261719 L 189.027344 91.070312 L 188.976562 91.023438 L 188.882812 91.023438 L 188.882812 90.832031 L 188.785156 90.832031 L 188.785156 90.6875 L 188.734375 90.589844 L 188.640625 90.589844 L 188.640625 90.445312 L 188.542969 90.347656 L 188.496094 90.347656 L 188.496094 90.203125 L 188.398438 90.203125 L 188.398438 90.058594 L 188.257812 89.867188 L 188.160156 89.867188 L 188.160156 89.722656 L 188.015625 89.578125 L 187.917969 89.578125 L 187.917969 89.386719 L 187.675781 89.144531 L 187.582031 89.144531 L 187.582031 89 L 187.292969 88.664062 L 187.195312 88.664062 L 187.195312 88.519531 L 185.511719 86.832031 L 185.363281 86.738281 L 184.929688 86.351562 L 184.785156 86.253906 L 184.644531 86.109375 L 184.449219 86.011719 L 184.304688 85.871094 L 184.160156 85.773438 L 183.96875 85.628906 L 183.679688 85.484375 L 183.582031 85.386719 L 183.4375 85.292969 L 183.339844 85.242188 L 183.003906 85.050781 L 182.957031 85 L 182.621094 84.808594 L 182.523438 84.761719 L 182.28125 84.664062 L 181.320312 84.183594 L 181.078125 84.085938 L 180.933594 84.039062 L 179.730469 83.605469 L 178.429688 83.316406 L 177.945312 83.21875 L 176.839844 83.074219 Z M 136.378906 83.074219 L 135.800781 83.125 L 135.269531 83.21875 L 134.789062 83.316406 L 134.113281 83.460938 L 133.730469 83.558594 L 133.390625 83.605469 L 132.910156 83.796875 L 132.765625 83.847656 L 132.042969 84.085938 L 131.707031 84.28125 L 131.464844 84.328125 L 130.355469 84.90625 L 130.261719 85 L 129.972656 85.144531 L 129.875 85.242188 L 129.539062 85.386719 L 129.488281 85.484375 L 129.296875 85.53125 L 129.25 85.628906 L 129.058594 85.726562 L 128.910156 85.871094 L 128.769531 85.964844 L 128.574219 86.109375 L 128.429688 86.207031 L 128.285156 86.351562 L 128.09375 86.445312 L 127.804688 86.738281 L 127.609375 86.832031 L 126.890625 87.554688 L 126.746094 87.652344 L 126.648438 87.796875 L 125.925781 88.519531 L 125.878906 88.664062 L 125.539062 89 L 125.445312 89.144531 L 125.203125 89.386719 L 125.152344 89.578125 L 124.960938 89.722656 L 124.914062 89.867188 L 124.71875 90.058594 L 124.574219 90.347656 L 124.480469 90.445312 L 124.433594 90.589844 L 124.335938 90.6875 L 124.191406 91.023438 L 124.09375 91.070312 L 123.949219 91.410156 L 123.855469 91.503906 L 123.757812 91.746094 L 123.277344 92.707031 L 123.230469 92.949219 L 123.132812 93.09375 L 122.746094 94.296875 L 122.410156 95.601562 L 122.3125 96.082031 L 122.167969 97.1875 L 122.070312 98.875 L 122.167969 98.972656 L 122.167969 100.65625 L 122.265625 100.65625 L 122.265625 101.1875 L 122.3125 101.1875 L 122.3125 101.765625 L 122.410156 101.765625 L 122.410156 102.246094 L 122.503906 102.246094 L 122.503906 102.582031 L 122.554688 102.582031 L 122.554688 102.871094 L 122.648438 102.871094 L 122.648438 103.210938 L 122.746094 103.210938 L 122.746094 103.546875 L 122.796875 103.546875 L 122.796875 103.789062 L 122.890625 103.789062 L 122.890625 104.03125 L 122.988281 104.03125 L 122.988281 104.269531 L 123.035156 104.269531 L 123.035156 104.511719 L 123.132812 104.511719 L 123.132812 104.75 L 123.230469 104.75 L 123.230469 104.894531 L 123.277344 104.894531 L 123.277344 105.136719 L 123.371094 105.136719 L 123.371094 105.28125 L 123.46875 105.28125 L 123.46875 105.472656 L 123.515625 105.472656 L 123.515625 105.617188 L 123.613281 105.617188 L 123.613281 105.761719 L 123.710938 105.761719 L 123.710938 105.953125 L 123.757812 105.953125 L 123.757812 106.101562 L 123.855469 106.101562 L 123.855469 106.339844 L 123.949219 106.339844 L 124 106.4375 L 124 106.582031 L 124.09375 106.582031 L 124.09375 106.726562 L 124.191406 106.726562 L 124.238281 106.820312 L 124.238281 106.964844 L 124.335938 106.964844 L 124.335938 107.160156 L 124.433594 107.160156 L 124.480469 107.207031 L 124.480469 107.398438 L 124.574219 107.398438 L 124.671875 107.449219 L 124.671875 107.640625 L 124.71875 107.640625 L 124.71875 107.785156 L 124.816406 107.785156 L 124.960938 107.929688 L 124.960938 108.125 L 125.058594 108.125 L 125.203125 108.265625 L 125.203125 108.410156 L 125.300781 108.410156 L 125.445312 108.605469 L 125.445312 108.75 L 125.539062 108.75 L 125.925781 109.136719 L 125.925781 109.328125 L 126.023438 109.328125 L 126.746094 110.050781 L 126.746094 110.195312 L 126.890625 110.195312 L 127.609375 110.914062 L 127.804688 111.011719 L 128.09375 111.300781 L 128.285156 111.398438 L 128.429688 111.542969 L 128.574219 111.640625 L 128.769531 111.78125 L 128.910156 111.878906 L 129.058594 112.023438 L 129.25 112.121094 L 129.296875 112.214844 L 129.488281 112.265625 L 129.539062 112.359375 L 129.875 112.507812 L 129.972656 112.601562 L 130.261719 112.746094 L 130.355469 112.84375 L 131.464844 113.421875 L 131.707031 113.46875 L 132.042969 113.660156 L 132.765625 113.902344 L 132.910156 113.953125 L 133.390625 114.144531 L 133.730469 114.191406 L 134.113281 114.289062 L 134.789062 114.433594 L 135.269531 114.527344 L 136.378906 114.671875 L 139.75 114.769531 L 139.75 114.671875 L 140.328125 114.625 L 140.953125 114.527344 L 141.773438 114.386719 L 142.734375 114.144531 L 143.457031 113.902344 L 143.601562 113.808594 L 144.082031 113.660156 L 144.230469 113.566406 L 144.472656 113.46875 L 145.769531 112.84375 L 145.867188 112.746094 L 146.15625 112.601562 L 146.253906 112.507812 L 146.589844 112.359375 L 146.636719 112.265625 L 146.832031 112.214844 L 146.878906 112.121094 L 147.070312 112.023438 L 147.214844 111.878906 L 147.359375 111.78125 L 147.554688 111.640625 L 147.699219 111.542969 L 147.839844 111.398438 L 148.035156 111.300781 L 148.324219 111.011719 L 148.515625 110.914062 L 150.105469 109.328125 L 150.203125 109.136719 L 150.585938 108.75 L 150.683594 108.605469 L 150.828125 108.410156 L 150.925781 108.265625 L 151.070312 108.125 L 151.167969 107.929688 L 151.308594 107.785156 L 151.453125 107.449219 L 151.550781 107.398438 L 151.648438 107.207031 L 151.695312 107.160156 L 151.886719 106.820312 L 151.9375 106.726562 L 152.128906 106.4375 L 152.179688 106.339844 L 152.273438 106.101562 L 152.753906 105.136719 L 152.851562 104.894531 L 152.898438 104.75 L 153.332031 103.546875 L 153.625 102.246094 L 153.71875 101.765625 L 153.863281 100.65625 L 153.960938 97.1875 L 153.863281 97.1875 L 153.863281 96.609375 L 153.816406 96.609375 L 153.816406 96.082031 L 153.71875 96.082031 L 153.71875 95.601562 L 153.625 95.601562 L 153.625 95.261719 L 153.574219 95.261719 L 153.574219 94.925781 L 153.476562 94.925781 L 153.476562 94.636719 L 153.382812 94.636719 L 153.382812 94.296875 L 153.332031 94.296875 L 153.332031 94.058594 L 153.238281 94.058594 L 153.238281 93.816406 L 153.140625 93.816406 L 153.140625 93.578125 L 153.09375 93.578125 L 153.09375 93.335938 L 152.996094 93.335938 L 152.996094 93.09375 L 152.898438 93.09375 L 152.898438 92.949219 L 152.851562 92.949219 L 152.851562 92.707031 L 152.753906 92.707031 L 152.753906 92.515625 L 152.660156 92.515625 L 152.660156 92.371094 L 152.613281 92.371094 L 152.613281 92.226562 L 152.515625 92.226562 L 152.515625 92.035156 L 152.417969 92.035156 L 152.417969 91.890625 L 152.371094 91.890625 L 152.371094 91.746094 L 152.273438 91.746094 L 152.273438 91.503906 L 152.179688 91.410156 L 152.128906 91.410156 L 152.128906 91.261719 L 152.03125 91.261719 L 152.03125 91.070312 L 151.9375 91.023438 L 151.886719 91.023438 L 151.886719 90.832031 L 151.792969 90.832031 L 151.792969 90.6875 L 151.695312 90.589844 L 151.648438 90.589844 L 151.648438 90.445312 L 151.550781 90.347656 L 151.453125 90.347656 L 151.453125 90.203125 L 151.40625 90.203125 L 151.40625 90.058594 L 151.214844 89.867188 L 151.167969 89.867188 L 151.167969 89.722656 L 150.972656 89.578125 L 150.925781 89.578125 L 150.925781 89.386719 L 150.683594 89.144531 L 150.585938 89.144531 L 150.585938 89 L 150.25 88.664062 L 150.203125 88.664062 L 150.203125 88.519531 L 148.515625 86.832031 L 148.324219 86.738281 L 148.035156 86.445312 L 147.839844 86.351562 L 147.699219 86.207031 L 147.554688 86.109375 L 147.359375 85.964844 L 147.214844 85.871094 L 147.070312 85.726562 L 146.878906 85.628906 L 146.832031 85.53125 L 146.636719 85.484375 L 146.589844 85.386719 L 146.253906 85.242188 L 146.15625 85.144531 L 145.867188 85 L 145.769531 84.90625 L 144.472656 84.28125 L 144.230469 84.183594 L 144.082031 84.085938 L 143.601562 83.941406 L 143.457031 83.847656 L 142.734375 83.605469 L 141.773438 83.363281 L 140.953125 83.21875 L 140.328125 83.125 L 139.75 83.074219 Z M 100.15625 83.074219 L 99.046875 83.21875 L 98.566406 83.316406 L 97.9375 83.460938 L 97.503906 83.558594 L 97.21875 83.605469 L 96.734375 83.796875 L 96.542969 83.847656 L 95.820312 84.085938 L 95.53125 84.28125 L 95.289062 84.328125 L 94.132812 84.90625 L 94.085938 85 L 93.75 85.144531 L 93.652344 85.242188 L 93.363281 85.386719 L 93.265625 85.484375 L 93.121094 85.53125 L 93.027344 85.628906 L 92.882812 85.726562 L 92.6875 85.871094 L 92.546875 85.964844 L 92.398438 86.109375 L 92.207031 86.207031 L 92.0625 86.351562 L 91.917969 86.445312 L 91.582031 86.738281 L 91.4375 86.832031 L 90.714844 87.554688 L 90.523438 87.652344 L 90.472656 87.796875 L 89.75 88.519531 L 89.652344 88.664062 L 89.316406 89 L 89.269531 89.144531 L 89.027344 89.386719 L 88.933594 89.578125 L 88.789062 89.722656 L 88.691406 89.867188 L 88.546875 90.058594 L 88.355469 90.347656 L 88.304688 90.445312 L 88.207031 90.589844 L 88.113281 90.6875 L 87.96875 91.023438 L 87.871094 91.070312 L 87.726562 91.410156 L 87.632812 91.503906 L 87.582031 91.746094 L 87.101562 92.707031 L 87.003906 92.949219 L 86.910156 93.09375 L 86.523438 94.296875 L 86.1875 95.601562 L 86.136719 96.082031 L 85.945312 97.1875 L 85.898438 98.875 L 85.945312 98.972656 L 85.945312 100.65625 L 86.042969 100.65625 L 86.042969 101.1875 L 86.136719 101.1875 L 86.136719 101.765625 L 86.1875 101.765625 L 86.1875 102.246094 L 86.28125 102.246094 L 86.28125 102.582031 L 86.378906 102.582031 L 86.378906 102.871094 L 86.425781 102.871094 L 86.425781 103.210938 L 86.523438 103.210938 L 86.523438 103.546875 L 86.621094 103.546875 L 86.621094 103.789062 L 86.667969 103.789062 L 86.667969 104.03125 L 86.765625 104.03125 L 86.765625 104.269531 L 86.859375 104.269531 L 86.859375 104.511719 L 86.910156 104.511719 L 86.910156 104.75 L 87.003906 104.75 L 87.003906 104.894531 L 87.101562 104.894531 L 87.101562 105.136719 L 87.148438 105.136719 L 87.148438 105.28125 L 87.246094 105.28125 L 87.246094 105.472656 L 87.34375 105.472656 L 87.34375 105.617188 L 87.390625 105.617188 L 87.390625 105.761719 L 87.488281 105.761719 L 87.488281 105.953125 L 87.582031 105.953125 L 87.582031 106.101562 L 87.632812 106.101562 L 87.632812 106.339844 L 87.726562 106.339844 L 87.824219 106.4375 L 87.824219 106.582031 L 87.871094 106.582031 L 87.871094 106.726562 L 87.96875 106.726562 L 88.066406 106.820312 L 88.066406 106.964844 L 88.113281 106.964844 L 88.113281 107.160156 L 88.207031 107.160156 L 88.304688 107.207031 L 88.304688 107.398438 L 88.355469 107.398438 L 88.449219 107.449219 L 88.449219 107.640625 L 88.546875 107.640625 L 88.546875 107.785156 L 88.59375 107.785156 L 88.789062 107.929688 L 88.789062 108.125 L 88.835938 108.125 L 89.027344 108.265625 L 89.027344 108.410156 L 89.078125 108.410156 L 89.269531 108.605469 L 89.269531 108.75 L 89.316406 108.75 L 89.75 109.136719 L 89.75 109.328125 L 89.796875 109.328125 L 90.523438 110.050781 L 90.523438 110.195312 L 90.714844 110.195312 L 91.4375 110.914062 L 91.582031 111.011719 L 91.917969 111.300781 L 92.0625 111.398438 L 92.207031 111.542969 L 92.398438 111.640625 L 92.546875 111.78125 L 92.6875 111.878906 L 92.882812 112.023438 L 93.027344 112.121094 L 93.121094 112.214844 L 93.265625 112.265625 L 93.363281 112.359375 L 93.652344 112.507812 L 93.75 112.601562 L 94.085938 112.746094 L 94.132812 112.84375 L 95.289062 113.421875 L 95.53125 113.46875 L 95.820312 113.660156 L 96.542969 113.902344 L 96.734375 113.953125 L 97.21875 114.144531 L 97.503906 114.191406 L 97.9375 114.289062 L 98.566406 114.433594 L 99.046875 114.527344 L 100.15625 114.671875 L 103.527344 114.769531 L 103.527344 114.671875 L 104.683594 114.527344 L 105.164062 114.433594 L 105.789062 114.289062 L 106.175781 114.191406 L 106.515625 114.144531 L 106.753906 114.050781 L 106.898438 113.953125 L 107.863281 113.660156 L 109.019531 113.082031 L 109.261719 112.988281 L 109.308594 112.941406 L 109.644531 112.746094 L 109.742188 112.699219 L 110.03125 112.507812 L 110.125 112.457031 L 110.269531 112.359375 L 110.367188 112.265625 L 110.703125 112.121094 L 110.847656 111.976562 L 110.992188 111.878906 L 111.183594 111.734375 L 111.332031 111.640625 L 111.476562 111.496094 L 111.667969 111.398438 L 112.050781 111.011719 L 112.195312 110.914062 L 113.882812 109.230469 L 113.980469 109.085938 L 114.316406 108.75 L 114.367188 108.605469 L 114.558594 108.410156 L 114.605469 108.265625 L 114.800781 108.125 L 114.847656 107.929688 L 115.039062 107.785156 L 115.089844 107.640625 L 115.183594 107.546875 L 115.28125 107.398438 L 115.328125 107.304688 L 115.519531 106.964844 L 115.570312 106.917969 L 115.761719 106.582031 L 115.808594 106.484375 L 116.53125 105.039062 L 116.726562 104.558594 L 116.773438 104.414062 L 117.109375 103.449219 L 117.445312 102.152344 L 117.496094 101.667969 L 117.6875 100.558594 L 117.738281 97.285156 L 117.6875 97.285156 L 117.6875 96.707031 L 117.589844 96.707031 L 117.589844 96.128906 L 117.496094 96.128906 L 117.496094 95.648438 L 117.445312 95.648438 L 117.445312 95.359375 L 117.351562 95.359375 L 117.351562 95.023438 L 117.253906 95.023438 L 117.253906 94.683594 L 117.207031 94.683594 L 117.207031 94.394531 L 117.109375 94.394531 L 117.109375 94.152344 L 117.011719 94.152344 L 117.011719 93.914062 L 116.964844 93.914062 L 116.964844 93.671875 L 116.871094 93.671875 L 116.871094 93.429688 L 116.773438 93.429688 L 116.773438 93.238281 L 116.726562 93.238281 L 116.726562 92.996094 L 116.628906 92.996094 L 116.628906 92.757812 L 116.53125 92.757812 L 116.53125 92.613281 L 116.484375 92.613281 L 116.484375 92.46875 L 116.386719 92.46875 L 116.386719 92.273438 L 116.292969 92.273438 L 116.292969 92.132812 L 116.242188 92.132812 L 116.242188 91.988281 L 116.144531 91.988281 L 116.144531 91.792969 L 116.050781 91.792969 L 116.050781 91.648438 L 116.003906 91.648438 L 116.003906 91.503906 L 115.90625 91.503906 L 115.90625 91.3125 L 115.808594 91.261719 L 115.761719 91.261719 L 115.761719 91.070312 L 115.667969 91.070312 L 115.667969 90.925781 L 115.570312 90.832031 L 115.519531 90.832031 L 115.519531 90.6875 L 115.425781 90.6875 L 115.425781 90.542969 L 115.328125 90.445312 L 115.28125 90.445312 L 115.28125 90.300781 L 115.183594 90.203125 L 115.089844 90.203125 L 115.089844 90.058594 L 114.941406 89.867188 L 114.847656 89.867188 L 114.847656 89.722656 L 114.703125 89.578125 L 114.605469 89.578125 L 114.605469 89.386719 L 114.460938 89.242188 L 114.367188 89.242188 L 114.367188 89.097656 L 114.074219 88.757812 L 113.980469 88.757812 L 113.980469 88.613281 L 112.195312 86.832031 L 112.050781 86.738281 L 111.667969 86.351562 L 111.476562 86.253906 L 111.332031 86.109375 L 111.183594 86.011719 L 110.992188 85.871094 L 110.847656 85.773438 L 110.703125 85.628906 L 110.367188 85.484375 L 110.269531 85.386719 L 110.125 85.292969 L 110.03125 85.242188 L 109.742188 85.050781 L 109.644531 85 L 109.308594 84.808594 L 109.261719 84.761719 L 109.019531 84.664062 L 107.863281 84.085938 L 106.898438 83.796875 L 106.753906 83.703125 L 106.515625 83.605469 L 106.175781 83.558594 L 105.789062 83.460938 L 105.164062 83.316406 L 104.683594 83.21875 L 103.527344 83.074219 Z M 63.160156 83.074219 L 62.054688 83.21875 L 61.570312 83.316406 L 60.898438 83.460938 L 60.511719 83.558594 L 60.175781 83.605469 L 59.695312 83.796875 L 59.550781 83.847656 L 58.828125 84.085938 L 58.488281 84.28125 L 58.25 84.328125 L 57.140625 84.90625 L 57.042969 85 L 56.753906 85.144531 L 56.660156 85.242188 L 56.320312 85.386719 L 56.273438 85.484375 L 56.082031 85.53125 L 56.03125 85.628906 L 55.839844 85.726562 L 55.695312 85.871094 L 55.550781 85.964844 L 55.359375 86.109375 L 55.214844 86.207031 L 55.070312 86.351562 L 54.875 86.445312 L 54.589844 86.738281 L 54.394531 86.832031 L 53.671875 87.554688 L 53.527344 87.652344 L 53.433594 87.796875 L 52.710938 88.519531 L 52.660156 88.664062 L 52.324219 89 L 52.226562 89.144531 L 51.988281 89.386719 L 51.9375 89.578125 L 51.746094 89.722656 L 51.699219 89.867188 L 51.503906 90.058594 L 51.359375 90.347656 L 51.265625 90.445312 L 51.214844 90.589844 L 51.121094 90.6875 L 50.976562 91.023438 L 50.878906 91.070312 L 50.734375 91.410156 L 50.636719 91.503906 L 50.542969 91.746094 L 50.058594 92.707031 L 50.011719 92.949219 L 49.914062 93.09375 L 49.53125 94.296875 L 49.191406 95.601562 L 49.097656 96.082031 L 48.953125 97.1875 L 48.855469 98.875 L 48.953125 98.972656 L 48.953125 100.65625 L 49.046875 100.65625 L 49.046875 101.1875 L 49.097656 101.1875 L 49.097656 101.765625 L 49.191406 101.765625 L 49.191406 102.246094 L 49.289062 102.246094 L 49.289062 102.582031 L 49.339844 102.582031 L 49.339844 102.871094 L 49.433594 102.871094 L 49.433594 103.210938 L 49.53125 103.210938 L 49.53125 103.546875 L 49.578125 103.546875 L 49.578125 103.789062 L 49.675781 103.789062 L 49.675781 104.03125 L 49.769531 104.03125 L 49.769531 104.269531 L 49.820312 104.269531 L 49.820312 104.511719 L 49.914062 104.511719 L 49.914062 104.75 L 50.011719 104.75 L 50.011719 104.894531 L 50.058594 104.894531 L 50.058594 105.136719 L 50.15625 105.136719 L 50.15625 105.28125 L 50.253906 105.28125 L 50.253906 105.472656 L 50.300781 105.472656 L 50.300781 105.617188 L 50.398438 105.617188 L 50.398438 105.761719 L 50.492188 105.761719 L 50.492188 105.953125 L 50.542969 105.953125 L 50.542969 106.101562 L 50.636719 106.101562 L 50.636719 106.339844 L 50.734375 106.339844 L 50.78125 106.4375 L 50.78125 106.582031 L 50.878906 106.582031 L 50.878906 106.726562 L 50.976562 106.726562 L 51.023438 106.820312 L 51.023438 106.964844 L 51.121094 106.964844 L 51.121094 107.160156 L 51.214844 107.160156 L 51.265625 107.207031 L 51.265625 107.398438 L 51.359375 107.398438 L 51.457031 107.449219 L 51.457031 107.640625 L 51.503906 107.640625 L 51.503906 107.785156 L 51.601562 107.785156 L 51.746094 107.929688 L 51.746094 108.125 L 51.839844 108.125 L 51.988281 108.265625 L 51.988281 108.410156 L 52.082031 108.410156 L 52.226562 108.605469 L 52.226562 108.75 L 52.324219 108.75 L 52.710938 109.136719 L 52.710938 109.328125 L 52.804688 109.328125 L 53.527344 110.050781 L 53.527344 110.195312 L 53.671875 110.195312 L 54.394531 110.914062 L 54.589844 111.011719 L 54.875 111.300781 L 55.070312 111.398438 L 55.214844 111.542969 L 55.359375 111.640625 L 55.550781 111.78125 L 55.695312 111.878906 L 55.839844 112.023438 L 56.03125 112.121094 L 56.082031 112.214844 L 56.273438 112.265625 L 56.320312 112.359375 L 56.660156 112.507812 L 56.753906 112.601562 L 57.042969 112.746094 L 57.140625 112.84375 L 58.25 113.421875 L 58.488281 113.46875 L 58.828125 113.660156 L 59.550781 113.902344 L 59.695312 113.953125 L 60.175781 114.144531 L 60.511719 114.191406 L 60.898438 114.289062 L 61.570312 114.433594 L 62.054688 114.527344 L 63.160156 114.671875 L 66.535156 114.769531 L 66.535156 114.671875 L 67.640625 114.527344 L 68.125 114.433594 L 68.796875 114.289062 L 69.183594 114.191406 L 69.519531 114.144531 L 69.761719 114.050781 L 69.90625 113.953125 L 70.867188 113.660156 L 71.976562 113.082031 L 72.21875 112.988281 L 72.3125 112.941406 L 72.652344 112.746094 L 72.699219 112.699219 L 73.035156 112.507812 L 73.132812 112.457031 L 73.277344 112.359375 L 73.375 112.265625 L 73.664062 112.121094 L 73.855469 111.976562 L 74 111.878906 L 74.144531 111.734375 L 74.335938 111.640625 L 74.480469 111.496094 L 74.625 111.398438 L 75.058594 111.011719 L 75.203125 110.914062 L 76.890625 109.230469 L 76.988281 109.085938 L 77.273438 108.75 L 77.371094 108.605469 L 77.515625 108.410156 L 77.613281 108.265625 L 77.757812 108.125 L 77.855469 107.929688 L 77.996094 107.785156 L 78.09375 107.640625 L 78.191406 107.546875 L 78.238281 107.398438 L 78.335938 107.304688 L 78.480469 106.964844 L 78.574219 106.917969 L 78.71875 106.582031 L 78.816406 106.484375 L 79.539062 105.039062 L 79.683594 104.558594 L 79.78125 104.414062 L 80.117188 103.449219 L 80.40625 102.152344 L 80.503906 101.667969 L 80.648438 100.558594 L 80.742188 97.285156 L 80.648438 97.285156 L 80.648438 96.707031 L 80.597656 96.707031 L 80.597656 96.128906 L 80.503906 96.128906 L 80.503906 95.648438 L 80.40625 95.648438 L 80.40625 95.359375 L 80.359375 95.359375 L 80.359375 95.023438 L 80.261719 95.023438 L 80.261719 94.683594 L 80.164062 94.683594 L 80.164062 94.394531 L 80.117188 94.394531 L 80.117188 94.152344 L 80.019531 94.152344 L 80.019531 93.914062 L 79.925781 93.914062 L 79.925781 93.671875 L 79.875 93.671875 L 79.875 93.429688 L 79.78125 93.429688 L 79.78125 93.238281 L 79.683594 93.238281 L 79.683594 92.996094 L 79.636719 92.996094 L 79.636719 92.757812 L 79.539062 92.757812 L 79.539062 92.613281 L 79.441406 92.613281 L 79.441406 92.46875 L 79.394531 92.46875 L 79.394531 92.273438 L 79.296875 92.273438 L 79.296875 92.132812 L 79.203125 92.132812 L 79.203125 91.988281 L 79.152344 91.988281 L 79.152344 91.792969 L 79.058594 91.792969 L 79.058594 91.648438 L 78.960938 91.648438 L 78.960938 91.503906 L 78.914062 91.503906 L 78.914062 91.3125 L 78.816406 91.261719 L 78.71875 91.261719 L 78.71875 91.070312 L 78.671875 91.070312 L 78.671875 90.925781 L 78.574219 90.832031 L 78.480469 90.832031 L 78.480469 90.6875 L 78.429688 90.6875 L 78.429688 90.542969 L 78.335938 90.445312 L 78.238281 90.445312 L 78.238281 90.300781 L 78.191406 90.203125 L 78.09375 90.203125 L 78.09375 90.058594 L 77.949219 89.867188 L 77.855469 89.867188 L 77.855469 89.722656 L 77.707031 89.578125 L 77.613281 89.578125 L 77.613281 89.386719 L 77.46875 89.242188 L 77.371094 89.242188 L 77.371094 89.097656 L 77.035156 88.757812 L 76.988281 88.757812 L 76.988281 88.613281 L 75.203125 86.832031 L 75.058594 86.738281 L 74.625 86.351562 L 74.480469 86.253906 L 74.335938 86.109375 L 74.144531 86.011719 L 74 85.871094 L 73.855469 85.773438 L 73.664062 85.628906 L 73.375 85.484375 L 73.277344 85.386719 L 73.132812 85.292969 L 73.035156 85.242188 L 72.699219 85.050781 L 72.652344 85 L 72.3125 84.808594 L 72.21875 84.761719 L 71.976562 84.664062 L 70.867188 84.085938 L 69.90625 83.796875 L 69.761719 83.703125 L 69.519531 83.605469 L 69.183594 83.558594 L 68.796875 83.460938 L 68.125 83.316406 L 67.640625 83.21875 L 66.535156 83.074219 Z M 26.941406 83.074219 L 25.832031 83.21875 L 25.351562 83.316406 L 24.722656 83.460938 L 24.289062 83.558594 L 24 83.605469 L 23.519531 83.796875 L 23.328125 83.847656 L 22.605469 84.085938 L 22.316406 84.28125 L 22.074219 84.328125 L 20.917969 84.90625 L 20.871094 85 L 20.535156 85.144531 L 20.4375 85.242188 L 20.148438 85.386719 L 20.050781 85.484375 L 19.90625 85.53125 L 19.808594 85.628906 L 19.667969 85.726562 L 19.472656 85.871094 L 19.328125 85.964844 L 19.183594 86.109375 L 18.992188 86.207031 L 18.847656 86.351562 L 18.703125 86.445312 L 18.363281 86.738281 L 18.222656 86.832031 L 17.5 87.554688 L 17.304688 87.652344 L 17.257812 87.796875 L 16.535156 88.519531 L 16.4375 88.664062 L 16.101562 89 L 16.054688 89.144531 L 15.8125 89.386719 L 15.714844 89.578125 L 15.570312 89.722656 L 15.476562 89.867188 L 15.332031 90.058594 L 15.136719 90.347656 L 15.089844 90.445312 L 14.992188 90.589844 L 14.898438 90.6875 L 14.753906 91.023438 L 14.65625 91.070312 L 14.511719 91.410156 L 14.417969 91.503906 L 14.367188 91.746094 L 13.886719 92.707031 L 13.789062 92.949219 L 13.691406 93.09375 L 13.308594 94.296875 L 12.96875 95.601562 L 12.921875 96.082031 L 12.730469 97.1875 L 12.679688 98.875 L 12.730469 98.972656 L 12.730469 100.65625 L 12.824219 100.65625 L 12.824219 101.1875 L 12.921875 101.1875 L 12.921875 101.765625 L 12.96875 101.765625 L 12.96875 102.246094 L 13.066406 102.246094 L 13.066406 102.582031 L 13.164062 102.582031 L 13.164062 102.871094 L 13.210938 102.871094 L 13.210938 103.210938 L 13.308594 103.210938 L 13.308594 103.546875 L 13.402344 103.546875 L 13.402344 103.789062 L 13.453125 103.789062 L 13.453125 104.03125 L 13.546875 104.03125 L 13.546875 104.269531 L 13.644531 104.269531 L 13.644531 104.511719 L 13.691406 104.511719 L 13.691406 104.75 L 13.789062 104.75 L 13.789062 104.894531 L 13.886719 104.894531 L 13.886719 105.136719 L 13.933594 105.136719 L 13.933594 105.28125 L 14.03125 105.28125 L 14.03125 105.472656 L 14.125 105.472656 L 14.125 105.617188 L 14.175781 105.617188 L 14.175781 105.761719 L 14.269531 105.761719 L 14.269531 105.953125 L 14.367188 105.953125 L 14.367188 106.101562 L 14.417969 106.101562 L 14.417969 106.339844 L 14.511719 106.339844 L 14.609375 106.4375 L 14.609375 106.582031 L 14.65625 106.582031 L 14.65625 106.726562 L 14.753906 106.726562 L 14.847656 106.820312 L 14.847656 106.964844 L 14.898438 106.964844 L 14.898438 107.160156 L 14.992188 107.160156 L 15.089844 107.207031 L 15.089844 107.398438 L 15.136719 107.398438 L 15.234375 107.449219 L 15.234375 107.640625 L 15.332031 107.640625 L 15.332031 107.785156 L 15.378906 107.785156 L 15.570312 107.929688 L 15.570312 108.125 L 15.621094 108.125 L 15.8125 108.265625 L 15.8125 108.410156 L 15.859375 108.410156 L 16.054688 108.605469 L 16.054688 108.75 L 16.101562 108.75 L 16.535156 109.136719 L 16.535156 109.328125 L 16.582031 109.328125 L 17.304688 110.050781 L 17.304688 110.195312 L 17.5 110.195312 L 18.222656 110.914062 L 18.363281 111.011719 L 18.703125 111.300781 L 18.847656 111.398438 L 18.992188 111.542969 L 19.183594 111.640625 L 19.328125 111.78125 L 19.472656 111.878906 L 19.667969 112.023438 L 19.808594 112.121094 L 19.90625 112.214844 L 20.050781 112.265625 L 20.148438 112.359375 L 20.4375 112.507812 L 20.535156 112.601562 L 20.871094 112.746094 L 20.917969 112.84375 L 22.074219 113.421875 L 22.316406 113.46875 L 22.605469 113.660156 L 23.328125 113.902344 L 23.519531 113.953125 L 24 114.144531 L 24.289062 114.191406 L 24.722656 114.289062 L 25.351562 114.433594 L 25.832031 114.527344 L 26.941406 114.671875 L 30.3125 114.769531 L 30.3125 114.671875 L 31.46875 114.527344 L 31.949219 114.433594 L 32.574219 114.289062 L 32.960938 114.191406 L 33.296875 114.144531 L 33.539062 114.050781 L 33.683594 113.953125 L 34.644531 113.660156 L 35.800781 113.082031 L 36.042969 112.988281 L 36.089844 112.941406 L 36.429688 112.746094 L 36.523438 112.699219 L 36.8125 112.507812 L 36.910156 112.457031 L 37.054688 112.359375 L 37.152344 112.265625 L 37.488281 112.121094 L 37.632812 111.976562 L 37.777344 111.878906 L 37.96875 111.734375 L 38.113281 111.640625 L 38.257812 111.496094 L 38.453125 111.398438 L 38.835938 111.011719 L 38.980469 110.914062 L 40.667969 109.230469 L 40.761719 109.085938 L 41.101562 108.75 L 41.148438 108.605469 L 41.339844 108.410156 L 41.390625 108.265625 L 41.582031 108.125 L 41.632812 107.929688 L 41.824219 107.785156 L 41.871094 107.640625 L 41.96875 107.546875 L 42.066406 107.398438 L 42.113281 107.304688 L 42.304688 106.964844 L 42.351562 106.917969 L 42.546875 106.582031 L 42.59375 106.484375 L 43.316406 105.039062 L 43.507812 104.558594 L 43.558594 104.414062 L 43.894531 103.449219 L 44.230469 102.152344 L 44.28125 101.667969 L 44.472656 100.558594 L 44.519531 97.285156 L 44.472656 97.285156 L 44.472656 96.707031 L 44.375 96.707031 L 44.375 96.128906 L 44.28125 96.128906 L 44.28125 95.648438 L 44.230469 95.648438 L 44.230469 95.359375 L 44.136719 95.359375 L 44.136719 95.023438 L 44.039062 95.023438 L 44.039062 94.683594 L 43.992188 94.683594 L 43.992188 94.394531 L 43.894531 94.394531 L 43.894531 94.152344 L 43.796875 94.152344 L 43.796875 93.914062 L 43.75 93.914062 L 43.75 93.671875 L 43.652344 93.671875 L 43.652344 93.429688 L 43.558594 93.429688 L 43.558594 93.238281 L 43.507812 93.238281 L 43.507812 92.996094 L 43.414062 92.996094 L 43.414062 92.757812 L 43.316406 92.757812 L 43.316406 92.613281 L 43.269531 92.613281 L 43.269531 92.46875 L 43.171875 92.46875 L 43.171875 92.273438 L 43.074219 92.273438 L 43.074219 92.132812 L 43.027344 92.132812 L 43.027344 91.988281 L 42.929688 91.988281 L 42.929688 91.792969 L 42.835938 91.792969 L 42.835938 91.648438 L 42.785156 91.648438 L 42.785156 91.503906 L 42.691406 91.503906 L 42.691406 91.3125 L 42.59375 91.261719 L 42.546875 91.261719 L 42.546875 91.070312 L 42.449219 91.070312 L 42.449219 90.925781 L 42.351562 90.832031 L 42.304688 90.832031 L 42.304688 90.6875 L 42.207031 90.6875 L 42.207031 90.542969 L 42.113281 90.445312 L 42.066406 90.445312 L 42.066406 90.300781 L 41.96875 90.203125 L 41.871094 90.203125 L 41.871094 90.058594 L 41.726562 89.867188 L 41.632812 89.867188 L 41.632812 89.722656 L 41.488281 89.578125 L 41.390625 89.578125 L 41.390625 89.386719 L 41.246094 89.242188 L 41.148438 89.242188 L 41.148438 89.097656 L 40.859375 88.757812 L 40.761719 88.757812 L 40.761719 88.613281 L 38.980469 86.832031 L 38.835938 86.738281 L 38.453125 86.351562 L 38.257812 86.253906 L 38.113281 86.109375 L 37.96875 86.011719 L 37.777344 85.871094 L 37.632812 85.773438 L 37.488281 85.628906 L 37.152344 85.484375 L 37.054688 85.386719 L 36.910156 85.292969 L 36.8125 85.242188 L 36.523438 85.050781 L 36.429688 85 L 36.089844 84.808594 L 36.042969 84.761719 L 35.800781 84.664062 L 34.644531 84.085938 L 33.683594 83.796875 L 33.539062 83.703125 L 33.296875 83.605469 L 32.960938 83.558594 L 32.574219 83.460938 L 31.949219 83.316406 L 31.46875 83.21875 L 30.3125 83.074219 Z M 26.941406 83.074219 "/>
<path style=" stroke:none;fill-rule:evenodd;fill:rgb(88.235294%,62.745098%,21.960784%);fill-opacity:1;" d="M 26.941406 83.074219 L 25.832031 83.21875 L 25.351562 83.316406 L 24.722656 83.460938 L 24.289062 83.558594 L 24 83.605469 L 23.519531 83.796875 L 23.324219 83.847656 L 22.605469 84.085938 L 22.3125 84.28125 L 22.074219 84.328125 L 20.917969 84.90625 L 20.871094 85 L 20.53125 85.144531 L 20.4375 85.242188 L 20.148438 85.386719 L 20.050781 85.484375 L 19.90625 85.53125 L 19.808594 85.628906 L 19.667969 85.722656 L 19.472656 85.871094 L 19.328125 85.964844 L 19.183594 86.109375 L 18.992188 86.207031 L 18.847656 86.351562 L 18.703125 86.445312 L 18.363281 86.738281 L 18.222656 86.832031 L 17.5 87.554688 L 17.304688 87.652344 L 17.257812 87.796875 L 16.535156 88.519531 L 16.4375 88.664062 L 16.101562 89 L 16.054688 89.144531 L 15.8125 89.386719 L 15.71875 89.578125 L 15.570312 89.722656 L 15.476562 89.867188 L 15.332031 90.0625 L 15.136719 90.351562 L 15.089844 90.445312 L 14.992188 90.589844 L 14.898438 90.6875 L 14.753906 91.023438 L 14.65625 91.074219 L 14.511719 91.410156 L 14.417969 91.507812 L 14.367188 91.75 L 13.886719 92.710938 L 13.789062 92.953125 L 13.695312 93.097656 L 13.308594 94.300781 L 12.96875 95.601562 L 12.921875 96.082031 L 12.730469 97.1875 L 12.679688 98.875 L 12.730469 98.972656 L 12.730469 100.578125 C 19.902344 95.085938 27.328125 89.9375 34.984375 85.148438 C 35.246094 84.980469 35.511719 84.816406 35.777344 84.652344 L 34.644531 84.085938 L 33.683594 83.800781 L 33.539062 83.703125 L 33.296875 83.605469 L 32.960938 83.558594 L 32.574219 83.460938 L 31.949219 83.316406 L 31.464844 83.21875 L 30.3125 83.074219 Z M 125.664062 88.878906 C 127.582031 87.609375 129.515625 86.367188 131.464844 85.148438 C 132.371094 84.578125 133.28125 84.011719 134.191406 83.445312 L 134.113281 83.460938 L 133.730469 83.558594 L 133.390625 83.605469 L 132.910156 83.800781 L 132.765625 83.847656 L 132.042969 84.085938 L 131.707031 84.28125 L 131.464844 84.328125 L 130.359375 84.90625 L 130.261719 85.003906 L 129.972656 85.148438 L 129.878906 85.242188 L 129.539062 85.386719 L 129.488281 85.484375 L 129.296875 85.53125 L 129.25 85.628906 L 129.058594 85.726562 L 128.910156 85.871094 L 128.765625 85.964844 L 128.574219 86.109375 L 128.429688 86.207031 L 128.285156 86.351562 L 128.089844 86.449219 L 127.804688 86.738281 L 127.609375 86.835938 L 126.886719 87.554688 L 126.742188 87.652344 L 126.644531 87.796875 L 125.925781 88.519531 L 125.875 88.664062 Z M 94.226562 112.890625 C 101.566406 106.425781 109.238281 100.34375 117.207031 94.671875 L 117.207031 94.394531 L 117.109375 94.394531 L 117.109375 94.152344 L 117.011719 94.152344 L 117.011719 93.914062 L 116.964844 93.914062 L 116.964844 93.671875 L 116.867188 93.671875 L 116.867188 93.433594 L 116.769531 93.433594 L 116.769531 93.238281 L 116.726562 93.238281 L 116.726562 93 L 116.628906 93 L 116.628906 92.757812 L 116.53125 92.757812 L 116.53125 92.613281 L 116.484375 92.613281 L 116.484375 92.46875 L 116.386719 92.46875 L 116.386719 92.277344 L 116.289062 92.277344 L 116.289062 92.132812 L 116.242188 92.132812 L 116.242188 91.988281 L 116.144531 91.988281 L 116.144531 91.792969 L 116.046875 91.792969 L 116.046875 91.648438 L 116 91.648438 L 116 91.503906 L 115.902344 91.503906 L 115.902344 91.3125 L 115.804688 91.261719 L 115.757812 91.261719 L 115.757812 91.070312 L 115.664062 91.070312 L 115.664062 90.925781 L 115.566406 90.828125 L 115.515625 90.828125 L 115.515625 90.683594 L 115.421875 90.683594 L 115.421875 90.539062 L 115.324219 90.445312 L 115.277344 90.445312 L 115.277344 90.296875 L 115.179688 90.203125 L 115.082031 90.203125 L 115.082031 90.058594 L 114.9375 89.863281 L 114.839844 89.863281 L 114.839844 89.71875 L 114.695312 89.574219 L 114.601562 89.574219 L 114.601562 89.382812 L 114.457031 89.238281 L 114.359375 89.238281 L 114.359375 89.097656 L 114.070312 88.761719 L 113.972656 88.761719 L 113.972656 88.617188 L 112.191406 86.832031 L 112.046875 86.738281 L 111.660156 86.351562 L 111.46875 86.253906 L 111.324219 86.109375 L 111.175781 86.011719 L 110.984375 85.871094 L 110.839844 85.773438 L 110.695312 85.628906 L 110.355469 85.484375 L 110.261719 85.386719 L 110.117188 85.292969 L 110.019531 85.246094 L 109.730469 85.050781 L 109.636719 85.003906 L 109.296875 84.8125 L 109.25 84.761719 L 109.007812 84.664062 L 107.851562 84.085938 L 106.890625 83.800781 L 106.746094 83.703125 L 106.503906 83.605469 L 106.167969 83.558594 L 105.78125 83.460938 L 105.15625 83.316406 L 104.671875 83.21875 L 103.515625 83.074219 L 100.144531 83.074219 L 99.039062 83.21875 L 98.554688 83.316406 L 97.929688 83.460938 L 97.496094 83.558594 L 97.207031 83.605469 L 96.726562 83.800781 L 96.53125 83.847656 L 95.808594 84.085938 L 95.519531 84.28125 L 95.28125 84.328125 L 94.125 84.90625 L 94.078125 85.003906 L 93.738281 85.148438 L 93.644531 85.242188 L 93.355469 85.386719 L 93.257812 85.484375 L 93.113281 85.53125 L 93.015625 85.628906 L 92.871094 85.726562 L 92.679688 85.871094 L 92.535156 85.964844 L 92.390625 86.109375 L 92.195312 86.207031 L 92.050781 86.351562 L 91.90625 86.449219 L 91.570312 86.738281 L 91.425781 86.835938 L 90.703125 87.554688 L 90.511719 87.652344 L 90.460938 87.796875 L 89.75 88.519531 L 89.652344 88.664062 L 89.316406 89 L 89.269531 89.144531 L 89.027344 89.386719 L 88.929688 89.578125 L 88.785156 89.722656 L 88.691406 89.867188 L 88.546875 90.0625 L 88.351562 90.351562 L 88.304688 90.445312 L 88.207031 90.589844 L 88.113281 90.6875 L 87.96875 91.023438 L 87.871094 91.074219 L 87.726562 91.410156 L 87.628906 91.507812 L 87.582031 91.75 L 87.101562 92.710938 L 87.003906 92.953125 L 86.90625 93.097656 L 86.523438 94.300781 L 86.183594 95.601562 L 86.136719 96.082031 L 85.941406 97.191406 L 85.894531 98.878906 L 85.941406 98.972656 L 85.941406 100.660156 L 86.039062 100.660156 L 86.039062 101.1875 L 86.136719 101.1875 L 86.136719 101.765625 L 86.183594 101.765625 L 86.183594 102.25 L 86.28125 102.25 L 86.28125 102.585938 L 86.378906 102.585938 L 86.378906 102.875 L 86.425781 102.875 L 86.425781 103.210938 L 86.523438 103.210938 L 86.523438 103.550781 L 86.617188 103.550781 L 86.617188 103.789062 L 86.667969 103.789062 L 86.667969 104.03125 L 86.761719 104.03125 L 86.761719 104.269531 L 86.859375 104.269531 L 86.859375 104.511719 L 86.90625 104.511719 L 86.90625 104.75 L 87.003906 104.75 L 87.003906 104.894531 L 87.101562 104.894531 L 87.101562 105.136719 L 87.148438 105.136719 L 87.148438 105.28125 L 87.242188 105.28125 L 87.242188 105.476562 L 87.339844 105.476562 L 87.339844 105.621094 L 87.386719 105.621094 L 87.386719 105.765625 L 87.484375 105.765625 L 87.484375 105.957031 L 87.582031 105.957031 L 87.582031 106.101562 L 87.628906 106.101562 L 87.628906 106.339844 L 87.722656 106.339844 L 87.820312 106.4375 L 87.820312 106.582031 L 87.871094 106.582031 L 87.871094 106.730469 L 87.964844 106.730469 L 88.0625 106.824219 L 88.0625 106.96875 L 88.109375 106.96875 L 88.109375 107.164062 L 88.203125 107.164062 L 88.300781 107.210938 L 88.300781 107.402344 L 88.347656 107.402344 L 88.445312 107.453125 L 88.445312 107.644531 L 88.542969 107.644531 L 88.542969 107.789062 L 88.589844 107.789062 L 88.78125 107.9375 L 88.78125 108.128906 L 88.832031 108.128906 L 89.023438 108.273438 L 89.023438 108.417969 L 89.070312 108.417969 L 89.265625 108.613281 L 89.265625 108.757812 L 89.3125 108.757812 L 89.746094 109.140625 L 89.746094 109.335938 L 89.792969 109.335938 L 90.515625 110.058594 L 90.515625 110.203125 L 90.707031 110.203125 L 91.433594 110.921875 L 91.574219 111.019531 L 91.914062 111.3125 L 92.058594 111.40625 L 92.203125 111.550781 L 92.394531 111.648438 L 92.539062 111.792969 L 92.683594 111.890625 L 92.878906 112.035156 L 93.019531 112.132812 L 93.117188 112.226562 L 93.261719 112.277344 L 93.359375 112.371094 L 93.648438 112.515625 L 93.746094 112.613281 L 94.082031 112.757812 L 94.128906 112.855469 Z M 80.117188 94.21875 C 72.183594 100.085938 64.507812 106.289062 57.105469 112.808594 L 57.140625 112.84375 L 58.25 113.421875 L 58.488281 113.46875 L 58.828125 113.664062 L 59.550781 113.902344 L 59.695312 113.953125 L 60.175781 114.144531 L 60.511719 114.195312 L 60.898438 114.289062 L 61.574219 114.4375 L 62.054688 114.53125 L 63.160156 114.675781 L 66.535156 114.773438 L 66.535156 114.675781 L 67.640625 114.53125 L 68.121094 114.4375 L 68.796875 114.289062 L 69.183594 114.195312 L 69.519531 114.144531 L 69.757812 114.050781 L 69.90625 113.953125 L 70.867188 113.664062 L 71.976562 113.085938 L 72.214844 112.988281 L 72.3125 112.941406 L 72.652344 112.746094 L 72.699219 112.699219 L 73.035156 112.507812 L 73.132812 112.457031 L 73.277344 112.359375 L 73.371094 112.265625 L 73.660156 112.121094 L 73.855469 111.972656 L 74 111.878906 L 74.144531 111.730469 L 74.335938 111.636719 L 74.480469 111.492188 L 74.625 111.394531 L 75.058594 111.011719 L 75.203125 110.914062 L 76.890625 109.226562 L 76.988281 109.082031 L 77.273438 108.746094 L 77.371094 108.601562 L 77.515625 108.40625 L 77.613281 108.261719 L 77.757812 108.117188 L 77.855469 107.925781 L 78 107.777344 L 78.09375 107.632812 L 78.191406 107.539062 L 78.238281 107.394531 L 78.335938 107.296875 L 78.480469 106.960938 L 78.578125 106.914062 L 78.722656 106.574219 L 78.820312 106.480469 L 79.539062 105.035156 L 79.683594 104.550781 L 79.78125 104.40625 L 80.117188 103.441406 L 80.40625 102.144531 L 80.503906 101.660156 L 80.648438 100.550781 L 80.746094 97.277344 L 80.648438 97.277344 L 80.648438 96.699219 L 80.597656 96.699219 L 80.597656 96.121094 L 80.503906 96.121094 L 80.503906 95.636719 L 80.40625 95.636719 L 80.40625 95.347656 L 80.359375 95.347656 L 80.359375 95.023438 L 80.261719 95.023438 L 80.261719 94.683594 L 80.167969 94.683594 L 80.167969 94.394531 L 80.117188 94.394531 Z M 80.117188 94.21875 "/>
<path style=" stroke:none;fill-rule:evenodd;fill:rgb(93.333333%,77.254902%,21.960784%);fill-opacity:1;" d="M 32.960938 97.042969 C 34.742188 95.40625 35.609375 93.914062 35.609375 92.46875 C 35.609375 91.746094 35.320312 91.261719 34.597656 91.167969 C 33.394531 91.167969 31.851562 92.035156 30.167969 93.71875 C 28.335938 95.503906 26.792969 97.816406 25.589844 100.800781 C 28.578125 100.222656 30.984375 99.019531 32.960938 97.042969 Z M 34.261719 90.445312 C 36.523438 90.445312 37.632812 91.40625 37.632812 93.238281 C 37.632812 94.925781 36.574219 96.464844 34.40625 98.007812 C 32.335938 99.5 29.300781 100.800781 25.253906 101.859375 L 25.015625 104.316406 C 25.015625 106.195312 25.832031 107.0625 27.421875 107.0625 C 29.445312 107.0625 31.757812 105.710938 34.597656 103.0625 L 38.5 99.015625 L 38.742188 99.113281 L 38.933594 99.355469 C 38.933594 99.933594 37.539062 101.425781 34.886719 103.929688 C 31.757812 106.675781 29.300781 108.023438 27.375 108.023438 C 25.6875 108.023438 24.386719 107.398438 23.425781 106.195312 C 22.363281 104.992188 21.882812 103.351562 21.882812 101.375 C 21.882812 100.65625 21.980469 99.738281 22.21875 98.871094 C 21.738281 99.59375 21.351562 99.980469 20.917969 100.078125 L 20.628906 99.835938 C 20.628906 99.113281 22.074219 97.523438 24.867188 94.921875 C 28.335938 91.988281 31.46875 90.445312 34.261719 90.445312 Z M 34.261719 90.445312 "/>
<path style=" stroke:none;fill-rule:evenodd;fill:rgb(100%,100%,100%);fill-opacity:1;" d="M 104.921875 92.949219 L 104.921875 94.78125 L 102.417969 94.78125 L 102.417969 103.355469 C 102.417969 104.074219 102.515625 104.507812 102.566406 104.65625 L 102.996094 105.136719 L 103.863281 105.375 L 104.921875 105.277344 L 105.308594 107.449219 L 103.476562 107.640625 C 102.5625 107.640625 101.839844 107.449219 101.3125 107.207031 C 100.828125 106.964844 100.492188 106.582031 100.347656 106.101562 C 100.105469 105.714844 100.011719 104.75 100.011719 103.210938 L 100.011719 94.78125 L 98.179688 94.78125 L 98.179688 92.949219 L 100.011719 92.949219 L 100.011719 89.335938 L 102.417969 87.796875 L 102.417969 92.949219 Z M 62.921875 95.648438 C 62.101562 96.371094 61.714844 97.671875 61.714844 99.5 L 61.714844 107.449219 L 59.308594 107.449219 L 59.308594 92.855469 L 61.570312 92.855469 L 61.570312 94.925781 C 62.582031 93.335938 64.125 92.515625 66.148438 92.515625 C 67.015625 92.515625 67.882812 92.710938 68.605469 93 C 69.230469 93.28125 69.789062 93.691406 70.242188 94.203125 C 70.628906 94.78125 70.871094 95.359375 71.011719 96.082031 L 71.109375 98.492188 L 71.109375 107.449219 L 68.605469 107.449219 L 68.605469 98.539062 C 68.605469 97.527344 68.558594 96.804688 68.363281 96.324219 C 68.125 95.839844 67.832031 95.40625 67.398438 95.121094 C 66.871094 94.78125 66.292969 94.636719 65.667969 94.636719 C 64.605469 94.636719 63.644531 94.925781 62.921875 95.648438 Z M 177.078125 92.515625 C 177.945312 92.515625 178.765625 92.757812 179.585938 93.335938 L 178.765625 95.648438 C 178.1875 95.261719 177.5625 95.117188 176.9375 95.117188 C 176.359375 95.117188 175.875 95.261719 175.492188 95.601562 C 175.054688 95.886719 174.765625 96.371094 174.574219 96.949219 C 174.257812 97.878906 174.097656 98.855469 174.09375 99.839844 L 174.09375 107.449219 L 171.683594 107.449219 L 171.683594 92.949219 L 173.949219 92.949219 L 173.949219 95.117188 C 174.527344 94.058594 175.007812 93.429688 175.492188 93.09375 C 175.972656 92.707031 176.5 92.515625 177.078125 92.515625 Z M 135.898438 95.117188 C 135.078125 95.839844 134.695312 96.851562 134.597656 98.152344 L 142.738281 98.152344 C 142.640625 96.949219 142.304688 95.984375 141.820312 95.40625 C 141.050781 94.445312 139.992188 93.960938 138.785156 93.960938 C 137.675781 93.960938 136.714844 94.394531 135.898438 95.117188 Z M 138.6875 91.890625 C 140.714844 91.890625 142.300781 92.515625 143.507812 93.914062 C 144.710938 95.261719 145.386719 97.09375 145.386719 99.5 L 145.386719 100.175781 L 134.453125 100.175781 C 134.546875 101.765625 135.03125 102.96875 135.800781 103.835938 C 136.71875 104.75 137.679688 105.136719 138.882812 105.136719 C 139.75 105.136719 140.570312 104.894531 141.195312 104.414062 C 141.824219 103.933594 142.304688 103.210938 142.738281 102.152344 L 145.292969 102.488281 C 144.90625 103.933594 144.085938 105.039062 143.023438 105.953125 C 142.015625 106.726562 140.570312 107.160156 138.882812 107.160156 C 136.71875 107.160156 135.03125 106.484375 133.828125 105.234375 C 132.527344 103.835938 131.902344 102.003906 131.902344 99.691406 C 131.902344 97.1875 132.527344 95.359375 133.828125 93.960938 C 135.078125 92.613281 136.714844 91.890625 138.6875 91.890625 Z M 138.6875 91.890625 "/>
</g>
</svg>
