<?xml version="1.0" encoding="UTF-8"?>
<svg xmlns="http://www.w3.org/2000/svg" xmlns:xlink="http://www.w3.org/1999/xlink" width="200pt" height="200pt" viewBox="0 0 200 200" version="1.1">
<g id="surface1">
<rect x="0" y="0" width="200" height="200" style="fill:rgb(16.862745%,16.862745%,17.647059%);fill-opacity:1;stroke:none;"/>
<path style="fill:none;stroke-width:0.412;stroke-linecap:butt;stroke-linejoin:round;stroke:rgb(100%,100%,100%);stroke-opacity:1;stroke-miterlimit:2.613;" d="M 51.848352 90.414611 L 53.33167 91.837693 L 50.127854 90.414611 L 44.492 83.649327 L 49.653494 88.396697 " transform="matrix(1.037581,0,0,1.037581,0,0)"/>
<path style=" stroke:none;fill-rule:evenodd;fill:rgb(100%,100%,100%);fill-opacity:1;" d="M 28.617188 114.3125 C 28.617188 114.3125 34.34375 114.621094 35.449219 114.621094 C 36.558594 114.621094 40.5 114.558594 41.976562 114.558594 C 43.453125 114.558594 47.703125 114.683594 49.117188 114.683594 C 50.59375 114.683594 56.75 114.496094 57.675781 114.496094 C 58.660156 114.496094 60.878906 114.804688 61.984375 114.804688 C 63.03125 114.804688 64.449219 114.621094 64.449219 114.621094 C 64.449219 114.621094 63.09375 114.375 62.417969 114.375 C 61.679688 114.375 58.785156 114.253906 57.550781 114.253906 C 56.320312 114.253906 50.226562 114.066406 49.058594 114.066406 L 41.976562 114.066406 C 40.929688 114.066406 36.253906 114.128906 35.511719 114.128906 C 34.773438 114.128906 28.617188 114.3125 28.617188 114.3125 Z M 24.738281 113.144531 L 24.554688 113.511719 C 24.554688 113.511719 25.230469 113.574219 25.785156 113.574219 C 26.339844 113.574219 28.738281 113.390625 29.480469 113.390625 C 30.21875 113.390625 32.621094 113.574219 33.910156 113.574219 C 35.203125 113.574219 38.652344 113.453125 39.636719 113.453125 C 40.5625 113.453125 42.898438 113.574219 43.453125 113.574219 C 44.070312 113.574219 44.871094 113.390625 44.871094 113.390625 C 44.871094 113.390625 43.269531 113.265625 42.53125 113.265625 C 41.730469 113.265625 39.699219 113.082031 39.144531 113.082031 C 38.53125 113.082031 34.160156 113.144531 34.160156 113.144531 L 29.417969 113.207031 L 25.664062 113.265625 Z M 47.023438 113.511719 C 47.023438 113.511719 48.253906 113.328125 48.808594 113.328125 C 49.425781 113.328125 50.101562 113.265625 50.78125 113.265625 C 51.457031 113.265625 51.765625 113.265625 52.503906 113.328125 C 53.242188 113.390625 53.796875 113.453125 54.226562 113.328125 C 54.660156 113.203125 55.519531 113.390625 55.519531 113.390625 C 55.519531 113.390625 53.550781 113.511719 53.425781 113.511719 C 53.242188 113.574219 52.566406 113.636719 52.320312 113.574219 C 52.132812 113.511719 50.59375 113.511719 50.59375 113.511719 L 48.996094 113.695312 Z M 57.859375 113.328125 C 57.859375 113.328125 61.0625 113.144531 61.675781 113.265625 C 62.351562 113.453125 65.0625 113.511719 65.308594 113.390625 C 65.617188 113.203125 65.617188 113.757812 65.617188 113.757812 L 64.386719 113.820312 C 64.386719 113.820312 62.046875 113.882812 61.738281 113.695312 C 61.429688 113.511719 58.351562 113.574219 58.042969 113.511719 C 57.796875 113.511719 57.859375 113.328125 57.859375 113.328125 Z M 25.109375 112.34375 L 43.144531 112.34375 L 43.207031 112.710938 L 25.167969 112.710938 Z M 25.109375 112.34375 "/>
<path style="fill-rule:evenodd;fill:rgb(0%,0%,0%);fill-opacity:1;stroke-width:0.412;stroke-linecap:butt;stroke-linejoin:miter;stroke:rgb(100%,100%,100%);stroke-opacity:1;stroke-miterlimit:2.613;" d="M 45.854845 108.274659 L 57.841859 108.274659 L 57.898331 108.628547 L 45.915082 108.628547 Z M 45.854845 108.274659 " transform="matrix(1.037581,0,0,1.037581,0,0)"/>
<path style=" stroke:none;fill-rule:evenodd;fill:rgb(100%,100%,100%);fill-opacity:1;" d="M 62.414062 112.710938 L 62.847656 112.957031 L 63.339844 112.710938 L 62.785156 112.589844 L 62.351562 112.34375 L 60.628906 112.34375 L 60.691406 112.710938 Z M 62.785156 112.28125 C 63.09375 111.914062 63.339844 111.914062 63.585938 112.097656 C 63.769531 112.28125 63.953125 112.160156 64.078125 112.035156 C 64.203125 111.851562 64.632812 111.851562 64.816406 112.773438 C 64.324219 112.527344 64.507812 112.097656 64.203125 112.28125 C 63.894531 112.464844 63.707031 112.527344 63.523438 112.34375 C 63.398438 112.21875 62.96875 112.035156 62.785156 112.28125 Z M 62.722656 111.726562 C 62.722656 111.726562 62.847656 111.480469 63.15625 111.605469 C 63.398438 111.726562 63.339844 111.480469 63.648438 111.605469 C 63.648438 111.605469 63.710938 111.296875 63.277344 111.296875 C 62.910156 111.359375 62.722656 111.417969 62.722656 111.417969 Z M 62.722656 111.726562 "/>
<path style=" stroke:none;fill-rule:evenodd;fill:rgb(100%,100%,100%);fill-opacity:1;" d="M 63.214844 111.480469 C 63.214844 111.480469 63.398438 110.804688 63.09375 110.558594 C 62.722656 110.3125 62.292969 110.371094 62.167969 110.496094 C 61.984375 110.617188 62.105469 110.863281 62.105469 110.863281 C 62.105469 110.863281 62.230469 110.800781 62.414062 110.679688 C 62.785156 110.433594 63.03125 110.988281 63.03125 110.988281 C 63.03125 111.171875 62.96875 111.355469 62.96875 111.355469 L 63.03125 111.480469 Z M 63.214844 111.480469 "/>
<path style="fill:none;stroke-width:0.206;stroke-linecap:butt;stroke-linejoin:round;stroke:rgb(100%,100%,100%);stroke-opacity:1;stroke-miterlimit:2.613;" d="M 52.736837 99.314517 L 50.304798 103.467054 L 50.304798 90.535084 M 56.238069 102.992693 L 56.238069 108.51184 M 55.586764 100.500418 L 56.000889 100.500418 L 56.000889 99.314517 M 57.484206 97.891436 L 57.484206 100.560655 L 56.000889 103.467054 L 50.304798 103.467054 L 52.740602 99.314517 " transform="matrix(1.037581,0,0,1.037581,0,0)"/>
<path style="fill:none;stroke-width:0.412;stroke-linecap:butt;stroke-linejoin:round;stroke:rgb(100%,100%,100%);stroke-opacity:1;stroke-miterlimit:2.613;" d="M 52.736837 91.720985 L 52.736837 99.314517 L 56.000889 99.314517 L 56.000889 97.891436 L 57.484206 97.891436 L 58.432927 98.188852 L 58.432927 100.440182 L 60.511078 103.647762 L 59.799537 103.647762 L 59.799537 108.451603 " transform="matrix(1.037581,0,0,1.037581,0,0)"/>
<path style="fill:none;stroke-width:0.206;stroke-linecap:butt;stroke-linejoin:round;stroke:rgb(100%,100%,100%);stroke-opacity:1;stroke-miterlimit:2.613;" d="M 50.304798 104.00165 L 56.000889 104.00165 L 56.238069 103.52729 L 56.238069 102.992693 L 56.000889 103.467054 L 50.304798 103.467054 Z M 50.304798 104.00165 " transform="matrix(1.037581,0,0,1.037581,0,0)"/>
<path style="fill:none;stroke-width:0.412;stroke-linecap:butt;stroke-linejoin:round;stroke:rgb(100%,100%,100%);stroke-opacity:1;stroke-miterlimit:2.613;" d="M 51.788116 91.306861 L 51.788116 88.042809 L 51.490699 87.745392 L 51.490699 86.499255 L 51.193283 86.141602 L 50.839395 86.141602 L 50.839395 87.033852 L 49.653494 87.033852 L 49.653494 89.168474 L 50.779159 90.651791 " transform="matrix(1.037581,0,0,1.037581,0,0)"/>
<path style="fill:none;stroke-width:0.206;stroke-linecap:butt;stroke-linejoin:round;stroke:rgb(100%,100%,100%);stroke-opacity:1;stroke-miterlimit:2.613;" d="M 51.788116 91.483805 L 51.788116 88.042809 L 51.550936 87.865865 L 51.550936 86.619728 L 51.193283 86.141602 L 51.193283 87.38774 L 50.779159 87.033852 L 50.779159 90.651791 " transform="matrix(1.037581,0,0,1.037581,0,0)"/>
<path style="fill:none;stroke-width:0.206;stroke-linecap:butt;stroke-linejoin:round;stroke:rgb(100%,100%,100%);stroke-opacity:1;stroke-miterlimit:2.613;" d="M 51.788116 91.126152 L 51.788116 91.306861 " transform="matrix(1.037581,0,0,1.037581,0,0)"/>
<path style="fill:none;stroke-width:0.206;stroke-linecap:butt;stroke-linejoin:round;stroke:rgb(100%,100%,100%);stroke-opacity:1;stroke-miterlimit:2.613;" d="M 51.788116 91.306861 L 51.788116 93.795371 " transform="matrix(1.037581,0,0,1.037581,0,0)"/>
<path style="fill:none;stroke-width:0.412;stroke-linecap:butt;stroke-linejoin:round;stroke:rgb(100%,100%,100%);stroke-opacity:1;stroke-miterlimit:2.613;" d="M 44.492 82.109538 L 44.492 83.649327 M 44.492 83.649327 L 34.880554 90.414611 L 50.127854 90.414611 Z M 44.492 83.649327 " transform="matrix(1.037581,0,0,1.037581,0,0)"/>
<path style="fill:none;stroke-width:0.206;stroke-linecap:butt;stroke-linejoin:round;stroke:rgb(100%,100%,100%);stroke-opacity:1;stroke-miterlimit:2.613;" d="M 38.084369 93.855607 L 39.624158 93.855607 L 39.624158 91.720985 L 38.084369 91.720985 Z M 38.852381 91.720985 L 39.684394 91.720985 L 39.684394 92.786414 L 38.852381 92.786414 Z M 38.084369 92.786414 L 38.852381 92.786414 L 38.852381 93.855607 L 38.084369 93.855607 Z M 42.88821 93.855607 L 44.431764 93.855607 L 44.431764 91.720985 L 42.88821 91.720985 Z M 43.659987 91.720985 L 44.431764 91.720985 L 44.431764 92.786414 L 43.659987 92.786414 Z M 42.88821 92.786414 L 43.659987 92.786414 L 43.659987 93.855607 L 42.88821 93.855607 Z M 42.65103 99.491461 L 44.311291 99.491461 L 44.311291 96.585062 L 42.65103 96.585062 Z M 44.311291 96.585062 L 42.65103 96.585062 M 43.483043 99.491461 L 43.483043 96.585062 M 44.311291 97.594019 L 42.65103 97.594019 M 44.311291 98.54274 L 42.65103 98.54274 M 43.483043 101.629848 L 43.483043 100.323474 L 45.263777 101.155488 L 45.263777 101.9235 Z M 44.789417 101.806792 C 44.789417 101.690084 44.845888 101.569612 44.845888 101.452904 C 44.845888 101.095251 44.608708 100.858071 44.311291 100.858071 C 44.01764 100.858071 43.780459 101.095251 43.780459 101.452904 L 43.780459 101.629848 M 44.134347 107.679826 L 44.134347 104.299067 C 44.134347 103.410582 44.608708 103.052929 45.143305 103.052929 C 45.794609 103.052929 46.212498 103.467054 46.212498 104.182359 M 43.780459 107.679826 C 43.780459 107.679826 43.720223 104.8939 43.720223 104.299067 C 43.720223 103.113166 44.608708 103.052929 45.143305 103.052929 M 41.404892 107.740063 L 46.212498 107.740063 M 45.026597 104.8939 L 45.497193 104.8939 L 45.497193 104.479776 L 45.026597 104.479776 Z M 45.497193 104.65672 L 45.026597 104.65672 M 45.263777 104.8939 L 45.263777 104.479776 " transform="matrix(1.037581,0,0,1.037581,0,0)"/>
<path style="fill:none;stroke-width:0.206;stroke-linecap:butt;stroke-linejoin:round;stroke:rgb(0%,0%,0%);stroke-opacity:1;stroke-miterlimit:2.613;" d="M 47.989467 106.851578 L 47.040746 106.851578 " transform="matrix(1.037581,0,0,1.037581,0,0)"/>
<path style="fill:none;stroke-width:0.206;stroke-linecap:round;stroke-linejoin:round;stroke:rgb(100%,100%,100%);stroke-opacity:1;stroke-miterlimit:2.613;" d="M 41.227948 108.395132 C 41.344656 108.395132 41.465129 108.274659 41.465129 108.154187 L 41.465129 102.461861 C 41.457599 102.333859 41.35595 102.232211 41.227948 102.224681 L 39.861338 102.224681 C 39.737101 102.232211 39.635453 102.333859 39.624158 102.461861 L 39.624158 108.154187 C 39.624158 108.274659 39.744631 108.395132 39.861338 108.395132 Z M 41.227948 108.395132 " transform="matrix(1.037581,0,0,1.037581,0,0)"/>
<path style="fill:none;stroke-width:0.412;stroke-linecap:round;stroke-linejoin:round;stroke:rgb(100%,100%,100%);stroke-opacity:1;stroke-miterlimit:2.613;" d="M 41.465129 108.154187 L 41.465129 102.461861 C 41.453834 102.333859 41.35595 102.232211 41.227948 102.224681 L 40.516408 102.043972 L 39.861338 102.224681 " transform="matrix(1.037581,0,0,1.037581,0,0)"/>
<path style="fill:none;stroke-width:0.206;stroke-linecap:butt;stroke-linejoin:round;stroke:rgb(100%,100%,100%);stroke-opacity:1;stroke-miterlimit:2.613;" d="M 41.465129 103.704234 L 40.335699 103.704234 M 41.465129 105.308024 L 40.572879 105.308024 M 41.465129 106.851578 L 40.456171 106.851578 " transform="matrix(1.037581,0,0,1.037581,0,0)"/>
<path style=" stroke:none;fill-rule:evenodd;fill:rgb(100%,100%,100%);fill-opacity:1;" d="M 41.421875 104.277344 C 41.421875 104.277344 42.039062 104.09375 42.589844 104.277344 L 42.160156 105.078125 L 42.222656 105.941406 L 41.851562 106.003906 L 41.851562 105.078125 Z M 42.777344 106.1875 L 41.359375 106.1875 Z M 42.777344 106.1875 "/>
<path style="fill:none;stroke-width:0.206;stroke-linecap:round;stroke-linejoin:round;stroke:rgb(100%,100%,100%);stroke-opacity:1;stroke-miterlimit:2.613;" d="M 41.227948 102.341389 L 39.861338 102.341389 M 47.812523 108.395132 C 47.932996 108.395132 47.989467 108.274659 47.989467 108.154187 L 47.989467 102.461861 C 47.989467 102.341389 47.932996 102.224681 47.812523 102.224681 L 46.389442 102.224681 C 46.272734 102.224681 46.212498 102.341389 46.212498 102.461861 L 46.212498 108.154187 C 46.212498 108.274659 46.272734 108.395132 46.389442 108.395132 Z M 47.812523 108.395132 " transform="matrix(1.037581,0,0,1.037581,0,0)"/>
<path style="fill:none;stroke-width:0.412;stroke-linecap:round;stroke-linejoin:round;stroke:rgb(100%,100%,100%);stroke-opacity:1;stroke-miterlimit:2.613;" d="M 47.989467 108.154187 L 47.989467 102.461861 C 47.989467 102.341389 47.932996 102.224681 47.812523 102.224681 L 47.040746 102.043972 L 46.389442 102.224681 " transform="matrix(1.037581,0,0,1.037581,0,0)"/>
<path style="fill:none;stroke-width:0.206;stroke-linecap:butt;stroke-linejoin:round;stroke:rgb(100%,100%,100%);stroke-opacity:1;stroke-miterlimit:2.613;" d="M 47.989467 103.704234 L 46.863803 103.704234 M 47.989467 105.308024 L 47.100983 105.308024 M 47.989467 106.851578 L 47.040746 106.851578 " transform="matrix(1.037581,0,0,1.037581,0,0)"/>
<path style="fill-rule:evenodd;fill:rgb(100%,100%,100%);fill-opacity:1;stroke-width:0.412;stroke-linecap:round;stroke-linejoin:round;stroke:rgb(100%,100%,100%);stroke-opacity:1;stroke-miterlimit:2.613;" d="M 46.50615 100.500418 C 46.50615 100.500418 47.040746 100.323474 47.575343 100.500418 L 47.221455 101.272195 L 47.221455 102.104209 L 46.863803 102.164445 L 46.863803 101.272195 Z M 46.50615 100.500418 " transform="matrix(1.037581,0,0,1.037581,0,0)"/>
<path style="fill:none;stroke-width:0.206;stroke-linecap:round;stroke-linejoin:round;stroke:rgb(100%,100%,100%);stroke-opacity:1;stroke-miterlimit:2.613;" d="M 47.812523 102.341389 L 46.389442 102.341389 " transform="matrix(1.037581,0,0,1.037581,0,0)"/>
<path style="fill:none;stroke-width:0.206;stroke-linecap:round;stroke-linejoin:miter;stroke:rgb(100%,100%,100%);stroke-opacity:1;stroke-miterlimit:2.613;" d="M 36.954939 99.254281 L 37.549772 99.374753 L 37.549772 100.737599 L 36.954939 101.035015 Z M 37.549772 100.086294 L 36.954939 100.086294 M 37.252356 99.374753 L 37.252356 100.797835 " transform="matrix(1.037581,0,0,1.037581,0,0)"/>
<path style="fill:none;stroke-width:0.412;stroke-linecap:round;stroke-linejoin:round;stroke:rgb(100%,100%,100%);stroke-opacity:1;stroke-miterlimit:2.613;" d="M 35.885746 90.474848 L 35.885746 96.347882 L 33.690888 98.840157 L 32.147334 98.840157 L 32.147334 97.714492 L 30.844725 97.714492 L 30.844725 96.705535 L 29.892239 96.705535 L 29.892239 97.714492 L 29.421643 97.714492 L 29.421643 99.254281 L 26.217828 103.52729 L 26.51148 103.52729 M 30.844725 96.705535 L 31.138376 96.822242 L 31.138376 97.714492 " transform="matrix(1.037581,0,0,1.037581,0,0)"/>
<path style="fill:none;stroke-width:0.206;stroke-linecap:round;stroke-linejoin:round;stroke:rgb(100%,100%,100%);stroke-opacity:1;stroke-miterlimit:2.613;" d="M 31.319085 97.770963 L 31.319085 99.314517 L 34.225484 103.229873 L 37.549772 103.229873 L 33.690888 98.840157 M 37.606244 103.941414 L 33.871596 103.941414 L 33.871596 102.755513 L 34.225484 103.233638 L 37.606244 103.233638 Z M 33.871596 102.755513 L 33.871596 108.451603 M 29.538351 105.661912 L 30.961433 105.661912 L 30.961433 103.52729 L 29.538351 103.52729 Z M 30.310128 103.52729 L 30.310128 105.661912 M 30.961433 104.596483 L 29.538351 104.596483 " transform="matrix(1.037581,0,0,1.037581,0,0)"/>
<path style="fill:none;stroke-width:0.412;stroke-linecap:round;stroke-linejoin:round;stroke:rgb(100%,100%,100%);stroke-opacity:1;stroke-miterlimit:2.613;" d="M 26.571716 103.229873 L 26.571716 108.451603 " transform="matrix(1.037581,0,0,1.037581,0,0)"/>
<path style=" stroke:none;fill-rule:evenodd;fill:rgb(100%,100%,100%);fill-opacity:1;" d="M 27.203125 110.988281 C 26.894531 110.925781 26.585938 111.296875 26.585938 111.480469 C 26.648438 111.667969 26.03125 111.417969 25.910156 111.667969 C 25.722656 111.914062 25.601562 112.34375 25.601562 112.34375 C 25.601562 112.28125 25.417969 111.789062 25.539062 111.605469 C 25.722656 111.417969 26.03125 111.296875 26.214844 111.296875 C 26.402344 111.296875 26.402344 111.175781 26.523438 110.988281 C 26.648438 110.804688 26.957031 110.621094 27.078125 110.742188 C 27.203125 110.867188 27.203125 110.988281 27.203125 110.988281 Z M 27.203125 111.914062 C 26.832031 111.914062 26.585938 111.914062 26.585938 112.28125 C 26.585938 112.28125 26.277344 111.972656 26.585938 111.789062 C 26.894531 111.601562 27.203125 111.914062 27.203125 111.914062 Z M 27.203125 111.914062 "/>
<path style="fill:none;stroke-width:0.206;stroke-linecap:round;stroke-linejoin:round;stroke:rgb(100%,100%,100%);stroke-opacity:1;stroke-miterlimit:2.613;" d="M 34.522901 104.65672 L 34.522901 108.451603 M 35.117734 104.65672 L 35.117734 108.451603 M 35.769038 104.65672 L 35.769038 108.451603 M 36.420343 104.65672 L 36.420343 108.451603 M 37.075412 104.65672 L 37.075412 108.451603 M 37.726716 104.65672 L 37.726716 108.451603 M 38.378021 104.65672 L 38.378021 108.451603 M 39.03309 104.65672 L 39.03309 108.451603 M 48.644537 104.65672 L 48.644537 108.451603 M 49.235605 104.65672 L 49.235605 108.451603 M 49.890674 104.65672 L 49.890674 108.451603 M 50.541979 104.65672 L 50.541979 108.451603 M 51.193283 104.65672 L 51.193283 108.451603 M 51.848352 104.65672 L 51.848352 108.451603 M 52.499657 104.65672 L 52.499657 108.451603 M 53.154726 104.65672 L 53.154726 108.451603 M 53.154726 104.65672 L 53.154726 108.451603 M 53.80603 104.65672 L 53.80603 108.451603 M 54.457335 104.65672 L 54.457335 108.451603 M 55.112404 104.65672 L 55.112404 108.451603 M 55.763708 104.65672 L 55.763708 108.451603 " transform="matrix(1.037581,0,0,1.037581,0,0)"/>
<path style=" stroke:none;fill-rule:evenodd;fill:rgb(100%,100%,100%);fill-opacity:1;" d="M 79.714844 108.035156 C 80.304688 107.972656 80.863281 107.738281 81.316406 107.355469 C 81.683594 106.925781 81.929688 106.371094 81.929688 105.820312 C 81.929688 105.078125 81.621094 104.527344 81.066406 104.15625 C 80.453125 103.785156 79.777344 103.601562 78.605469 103.601562 L 75.402344 103.601562 L 75.402344 104.03125 C 76.265625 104.03125 76.328125 104.15625 76.328125 104.957031 L 76.390625 110.804688 C 76.390625 111.605469 76.265625 111.730469 75.40625 111.730469 L 75.40625 112.097656 L 78.484375 112.097656 L 78.484375 111.730469 C 77.621094 111.730469 77.558594 111.605469 77.558594 110.804688 L 77.558594 108.21875 L 78.605469 108.21875 L 80.882812 112.097656 L 82.667969 112.097656 L 82.667969 111.667969 C 82.175781 111.667969 81.929688 111.605469 81.5 110.867188 Z M 77.558594 104.832031 C 77.558594 104.214844 77.558594 104.15625 77.867188 104.15625 L 78.605469 104.15625 C 79.40625 104.15625 79.835938 104.277344 80.144531 104.585938 C 80.515625 104.894531 80.699219 105.324219 80.699219 105.820312 C 80.699219 106.433594 80.515625 106.863281 80.144531 107.234375 C 79.777344 107.542969 79.160156 107.726562 78.421875 107.726562 L 77.558594 107.726562 Z M 87.347656 108.710938 C 87.347656 108.21875 87.289062 107.785156 86.980469 107.542969 C 86.671875 107.171875 86.242188 107.046875 85.378906 107.046875 C 84.703125 107.046875 84.269531 107.171875 83.964844 107.355469 C 83.59375 107.542969 83.347656 107.847656 83.347656 108.15625 C 83.347656 108.402344 83.472656 108.585938 83.78125 108.585938 C 84.027344 108.585938 84.148438 108.464844 84.273438 108.21875 C 84.332031 108.03125 84.457031 107.847656 84.578125 107.726562 C 84.765625 107.539062 84.949219 107.480469 85.316406 107.480469 C 85.6875 107.480469 85.871094 107.542969 86.058594 107.785156 C 86.179688 107.972656 86.242188 108.21875 86.242188 108.527344 L 86.242188 108.957031 L 85.503906 109.140625 C 84.894531 109.242188 84.3125 109.449219 83.78125 109.757812 C 83.285156 110.066406 83.101562 110.433594 83.101562 110.925781 C 83.101562 111.359375 83.285156 111.726562 83.535156 111.914062 C 83.839844 112.160156 84.273438 112.21875 84.578125 112.21875 C 85.378906 112.21875 85.871094 111.972656 86.242188 111.605469 L 86.304688 111.605469 C 86.425781 112.035156 86.671875 112.160156 87.226562 112.160156 C 87.597656 112.160156 87.84375 112.160156 88.089844 112.035156 L 88.027344 111.726562 C 87.902344 111.726562 87.78125 111.789062 87.71875 111.789062 C 87.472656 111.789062 87.351562 111.542969 87.351562 111.050781 L 87.351562 108.710938 Z M 86.242188 111.171875 C 85.996094 111.417969 85.625 111.664062 85.132812 111.664062 C 84.824219 111.664062 84.640625 111.605469 84.453125 111.417969 C 84.332031 111.296875 84.269531 111.050781 84.269531 110.804688 C 84.269531 110.3125 84.515625 110.066406 84.945312 109.820312 C 85.359375 109.609375 85.792969 109.441406 86.238281 109.328125 L 86.238281 111.171875 Z M 93.875 108.710938 C 93.875 108.09375 93.75 107.664062 93.441406 107.417969 C 93.136719 107.171875 92.765625 107.050781 92.210938 107.050781 C 91.535156 107.050781 90.855469 107.417969 90.363281 107.972656 L 90.300781 107.972656 L 90.300781 107.113281 L 90.117188 107.050781 C 89.683594 107.296875 89.132812 107.417969 88.578125 107.542969 L 88.578125 107.851562 C 89.195312 107.851562 89.253906 107.910156 89.253906 108.589844 L 89.253906 110.988281 C 89.253906 111.664062 89.195312 111.726562 88.578125 111.726562 L 88.578125 112.097656 L 90.917969 112.097656 L 90.917969 111.726562 C 90.363281 111.726562 90.363281 111.664062 90.363281 110.988281 L 90.363281 108.464844 C 90.855469 107.910156 91.347656 107.542969 91.839844 107.542969 C 92.148438 107.542969 92.394531 107.601562 92.519531 107.785156 C 92.765625 107.972656 92.824219 108.339844 92.824219 108.710938 L 92.824219 110.988281 C 92.824219 111.664062 92.765625 111.726562 92.210938 111.726562 L 92.210938 112.097656 L 94.488281 112.097656 L 94.488281 111.726562 C 93.996094 111.726562 93.933594 111.664062 93.933594 110.988281 Z M 98.921875 107.601562 C 98.613281 107.355469 98.183594 107.050781 97.566406 107.050781 C 96.707031 107.050781 96.152344 107.355469 95.722656 107.789062 C 95.328125 108.300781 95.109375 108.925781 95.105469 109.574219 C 95.105469 110.433594 95.351562 111.113281 95.722656 111.542969 C 96.160156 111.988281 96.761719 112.230469 97.382812 112.21875 C 98.121094 112.21875 98.675781 111.914062 98.921875 111.605469 L 98.984375 111.605469 L 98.984375 112.160156 L 99.105469 112.21875 C 99.355469 112.160156 99.597656 112.097656 99.90625 112.097656 L 100.644531 112.097656 L 100.644531 111.789062 C 100.09375 111.789062 100.03125 111.726562 100.03125 111.113281 L 100.03125 104.585938 L 99.90625 104.523438 C 99.414062 104.769531 98.859375 104.894531 98.246094 104.957031 L 98.246094 105.324219 C 98.859375 105.324219 98.921875 105.386719 98.921875 106 Z M 98.921875 111.113281 C 98.613281 111.417969 98.183594 111.789062 97.691406 111.789062 C 97.199219 111.789062 96.890625 111.542969 96.644531 111.171875 C 96.398438 110.804688 96.273438 110.3125 96.273438 109.632812 C 96.273438 108.832031 96.457031 108.339844 96.644531 108.035156 C 96.953125 107.664062 97.382812 107.480469 97.75 107.480469 C 98.246094 107.480469 98.675781 107.789062 98.921875 108.15625 Z M 103.910156 112.21875 C 104.707031 112.21875 105.324219 112.035156 105.816406 111.605469 C 106.25 111.234375 106.492188 110.558594 106.492188 109.632812 C 106.492188 108.773438 106.25 108.097656 105.753906 107.664062 C 105.324219 107.234375 104.707031 107.050781 103.910156 107.050781 C 103.109375 107.050781 102.492188 107.234375 102.0625 107.664062 C 101.570312 108.097656 101.324219 108.773438 101.324219 109.632812 C 101.324219 110.558594 101.570312 111.234375 102.0625 111.664062 C 102.554688 112.035156 103.171875 112.21875 103.910156 112.21875 Z M 103.910156 107.417969 C 104.339844 107.417969 104.648438 107.601562 104.894531 107.910156 C 105.203125 108.28125 105.324219 108.773438 105.324219 109.632812 C 105.324219 110.496094 105.140625 111.050781 104.894531 111.359375 C 104.648438 111.664062 104.339844 111.851562 103.910156 111.851562 C 103.476562 111.851562 103.167969 111.664062 102.921875 111.359375 C 102.679688 111.050781 102.492188 110.496094 102.492188 109.632812 C 102.492188 108.773438 102.617188 108.28125 102.921875 107.910156 C 103.171875 107.601562 103.476562 107.417969 103.910156 107.417969 Z M 115.605469 108.835938 C 115.605469 108.15625 115.484375 107.789062 115.175781 107.480469 C 114.929688 107.171875 114.5 107.050781 114.066406 107.050781 C 113.265625 107.050781 112.714844 107.480469 112.28125 107.972656 L 112.21875 107.972656 C 112.15625 107.726562 111.972656 107.542969 111.789062 107.355469 C 111.542969 107.171875 111.234375 107.113281 110.742188 107.113281 C 110.066406 107.113281 109.511719 107.480469 109.078125 107.910156 L 109.019531 107.910156 L 109.019531 107.171875 L 108.832031 107.113281 C 108.402344 107.355469 107.847656 107.480469 107.292969 107.542969 L 107.292969 107.851562 C 107.910156 107.851562 107.972656 107.972656 107.972656 108.589844 L 107.972656 111.050781 C 107.972656 111.726562 107.910156 111.789062 107.230469 111.789062 L 107.230469 112.160156 L 109.632812 112.160156 L 109.632812 111.789062 C 109.078125 111.789062 109.078125 111.726562 109.078125 111.050781 L 109.078125 108.464844 C 109.507812 107.910156 109.941406 107.605469 110.371094 107.605469 C 110.679688 107.605469 110.863281 107.726562 111.050781 107.910156 C 111.171875 108.15625 111.234375 108.464844 111.234375 108.894531 L 111.234375 111.113281 C 111.234375 111.730469 111.171875 111.789062 110.679688 111.789062 L 110.679688 112.160156 L 112.894531 112.160156 L 112.894531 111.789062 C 112.402344 111.789062 112.339844 111.726562 112.339844 111.113281 L 112.339844 108.464844 C 112.710938 107.972656 113.140625 107.605469 113.632812 107.605469 C 113.941406 107.605469 114.1875 107.726562 114.308594 107.972656 C 114.433594 108.21875 114.496094 108.527344 114.496094 108.894531 L 114.496094 111.175781 C 114.496094 111.726562 114.433594 111.851562 113.941406 111.851562 L 113.941406 112.160156 L 116.160156 112.160156 L 116.160156 111.851562 C 115.667969 111.851562 115.605469 111.726562 115.605469 111.113281 Z M 127.609375 104.957031 C 127.609375 104.15625 127.671875 104.03125 128.535156 104.03125 L 128.535156 103.601562 L 125.578125 103.601562 L 125.578125 104.03125 C 126.378906 104.03125 126.441406 104.15625 126.441406 104.957031 L 126.441406 107.417969 L 122.5 107.417969 L 122.5 104.957031 C 122.5 104.15625 122.5625 104.03125 123.300781 104.03125 L 123.300781 103.601562 L 120.347656 103.601562 L 120.347656 104.03125 C 121.207031 104.03125 121.269531 104.15625 121.269531 104.957031 L 121.269531 110.804688 C 121.269531 111.605469 121.207031 111.664062 120.347656 111.664062 L 120.347656 112.097656 L 123.300781 112.097656 L 123.300781 111.664062 C 122.5625 111.664062 122.5 111.605469 122.5 110.804688 L 122.5 107.972656 L 126.441406 107.972656 L 126.441406 110.804688 C 126.441406 111.605469 126.378906 111.664062 125.578125 111.664062 L 125.578125 112.097656 L 128.535156 112.097656 L 128.535156 111.664062 C 127.671875 111.664062 127.609375 111.605469 127.609375 110.804688 Z M 131.921875 112.21875 C 132.722656 112.21875 133.335938 112.035156 133.832031 111.605469 C 134.261719 111.234375 134.507812 110.558594 134.507812 109.632812 C 134.507812 108.773438 134.261719 108.097656 133.765625 107.664062 C 133.335938 107.234375 132.722656 107.050781 131.921875 107.050781 C 131.121094 107.050781 130.503906 107.234375 130.074219 107.664062 C 129.582031 108.097656 129.335938 108.773438 129.335938 109.632812 C 129.335938 110.558594 129.582031 111.234375 130.074219 111.664062 C 130.566406 112.035156 131.179688 112.21875 131.921875 112.21875 Z M 131.921875 107.417969 C 132.351562 107.417969 132.660156 107.601562 132.90625 107.910156 C 133.152344 108.28125 133.335938 108.773438 133.335938 109.632812 C 133.335938 110.496094 133.152344 111.050781 132.90625 111.359375 C 132.660156 111.664062 132.351562 111.851562 131.921875 111.851562 C 131.488281 111.851562 131.179688 111.664062 130.9375 111.359375 C 130.691406 111.050781 130.503906 110.496094 130.503906 109.632812 C 130.503906 108.773438 130.628906 108.28125 130.9375 107.910156 C 131.179688 107.601562 131.488281 107.417969 131.921875 107.417969 Z M 141.09375 111.789062 C 140.539062 111.789062 140.476562 111.664062 140.476562 110.988281 L 140.476562 107.113281 L 140.292969 107.050781 C 139.863281 107.296875 139.246094 107.417969 138.753906 107.480469 L 138.753906 107.847656 C 139.308594 107.847656 139.371094 107.910156 139.371094 108.527344 L 139.371094 110.925781 C 138.9375 111.417969 138.445312 111.664062 137.953125 111.664062 C 137.644531 111.664062 137.335938 111.542969 137.152344 111.355469 C 136.96875 111.113281 136.910156 110.742188 136.910156 110.1875 L 136.910156 107.109375 L 136.785156 107.046875 C 136.28125 107.292969 135.742188 107.460938 135.183594 107.539062 L 135.183594 107.847656 C 135.738281 107.847656 135.800781 107.910156 135.800781 108.523438 L 135.800781 110.308594 C 135.800781 111.050781 135.984375 111.542969 136.292969 111.847656 C 136.601562 112.09375 137.03125 112.21875 137.523438 112.21875 C 138.324219 112.21875 138.941406 111.847656 139.371094 111.417969 L 139.433594 112.15625 L 139.558594 112.21875 C 139.800781 112.15625 140.050781 112.097656 140.355469 112.097656 L 141.15625 112.097656 Z M 145.09375 108.40625 C 144.972656 107.910156 144.972656 107.542969 144.910156 107.234375 C 144.601562 107.171875 144.171875 107.050781 143.617188 107.050781 C 143 107.050781 142.570312 107.171875 142.265625 107.417969 C 141.957031 107.664062 141.769531 107.972656 141.769531 108.28125 C 141.769531 108.648438 141.890625 108.894531 142.078125 109.140625 C 142.324219 109.386719 142.691406 109.574219 143.0625 109.882812 C 143.554688 110.1875 143.863281 110.3125 144.046875 110.496094 C 144.171875 110.628906 144.238281 110.808594 144.234375 110.988281 C 144.234375 111.234375 144.109375 111.417969 143.984375 111.605469 C 143.769531 111.757812 143.511719 111.84375 143.25 111.851562 C 142.632812 111.851562 142.265625 111.542969 142.015625 110.679688 L 141.648438 110.742188 C 141.707031 111.175781 141.769531 111.542969 141.832031 111.976562 C 142.265625 112.160156 142.691406 112.21875 143.371094 112.21875 C 144.046875 112.21875 144.539062 112.097656 144.847656 111.789062 C 145.21875 111.542969 145.339844 111.175781 145.339844 110.804688 C 145.339844 110.4375 145.21875 110.128906 145.035156 109.882812 C 144.789062 109.648438 144.523438 109.441406 144.234375 109.265625 C 143.988281 109.082031 143.554688 108.894531 143.25 108.710938 C 143.003906 108.527344 142.878906 108.34375 142.878906 108.097656 C 142.878906 107.910156 142.941406 107.789062 143.125 107.664062 C 143.25 107.542969 143.496094 107.480469 143.742188 107.480469 C 144.296875 107.480469 144.605469 107.726562 144.726562 108.464844 Z M 150.757812 109.574219 C 150.757812 108.832031 150.511719 108.15625 150.144531 107.726562 C 149.710938 107.234375 149.160156 107.050781 148.480469 107.050781 C 147.804688 107.050781 147.1875 107.234375 146.820312 107.601562 C 146.324219 108.097656 146.078125 108.773438 146.078125 109.511719 C 146.078125 110.433594 146.261719 111.050781 146.695312 111.480469 C 147.125 111.972656 147.804688 112.21875 148.601562 112.21875 C 149.15625 112.21875 149.648438 112.035156 150.019531 111.789062 C 150.328125 111.605469 150.574219 111.296875 150.757812 110.988281 L 150.386719 110.804688 C 150.265625 111.113281 150.019531 111.296875 149.835938 111.417969 C 149.527344 111.664062 149.160156 111.726562 148.789062 111.726562 C 148.296875 111.726562 147.863281 111.480469 147.617188 111.113281 C 147.308594 110.679688 147.25 110.1875 147.25 109.574219 Z M 147.25 109.140625 C 147.25 108.589844 147.371094 108.09375 147.617188 107.847656 C 147.863281 107.542969 148.171875 107.417969 148.417969 107.417969 C 148.761719 107.402344 149.085938 107.566406 149.28125 107.847656 C 149.527344 108.15625 149.589844 108.648438 149.589844 109.140625 Z M 152.113281 113.574219 C 152.667969 113.207031 153.222656 112.652344 153.222656 111.726562 C 153.222656 111.296875 152.976562 110.929688 152.546875 110.929688 C 152.171875 110.929688 151.871094 111.234375 151.867188 111.605469 C 151.867188 111.972656 152.113281 112.21875 152.363281 112.21875 C 152.421875 112.21875 152.484375 112.160156 152.546875 112.160156 C 152.609375 112.160156 152.609375 112.097656 152.667969 112.035156 C 152.605469 112.527344 152.363281 112.960938 151.929688 113.265625 Z M 158.945312 110.804688 C 158.945312 111.605469 158.886719 111.664062 157.835938 111.664062 L 157.835938 112.097656 L 161.285156 112.097656 L 161.285156 111.664062 C 160.238281 111.664062 160.179688 111.605469 160.179688 110.804688 L 160.179688 104.957031 C 160.179688 104.09375 160.238281 104.03125 161.285156 104.03125 L 161.285156 103.601562 L 157.835938 103.601562 L 157.835938 104.03125 C 158.886719 104.03125 158.945312 104.09375 158.945312 104.957031 Z M 167.378906 108.710938 C 167.378906 108.09375 167.195312 107.664062 166.886719 107.417969 C 166.644531 107.171875 166.210938 107.050781 165.65625 107.050781 C 164.980469 107.050781 164.300781 107.417969 163.808594 107.972656 L 163.746094 107.113281 L 163.625 107.050781 C 163.132812 107.296875 162.578125 107.417969 162.023438 107.542969 L 162.023438 107.851562 C 162.640625 107.851562 162.699219 107.910156 162.699219 108.589844 L 162.699219 110.988281 C 162.699219 111.664062 162.640625 111.726562 162.023438 111.726562 L 162.023438 112.097656 L 164.363281 112.097656 L 164.363281 111.726562 C 163.808594 111.726562 163.808594 111.664062 163.808594 110.988281 L 163.808594 108.464844 C 164.300781 107.910156 164.855469 107.542969 165.285156 107.542969 C 165.59375 107.542969 165.839844 107.601562 165.964844 107.785156 C 166.210938 107.972656 166.269531 108.339844 166.269531 108.710938 L 166.269531 110.988281 C 166.269531 111.664062 166.210938 111.726562 165.71875 111.726562 L 165.71875 112.097656 L 167.933594 112.097656 L 167.933594 111.726562 C 167.441406 111.726562 167.378906 111.664062 167.378906 110.988281 Z M 172.796875 110.925781 L 172.183594 111.542969 C 171.875 111.664062 171.628906 111.726562 171.320312 111.726562 C 170.828125 111.726562 170.398438 111.542969 170.152344 111.113281 C 169.90625 110.804688 169.78125 110.25 169.78125 109.574219 C 169.78125 108.835938 169.90625 108.339844 170.152344 108.035156 C 170.363281 107.65625 170.765625 107.421875 171.199219 107.417969 C 171.628906 107.417969 171.8125 107.664062 171.996094 107.972656 C 172.0625 108.15625 172.183594 108.28125 172.304688 108.464844 C 172.371094 108.527344 172.492188 108.527344 172.613281 108.527344 C 172.859375 108.527344 172.984375 108.34375 172.984375 108.097656 C 172.984375 107.851562 172.796875 107.605469 172.554688 107.480469 C 172.246094 107.171875 171.753906 107.050781 171.136719 107.050781 C 170.398438 107.050781 169.71875 107.296875 169.289062 107.789062 C 168.859375 108.21875 168.613281 108.773438 168.613281 109.574219 C 168.613281 110.4375 168.800781 111.113281 169.351562 111.605469 C 169.71875 111.976562 170.277344 112.222656 171.078125 112.222656 C 171.628906 112.222656 172 112.097656 172.308594 111.914062 C 172.675781 111.667969 172.921875 111.359375 173.105469 111.113281 Z M 174.769531 110.867188 C 174.394531 110.871094 174.09375 111.171875 174.089844 111.542969 C 174.089844 111.914062 174.398438 112.21875 174.769531 112.21875 C 175.140625 112.21875 175.441406 111.917969 175.445312 111.542969 C 175.441406 111.171875 175.140625 110.867188 174.769531 110.867188 Z M 84.699219 96.335938 L 81.746094 96.335938 L 81.683594 96.769531 L 82.855469 96.769531 L 81.992188 100.890625 L 82.546875 100.890625 L 83.40625 96.769531 L 84.578125 96.769531 Z M 88.273438 96.335938 L 87.71875 96.335938 L 87.347656 98.367188 L 85.441406 98.367188 L 85.871094 96.335938 L 85.316406 96.335938 L 84.332031 100.890625 L 84.886719 100.890625 L 85.378906 98.738281 L 87.226562 98.738281 L 86.792969 100.890625 L 87.347656 100.890625 Z M 89.378906 98.367188 L 89.6875 96.769531 L 91.535156 96.769531 L 91.597656 96.335938 L 89.257812 96.335938 L 88.273438 100.890625 L 90.671875 100.890625 L 90.796875 100.523438 L 88.949219 100.523438 L 89.316406 98.738281 L 90.671875 98.738281 L 90.796875 98.367188 Z M 95.535156 98.492188 C 96.214844 98.429688 96.582031 98.121094 96.707031 97.445312 C 96.890625 96.707031 96.460938 96.335938 95.226562 96.335938 L 94.058594 96.335938 L 93.074219 100.890625 L 94.367188 100.890625 C 95.351562 100.890625 96.273438 100.644531 96.460938 99.660156 C 96.644531 98.984375 96.273438 98.613281 95.476562 98.492188 Z M 94.488281 96.769531 L 95.167969 96.769531 C 95.96875 96.769531 96.273438 97.015625 96.152344 97.507812 C 96.027344 98 95.722656 98.367188 94.859375 98.367188 L 94.183594 98.367188 Z M 94.121094 98.738281 L 94.859375 98.738281 C 95.722656 98.738281 96.027344 99.046875 95.90625 99.660156 C 95.78125 100.339844 95.105469 100.523438 94.429688 100.523438 L 93.75 100.523438 Z M 98.0625 98.367188 L 98.367188 96.769531 L 100.214844 96.769531 L 100.277344 96.335938 L 97.9375 96.335938 L 96.953125 100.890625 L 99.414062 100.890625 L 99.476562 100.523438 L 97.628906 100.523438 L 98 98.738281 L 99.414062 98.738281 L 99.476562 98.367188 Z M 103.601562 97.136719 C 103.601562 96.644531 103.292969 96.273438 102.496094 96.273438 C 101.9375 96.273438 101.570312 96.398438 101.324219 96.644531 C 101.015625 96.828125 100.832031 97.074219 100.769531 97.382812 C 100.707031 97.75 100.832031 98.058594 100.953125 98.183594 C 101.140625 98.367188 101.324219 98.492188 101.753906 98.738281 C 102.1875 98.984375 102.371094 99.042969 102.496094 99.167969 C 102.617188 99.292969 102.679688 99.476562 102.679688 99.78125 C 102.601562 99.992188 102.476562 100.183594 102.3125 100.335938 C 102.125 100.460938 101.816406 100.644531 101.511719 100.644531 C 100.957031 100.644531 100.769531 100.335938 100.648438 100.03125 L 100.09375 100.089844 C 100.15625 100.644531 100.527344 101.015625 101.386719 101.015625 C 102.003906 101.015625 102.371094 100.769531 102.679688 100.585938 C 102.988281 100.339844 103.171875 100.03125 103.234375 99.722656 C 103.296875 99.355469 103.234375 99.046875 103.046875 98.859375 C 102.925781 98.738281 102.679688 98.613281 102.3125 98.367188 C 101.816406 98.183594 101.695312 98.058594 101.511719 97.9375 C 101.386719 97.8125 101.324219 97.566406 101.324219 97.320312 C 101.386719 97.136719 101.511719 97.011719 101.632812 96.890625 C 101.820312 96.765625 102.0625 96.644531 102.371094 96.644531 C 102.863281 96.644531 103.046875 96.953125 103.046875 97.199219 Z M 107.292969 96.335938 L 104.339844 96.335938 L 104.277344 96.769531 L 105.449219 96.769531 L 104.585938 100.890625 L 105.140625 100.890625 L 106 96.769531 L 107.171875 96.769531 Z M 108.773438 98.613281 C 108.402344 100.339844 109.019531 101.015625 109.941406 101.015625 C 110.929688 101.015625 111.789062 100.339844 112.160156 98.613281 C 112.527344 96.953125 111.914062 96.273438 110.929688 96.273438 C 110.003906 96.273438 109.140625 96.953125 108.773438 98.613281 Z M 110.867188 96.644531 C 111.480469 96.644531 111.914062 97.199219 111.605469 98.613281 C 111.296875 100.09375 110.621094 100.644531 110.066406 100.644531 C 109.453125 100.644531 109.019531 100.09375 109.328125 98.613281 C 109.636719 97.199219 110.3125 96.644531 110.867188 96.644531 Z M 112.957031 100.890625 L 113.390625 98.738281 L 114.621094 98.738281 L 114.742188 98.367188 L 113.453125 98.367188 L 113.820312 96.769531 L 115.421875 96.769531 L 115.484375 96.335938 L 113.328125 96.335938 L 112.40625 100.890625 Z M 112.957031 100.890625 "/>
</g>
</svg>
