<?xml version="1.0" encoding="UTF-8"?>
<svg xmlns="http://www.w3.org/2000/svg" xmlns:xlink="http://www.w3.org/1999/xlink" width="200pt" height="150pt" viewBox="0 0 200 150" version="1.1">
<g id="surface1">
<path style=" stroke:none;fill-rule:nonzero;fill:rgb(100%,72.156863%,72.156863%);fill-opacity:1;" d="M 165.671875 94.984375 C 166.023438 94.210938 166.035156 93.316406 165.699219 92.539062 C 165.363281 91.757812 164.714844 91.175781 163.929688 90.945312 L 163.320312 80.699219 L 159.261719 83.90625 L 160.464844 93.148438 C 160.175781 94.589844 160.960938 96.027344 162.292969 96.496094 C 163.621094 96.964844 165.074219 96.3125 165.671875 94.984375 Z M 165.671875 94.984375 "/>
<path style=" stroke:none;fill-rule:nonzero;fill:rgb(100%,72.156863%,72.156863%);fill-opacity:1;" d="M 183.367188 135.269531 L 186.589844 136.238281 L 191.691406 123.640625 L 186.933594 122.207031 Z M 183.367188 135.269531 "/>
<path style=" stroke:none;fill-rule:nonzero;fill:rgb(18.431373%,18.039216%,25.490196%);fill-opacity:1;" d="M 191.949219 141.257812 L 181.816406 138.207031 L 182.9375 134.09375 L 189.15625 135.964844 C 191.320312 136.617188 192.570312 138.984375 191.949219 141.257812 Z M 191.949219 141.257812 "/>
<path style=" stroke:none;fill-rule:nonzero;fill:rgb(100%,72.156863%,72.156863%);fill-opacity:1;" d="M 178.199219 146.84375 L 174.84375 146.84375 L 173.25 133.253906 L 178.199219 133.253906 Z M 178.199219 146.84375 "/>
<path style=" stroke:none;fill-rule:nonzero;fill:rgb(18.431373%,18.039216%,25.490196%);fill-opacity:1;" d="M 172.449219 145.835938 L 178.917969 145.835938 L 178.917969 150.117188 L 168.375 150.117188 C 168.375 147.753906 170.199219 145.835938 172.449219 145.835938 Z M 172.449219 145.835938 "/>
<path style=" stroke:none;fill-rule:nonzero;fill:rgb(18.431373%,18.039216%,25.490196%);fill-opacity:1;" d="M 168.921875 91.441406 C 168.921875 91.441406 167.007812 99.488281 170.289062 115.867188 L 172.753906 144.027344 L 179.046875 144.316406 L 178.226562 113.855469 L 180.414062 101.210938 L 185.886719 118.742188 L 183.972656 131.097656 L 188.621094 133.394531 L 193.820312 116.441406 C 193.820312 116.441406 193.273438 92.878906 191.085938 90.003906 Z M 168.921875 91.441406 "/>
<path style=" stroke:none;fill-rule:nonzero;fill:rgb(100%,72.156863%,72.156863%);fill-opacity:1;" d="M 183.589844 38.550781 C 183.589844 42.449219 180.582031 45.609375 176.867188 45.609375 C 173.15625 45.609375 170.148438 42.449219 170.148438 38.550781 C 170.148438 34.652344 173.15625 31.492188 176.867188 31.492188 C 180.582031 31.492188 183.589844 34.652344 183.589844 38.550781 Z M 183.589844 38.550781 "/>
<path style=" stroke:none;fill-rule:nonzero;fill:rgb(90.196078%,90.196078%,90.196078%);fill-opacity:1;" d="M 173.300781 49.269531 C 173.300781 49.269531 172.890625 50.21875 177.816406 49.632812 C 182.738281 49.046875 183.835938 47.332031 183.835938 47.332031 L 192.453125 87.039062 L 191.90625 90.554688 L 168.375 92.015625 L 168.375 87.039062 L 172.480469 60.6875 Z M 173.300781 49.269531 "/>
<path style=" stroke:none;fill-rule:nonzero;fill:rgb(18.431373%,18.039216%,25.490196%);fill-opacity:1;" d="M 175.316406 91.011719 L 167.855469 90.867188 L 167.832031 90.757812 C 166.867188 85.3125 166.960938 79.71875 168.105469 74.3125 C 169.613281 67.304688 166.1875 57.804688 164.648438 54.042969 C 164.273438 53.121094 164.601562 52.046875 165.421875 51.527344 L 170.703125 48.199219 C 171.429688 47.742188 172.324219 47.671875 173.109375 48.011719 C 173.894531 48.347656 174.480469 49.058594 174.691406 49.921875 L 175.613281 53.726562 C 179.863281 58.527344 179.566406 68.378906 178.566406 75.800781 C 177.851562 80.914062 176.773438 85.964844 175.347656 90.910156 Z M 175.316406 91.011719 "/>
<path style=" stroke:none;fill-rule:nonzero;fill:rgb(18.431373%,18.039216%,25.490196%);fill-opacity:1;" d="M 166.871094 50.78125 L 166.226562 51.246094 C 164.769531 52.285156 163.671875 53.796875 163.109375 55.550781 C 162.78125 56.574219 162.527344 57.621094 162.355469 58.683594 C 161.808594 62.132812 159.347656 76.789062 159.347656 76.789062 L 158.253906 91.15625 L 164.273438 89.71875 L 167.007812 73.050781 L 169.742188 62.707031 Z M 166.871094 50.78125 "/>
<path style=" stroke:none;fill-rule:nonzero;fill:rgb(18.431373%,18.039216%,25.490196%);fill-opacity:1;" d="M 188.277344 91.082031 L 188.21875 90.917969 C 187.828125 89.777344 178.699219 62.945312 183.011719 53.484375 L 182.585938 49.046875 C 182.496094 48.082031 182.871094 47.132812 183.589844 46.523438 C 184.308594 45.910156 185.269531 45.71875 186.148438 46.011719 L 192.75 48.210938 C 193.308594 48.394531 193.6875 48.941406 193.675781 49.554688 C 193.648438 52.105469 193.515625 58.605469 192.863281 63.875 C 192.054688 70.386719 194.75 86.65625 194.777344 86.820312 L 194.792969 86.917969 Z M 188.277344 91.082031 "/>
<path style=" stroke:none;fill-rule:nonzero;fill:rgb(100%,72.156863%,72.156863%);fill-opacity:1;" d="M 185.367188 83.949219 C 185.382812 83.09375 185.757812 82.289062 186.394531 81.753906 C 187.027344 81.214844 187.855469 81.003906 188.65625 81.167969 L 193.597656 72.308594 L 195.84375 77.09375 L 190.804688 84.777344 C 190.441406 86.199219 189.125 87.109375 187.738281 86.898438 C 186.347656 86.6875 185.332031 85.417969 185.367188 83.949219 Z M 185.367188 83.949219 "/>
<path style=" stroke:none;fill-rule:nonzero;fill:rgb(18.431373%,18.039216%,25.490196%);fill-opacity:1;" d="M 191.769531 48.195312 L 192.121094 48.28125 C 193.011719 48.496094 193.738281 49.167969 194.054688 50.066406 L 200.113281 67.304688 L 193 83.683594 L 190.398438 76.929688 L 193.683594 69.460938 L 187.800781 61.558594 Z M 191.769531 48.195312 "/>
<path style=" stroke:none;fill-rule:nonzero;fill:rgb(18.431373%,18.039216%,25.490196%);fill-opacity:1;" d="M 183.679688 39.527344 C 184.066406 38.480469 184.355469 37.398438 184.542969 36.292969 C 184.730469 35.183594 184.605469 34.039062 184.183594 33 C 183.734375 32.09375 183.101562 31.296875 182.332031 30.667969 C 181.804688 30.195312 181.25 29.757812 180.675781 29.355469 C 179.046875 28.222656 178.695312 29.253906 176.746094 29.023438 C 174.792969 28.792969 172.609375 28.203125 171.046875 29.425781 C 168.976562 31.074219 168.066406 33.875 168.746094 36.507812 C 169.179688 38.066406 168.832031 38.578125 170.179688 39.421875 C 170.179688 38.019531 170.6875 36.671875 171.597656 35.648438 C 172.53125 34.621094 173.792969 33.996094 175.140625 33.890625 C 176.175781 33.808594 177.207031 34.042969 178.222656 34.273438 C 179.210938 34.496094 180.222656 34.734375 181.054688 35.316406 C 182.441406 36.28125 183.089844 38.007812 183.660156 39.625 "/>
<path style=" stroke:none;fill-rule:nonzero;fill:rgb(90.196078%,90.196078%,90.196078%);fill-opacity:1;" d="M 0 66.953125 L 119.289062 66.953125 L 119.289062 67.527344 L 0 67.527344 Z M 0 66.953125 "/>
<path style=" stroke:none;fill-rule:nonzero;fill:rgb(90.196078%,90.196078%,90.196078%);fill-opacity:1;" d="M 0 44.539062 L 119.289062 44.539062 L 119.289062 45.113281 L 0 45.113281 Z M 0 44.539062 "/>
<path style=" stroke:none;fill-rule:nonzero;fill:rgb(90.196078%,90.196078%,90.196078%);fill-opacity:1;" d="M 0 22.125 L 119.289062 22.125 L 119.289062 22.699219 L 0 22.699219 Z M 0 22.125 "/>
<path style=" stroke:none;fill-rule:nonzero;fill:rgb(90.196078%,90.196078%,90.196078%);fill-opacity:1;" d="M 95.15625 0 L 95.703125 0 L 95.703125 89.65625 L 95.15625 89.65625 Z M 95.15625 0 "/>
<path style=" stroke:none;fill-rule:nonzero;fill:rgb(90.196078%,90.196078%,90.196078%);fill-opacity:1;" d="M 71.300781 0 L 71.847656 0 L 71.847656 89.65625 L 71.300781 89.65625 Z M 71.300781 0 "/>
<path style=" stroke:none;fill-rule:nonzero;fill:rgb(90.196078%,90.196078%,90.196078%);fill-opacity:1;" d="M 47.441406 0 L 47.988281 0 L 47.988281 89.65625 L 47.441406 89.65625 Z M 47.441406 0 "/>
<path style=" stroke:none;fill-rule:nonzero;fill:rgb(90.196078%,90.196078%,90.196078%);fill-opacity:1;" d="M 23.585938 0 L 24.132812 0 L 24.132812 89.65625 L 23.585938 89.65625 Z M 23.585938 0 "/>
<path style=" stroke:none;fill-rule:nonzero;fill:rgb(92.941176%,38.823529%,21.568627%);fill-opacity:1;" d="M 23.804688 22.414062 L 71.683594 22.414062 L 71.683594 44.828125 L 23.804688 44.828125 Z M 23.804688 22.414062 "/>
<path style=" stroke:none;fill-rule:nonzero;fill:rgb(92.941176%,38.823529%,21.568627%);fill-opacity:1;" d="M 23.804688 43.101562 L 23.804688 67.242188 L 48.699219 43.964844 Z M 23.804688 43.101562 "/>
<path style=" stroke:none;fill-rule:nonzero;fill:rgb(92.941176%,38.823529%,21.568627%);fill-opacity:1;" d="M 71.683594 43.964844 L 71.683594 44.828125 L 71.371094 45.117188 L 70.742188 45.703125 C 58.503906 46.09375 48.617188 55.300781 48.171875 66.714844 L 47.613281 67.238281 L 47.605469 67.242188 L 47.605469 43.101562 Z M 71.683594 43.964844 "/>
<path style=" stroke:none;fill-rule:nonzero;fill:rgb(90.196078%,90.196078%,90.196078%);fill-opacity:1;" d="M 71.546875 45.113281 C 71.488281 45.113281 71.429688 45.113281 71.371094 45.117188 C 58.351562 45.203125 47.773438 55.066406 47.613281 67.238281 C 47.605469 67.335938 47.605469 67.429688 47.605469 67.527344 C 47.605469 79.886719 58.34375 89.941406 71.546875 89.941406 C 84.746094 89.941406 95.484375 79.886719 95.484375 67.527344 C 95.484375 55.167969 84.746094 45.113281 71.546875 45.113281 Z M 71.546875 89.367188 C 58.648438 89.367188 48.152344 79.570312 48.152344 67.527344 C 48.152344 67.253906 48.160156 66.984375 48.171875 66.714844 C 48.617188 55.300781 58.503906 46.09375 70.742188 45.703125 C 71.007812 45.691406 71.273438 45.691406 71.546875 45.691406 C 84.441406 45.691406 94.9375 55.484375 94.9375 67.527344 C 94.9375 79.570312 84.441406 89.367188 71.546875 89.367188 Z M 71.546875 89.367188 "/>
<path style=" stroke:none;fill-rule:nonzero;fill:rgb(90.196078%,90.196078%,90.196078%);fill-opacity:1;" d="M 58.414062 67.246094 L 57.046875 67.238281 C 57.046875 67.109375 57.265625 54.457031 71.257812 53.578125 L 71.339844 55.011719 C 58.648438 55.808594 58.417969 66.78125 58.414062 67.246094 Z M 58.414062 67.246094 "/>
<path style=" stroke:none;fill-rule:nonzero;fill:rgb(90.196078%,90.196078%,90.196078%);fill-opacity:1;" d="M 85.355469 66.953125 C 85.25 63.644531 83.871094 60.523438 81.53125 58.300781 C 78.8125 55.695312 75.253906 54.265625 71.574219 54.292969 L 71.546875 54.292969 C 64.03125 54.292969 57.894531 59.945312 57.734375 66.953125 C 57.730469 67.050781 57.730469 67.148438 57.730469 67.242188 C 57.730469 70.90625 59.363281 74.222656 61.984375 76.578125 C 64.660156 78.9375 68.050781 80.21875 71.546875 80.191406 L 71.574219 80.191406 C 79.179688 80.175781 85.363281 74.375 85.363281 67.242188 C 85.363281 67.148438 85.363281 67.050781 85.355469 66.953125 Z M 85.355469 66.953125 "/>
<path style=" stroke:none;fill-rule:nonzero;fill:rgb(92.941176%,38.823529%,21.568627%);fill-opacity:1;" d="M 81.53125 58.300781 L 81.121094 58.683594 L 62.394531 76.195312 L 61.984375 76.578125 C 59.363281 74.222656 57.730469 70.90625 57.730469 67.242188 C 57.730469 67.148438 57.730469 67.050781 57.734375 66.953125 C 57.894531 59.945312 64.03125 54.292969 71.546875 54.292969 L 71.574219 54.292969 C 75.253906 54.265625 78.8125 55.695312 81.53125 58.300781 Z M 81.53125 58.300781 "/>
</g>
</svg>
