<?xml version="1.0" encoding="UTF-8"?>
<svg xmlns="http://www.w3.org/2000/svg" xmlns:xlink="http://www.w3.org/1999/xlink" width="200pt" height="200pt" viewBox="0 0 200 200" version="1.1">
<g id="surface1">
<rect x="0" y="0" width="200" height="200" style="fill:rgb(100%,100%,100%);fill-opacity:1;stroke:none;"/>
<path style=" stroke:none;fill-rule:evenodd;fill:rgb(4.705882%,5.490196%,5.882353%);fill-opacity:1;" d="M 18.140625 176.140625 L 22.226562 176.140625 L 20.320312 158.429688 Z M 104.769531 106.945312 C 104.769531 102.316406 103.949219 102.316406 100.683594 102.316406 L 100.683594 112.394531 C 104.769531 112.667969 104.769531 110.488281 104.769531 106.945312 Z M 90.875 139.90625 L 94.414062 139.90625 L 92.78125 123.835938 Z M 117.570312 176.140625 L 121.65625 176.140625 L 119.75 158.429688 Z M 104.769531 93.054688 C 104.769531 89.785156 104.496094 88.421875 100.683594 88.695312 L 100.683594 97.410156 C 102.859375 97.414062 104.769531 97.957031 104.769531 93.054688 Z M 114.300781 124.652344 L 114.300781 133.097656 C 117.84375 133.097656 118.386719 132.007812 118.386719 128.738281 C 118.386719 125.742188 117.84375 124.652344 114.300781 124.652344 Z M 114.300781 124.652344 "/>
<path style=" stroke:none;fill-rule:evenodd;fill:rgb(4.705882%,5.490196%,5.882353%);fill-opacity:1;" d="M 5.882812 194.117188 L 194.117188 194.117188 L 194.117188 5.882812 L 5.882812 5.882812 Z M 171.78125 48.105469 L 187.851562 48.105469 L 187.851562 53.011719 L 179.679688 53.011719 L 179.679688 60.367188 L 187.578125 60.367188 L 187.578125 65.539062 L 179.679688 65.539062 L 179.679688 76.164062 L 187.851562 76.164062 L 187.851562 81.339844 L 171.78125 81.339844 Z M 168.238281 84.066406 L 176.410156 84.066406 C 185.128906 84.066406 187.851562 85.425781 187.851562 95.234375 L 187.851562 107.21875 C 187.851562 113.484375 185.945312 117.027344 176.410156 117.027344 L 168.238281 117.027344 Z M 146.988281 48.105469 L 154.617188 48.105469 L 154.617188 60.363281 L 158.707031 60.363281 L 158.707031 48.105469 L 166.605469 48.105469 L 166.605469 81.339844 L 158.707031 81.339844 L 158.707031 65.539062 L 154.617188 65.539062 L 154.617188 81.339844 L 146.988281 81.339844 Z M 124.925781 48.105469 L 143.449219 48.105469 L 143.449219 53.011719 L 138 53.011719 L 138 81.339844 L 130.375 81.339844 L 130.375 53.007812 L 124.925781 53.007812 Z M 116.210938 93.054688 C 116.210938 85.425781 120.839844 83.246094 126.015625 83.246094 C 131.191406 83.246094 135.820312 85.425781 135.820312 93.054688 L 135.820312 108.035156 C 135.820312 115.664062 131.191406 117.84375 126.015625 117.84375 C 120.839844 117.84375 116.210938 115.664062 116.210938 108.035156 Z M 92.78125 84.066406 L 100.683594 84.066406 C 107.21875 84.066406 112.394531 84.066406 112.394531 91.964844 C 112.394531 95.777344 111.304688 99.046875 106.945312 99.320312 L 106.945312 99.863281 C 111.851562 99.863281 112.394531 103.40625 112.394531 107.765625 C 112.394531 116.753906 108.851562 117.027344 100.683594 117.027344 L 92.78125 117.027344 Z M 23.589844 187.578125 L 22.5 179.132812 L 17.871094 179.132812 L 16.78125 187.578125 L 13.511719 187.578125 L 17.597656 155.433594 L 23.042969 155.433594 L 27.128906 187.578125 Z M 39.660156 158.160156 C 39.390625 157.617188 38.570312 157.617188 38.300781 157.617188 C 37.484375 157.617188 36.9375 157.886719 36.667969 158.160156 C 36.121094 158.707031 36.121094 159.792969 36.121094 160.339844 L 36.121094 164.425781 C 36.121094 165.789062 37.484375 167.421875 39.664062 170.417969 C 41.84375 172.871094 44.019531 175.867188 44.019531 177.503906 L 44.019531 183.222656 C 44.019531 184.855469 43.476562 185.945312 42.660156 186.761719 C 41.570312 187.855469 39.664062 188.125 38.300781 188.125 C 37.210938 188.125 35.03125 188.125 33.671875 186.761719 C 32.851562 185.945312 32.308594 184.855469 32.308594 183.222656 L 32.308594 176.414062 L 36.125 176.414062 L 36.125 182.949219 C 36.125 184.039062 36.125 184.585938 36.667969 185.132812 C 37.210938 185.675781 37.757812 185.675781 38.300781 185.675781 C 38.574219 185.675781 39.390625 185.675781 39.664062 185.132812 C 40.207031 184.585938 40.480469 184.039062 40.480469 182.949219 L 40.480469 179.410156 C 40.480469 176.957031 38.574219 174.503906 36.394531 172.054688 C 34.488281 169.875 32.308594 167.421875 32.308594 164.699219 L 32.308594 160.070312 C 32.308594 158.433594 32.855469 157.34375 33.671875 156.527344 C 35.03125 155.164062 37.210938 155.164062 38.300781 155.164062 C 39.390625 155.164062 41.570312 155.164062 42.660156 156.527344 C 43.476562 157.34375 44.019531 158.433594 44.019531 160.070312 L 44.019531 166.332031 L 40.480469 166.332031 L 40.480469 160.339844 C 40.476562 159.246094 40.207031 158.707031 39.660156 158.160156 Z M 57.09375 158.160156 C 56.824219 157.617188 56.003906 157.617188 55.734375 157.617188 C 54.917969 157.617188 54.371094 157.886719 54.097656 158.160156 C 53.554688 158.707031 53.554688 159.792969 53.554688 160.339844 L 53.554688 164.425781 C 53.554688 165.789062 54.917969 167.421875 57.09375 170.417969 C 59.003906 172.871094 61.453125 175.867188 61.453125 177.503906 L 61.453125 183.222656 C 61.453125 184.855469 60.910156 185.945312 60.09375 186.761719 C 59.003906 187.855469 57.097656 188.125 55.460938 188.125 C 54.371094 188.125 52.464844 188.125 51.101562 186.761719 C 50.285156 185.945312 49.742188 184.855469 49.742188 183.222656 L 49.742188 176.414062 L 53.554688 176.414062 L 53.554688 182.949219 C 53.554688 184.039062 53.554688 184.585938 54.097656 185.132812 C 54.644531 185.675781 55.191406 185.675781 55.734375 185.675781 C 56.007812 185.675781 56.824219 185.675781 57.097656 185.132812 C 57.640625 184.585938 57.914062 184.039062 57.914062 182.949219 L 57.914062 179.410156 C 57.914062 176.957031 56.007812 174.503906 53.828125 172.054688 C 51.921875 169.875 49.742188 167.421875 49.742188 164.699219 L 49.742188 160.070312 C 49.742188 158.433594 50.285156 157.34375 51.101562 156.527344 C 52.464844 155.164062 54.371094 155.164062 55.460938 155.164062 C 56.824219 155.164062 58.730469 155.164062 60.09375 156.527344 C 60.910156 157.34375 61.453125 158.433594 61.453125 160.070312 L 61.453125 166.332031 L 57.914062 166.332031 L 57.914062 160.339844 C 57.914062 159.246094 57.640625 158.707031 57.09375 158.160156 Z M 79.160156 183.222656 C 79.160156 184.855469 78.886719 185.945312 78.070312 186.761719 C 76.707031 187.851562 74.800781 188.125 73.441406 188.125 C 72.351562 188.125 70.171875 188.125 68.808594 186.761719 C 67.992188 185.945312 67.71875 184.855469 67.71875 183.222656 L 67.71875 160.066406 C 67.71875 158.433594 67.992188 157.34375 68.808594 156.523438 C 70.171875 155.164062 72.351562 155.164062 73.441406 155.164062 C 74.53125 155.164062 76.707031 155.164062 78.070312 156.523438 C 78.886719 157.34375 79.160156 158.433594 79.160156 160.066406 Z M 79.433594 152.984375 L 72.351562 152.984375 L 72.351562 124.652344 L 67.71875 152.984375 L 60.910156 152.984375 L 56.550781 124.652344 L 56.550781 152.984375 L 50.285156 152.984375 L 50.285156 119.75 L 61.726562 119.75 L 64.996094 143.449219 L 68.261719 119.75 L 79.433594 119.75 Z M 93.328125 158.160156 C 92.78125 157.617188 92.238281 157.617188 91.964844 157.617188 C 91.144531 157.617188 90.601562 157.886719 90.328125 158.160156 C 89.785156 158.707031 89.511719 159.792969 89.511719 160.339844 L 89.511719 182.949219 C 89.511719 184.039062 89.785156 184.585938 90.328125 185.128906 C 90.601562 185.671875 91.417969 185.671875 91.964844 185.671875 C 92.238281 185.671875 92.78125 185.671875 93.328125 185.128906 C 93.871094 184.585938 93.871094 184.039062 93.871094 182.949219 L 93.871094 176.410156 L 97.683594 176.410156 L 97.683594 183.222656 C 97.683594 184.855469 97.140625 185.945312 96.324219 186.761719 C 95.234375 187.851562 93.054688 188.125 91.691406 188.125 C 90.601562 188.125 88.695312 188.125 87.332031 186.761719 C 86.515625 185.945312 85.972656 184.855469 85.972656 183.222656 L 85.972656 160.066406 C 85.972656 158.433594 86.515625 157.34375 87.332031 156.523438 C 88.695312 155.164062 90.601562 155.164062 91.691406 155.164062 C 93.054688 155.164062 94.960938 155.164062 96.324219 156.523438 C 97.140625 157.34375 97.683594 158.433594 97.683594 160.066406 L 97.683594 166.605469 L 93.871094 166.605469 L 93.871094 160.339844 C 93.871094 159.246094 93.871094 158.707031 93.328125 158.160156 Z M 95.777344 152.984375 L 94.960938 144.8125 L 90.328125 144.8125 L 89.242188 152.984375 L 82.429688 152.984375 L 88.152344 119.75 L 98.777344 119.75 L 103.132812 152.984375 Z M 103.949219 155.707031 L 107.492188 155.707031 L 107.492188 187.578125 L 103.949219 187.578125 Z M 122.746094 187.578125 L 121.929688 179.132812 L 117.296875 179.132812 L 116.210938 187.578125 L 112.941406 187.578125 L 117.027344 155.433594 L 122.472656 155.433594 L 126.5625 187.578125 Z M 119.476562 152.984375 C 118.660156 151.621094 118.386719 149.714844 118.386719 148.351562 L 118.386719 141.269531 C 118.386719 139.089844 117.027344 138 115.664062 138 L 114.300781 138 L 114.300781 152.984375 L 106.671875 152.984375 L 106.671875 119.75 L 114.300781 119.75 C 121.65625 119.75 126.289062 120.566406 126.289062 127.652344 C 126.289062 131.738281 124.378906 134.460938 120.296875 135.003906 L 120.296875 135.277344 C 124.109375 135.277344 126.289062 136.636719 126.289062 141.542969 L 126.289062 148.351562 C 126.289062 149.714844 126.289062 151.621094 127.378906 152.984375 Z M 141.269531 158.707031 L 136.910156 158.707031 L 136.910156 187.578125 L 133.371094 187.578125 L 133.371094 158.707031 L 129.011719 158.707031 L 129.011719 155.707031 L 141.269531 155.707031 Z M 145.355469 155.707031 L 149.171875 155.707031 L 149.171875 187.578125 L 145.355469 187.578125 Z M 143.996094 152.984375 L 139.363281 136.09375 L 139.089844 136.09375 L 139.089844 152.984375 L 131.460938 152.984375 L 131.460938 119.75 L 139.089844 119.75 L 139.089844 135.003906 L 139.363281 135.003906 L 144.265625 119.75 L 151.621094 119.75 L 146.449219 134.460938 L 151.621094 152.984375 Z M 146.988281 89.511719 L 146.71875 89.511719 L 146.71875 117.027344 L 140.726562 117.027344 L 140.726562 84.066406 L 151.621094 84.066406 L 156.523438 108.035156 L 156.523438 84.066406 L 162.519531 84.066406 L 162.519531 117.027344 L 152.710938 117.027344 Z M 167.964844 183.222656 C 167.964844 184.855469 167.421875 185.945312 166.605469 186.761719 C 165.515625 187.851562 163.335938 188.125 161.976562 188.125 C 160.882812 188.125 158.976562 188.125 157.617188 186.761719 C 156.800781 185.945312 156.253906 184.855469 156.253906 183.222656 L 156.253906 160.066406 C 156.253906 158.433594 156.800781 157.34375 157.617188 156.523438 C 158.976562 155.164062 160.882812 155.164062 161.976562 155.164062 C 163.335938 155.164062 165.242188 155.164062 166.605469 156.523438 C 167.421875 157.34375 167.964844 158.433594 167.964844 160.066406 Z M 188.125 187.578125 L 182.949219 187.578125 L 177.503906 158.707031 L 177.503906 187.578125 L 174.503906 187.578125 L 174.503906 155.707031 L 179.953125 155.707031 L 185.128906 185.128906 L 185.128906 155.707031 L 188.125 155.707031 Z M 188.941406 124.925781 L 183.496094 124.925781 L 183.496094 152.984375 L 175.59375 152.984375 L 175.59375 124.925781 L 162.246094 124.925781 L 162.246094 132.28125 L 170.417969 132.28125 L 170.417969 137.183594 L 162.246094 137.183594 L 162.246094 148.082031 L 170.691406 148.082031 L 170.691406 152.984375 L 154.621094 152.984375 L 154.621094 119.75 L 188.941406 119.75 Z M 188.941406 124.925781 "/>
<path style=" stroke:none;fill-rule:evenodd;fill:rgb(4.705882%,5.490196%,5.882353%);fill-opacity:1;" d="M 162.246094 157.613281 C 161.429688 157.613281 160.882812 157.886719 160.609375 158.160156 C 160.066406 158.703125 159.792969 159.792969 159.792969 160.339844 L 159.792969 182.949219 C 159.792969 184.039062 160.066406 184.582031 160.609375 185.128906 C 161.15625 185.671875 161.699219 185.671875 162.246094 185.671875 C 162.519531 185.671875 163.0625 185.671875 163.605469 185.128906 C 164.152344 184.585938 164.152344 184.039062 164.152344 182.949219 L 164.152344 160.339844 C 164.152344 159.246094 164.152344 158.707031 163.605469 158.160156 C 163.0625 157.613281 162.519531 157.613281 162.246094 157.613281 Z M 180.226562 107.765625 L 180.226562 94.144531 C 180.226562 89.785156 179.949219 88.695312 176.140625 88.695312 L 176.140625 112.394531 C 179.953125 112.394531 180.226562 111.035156 180.226562 107.765625 Z M 126.015625 112.394531 C 127.648438 112.394531 127.921875 111.304688 127.921875 109.941406 L 127.921875 91.148438 C 127.921875 89.785156 127.648438 88.695312 126.015625 88.695312 C 124.378906 88.695312 123.835938 89.785156 123.835938 91.148438 L 123.835938 109.941406 C 123.835938 111.304688 124.378906 112.394531 126.015625 112.394531 Z M 73.441406 157.613281 C 72.894531 157.613281 72.351562 157.886719 71.804688 158.160156 C 71.261719 158.703125 71.261719 159.792969 71.261719 160.339844 L 71.261719 182.949219 C 71.261719 184.039062 71.535156 184.582031 71.804688 185.128906 C 72.351562 185.671875 73.167969 185.671875 73.441406 185.671875 C 73.984375 185.671875 74.53125 185.671875 75.074219 185.128906 C 75.347656 184.585938 75.617188 184.039062 75.617188 182.949219 L 75.617188 160.339844 C 75.617188 159.246094 75.347656 158.707031 75.074219 158.160156 C 74.53125 157.613281 73.984375 157.613281 73.441406 157.613281 Z M 73.441406 157.613281 "/>
</g>
</svg>
