<?xml version="1.0" encoding="UTF-8"?>
<svg xmlns="http://www.w3.org/2000/svg" xmlns:xlink="http://www.w3.org/1999/xlink" width="200pt" height="200pt" viewBox="0 0 200 200" version="1.1">
<g id="surface1">
<path style=" stroke:none;fill-rule:nonzero;fill:rgb(100%,100%,100%);fill-opacity:1;" d="M 77.898438 116.078125 C 74.820312 115.398438 71.679688 113.660156 69.441406 111.398438 C 65.941406 107.839844 64.320312 103.378906 64.820312 98.519531 C 65.640625 90.441406 73.140625 83.71875 81.300781 83.761719 C 82.960938 83.761719 83.820312 83.898438 86.460938 84.578125 C 89.738281 85.421875 90.339844 85.421875 90.761719 84.699219 C 90.859375 84.5 91.121094 84.398438 91.320312 84.441406 C 91.679688 84.5 91.699219 84.761719 91.761719 88.960938 C 91.800781 93.398438 91.800781 93.421875 91.378906 93.359375 C 91.058594 93.320312 90.820312 92.921875 90.320312 91.558594 C 89.441406 89.238281 88.539062 87.78125 87.160156 86.5 C 85.738281 85.179688 84.300781 84.601562 82.058594 84.460938 C 76.839844 84.121094 73.621094 86.660156 72.460938 92.019531 C 71.941406 94.480469 71.941406 105.261719 72.460938 107.878906 C 73.339844 112.21875 75.019531 114.441406 78.039062 115.300781 C 79.578125 115.738281 82.578125 115.800781 83.679688 115.421875 C 84.761719 115.039062 86.078125 113.78125 86.558594 112.640625 C 87.058594 111.5 87.398438 108.980469 87.398438 106.558594 L 87.398438 104.800781 L 85.101562 104.800781 C 82.941406 104.800781 82.800781 104.78125 82.800781 104.398438 C 82.800781 104 82.941406 104 89.699219 104 C 96.460938 104 96.601562 104 96.601562 104.398438 C 96.601562 104.761719 96.460938 104.800781 95.199219 104.800781 L 93.800781 104.800781 L 93.800781 109.800781 C 93.800781 114.621094 93.78125 114.800781 93.398438 114.800781 C 93.199219 114.800781 92.800781 114.578125 92.519531 114.300781 C 91.820312 113.601562 90.859375 113.660156 88.800781 114.519531 C 85.078125 116.078125 84.480469 116.238281 81.800781 116.320312 C 80.019531 116.378906 78.898438 116.300781 77.898438 116.078125 Z M 144.898438 116.078125 C 139.019531 114.78125 133.921875 110.101562 132.320312 104.578125 C 129.738281 95.738281 135.421875 86.519531 144.921875 84.101562 C 147.199219 83.519531 149.820312 83.621094 152.699219 84.398438 C 156.699219 85.480469 157.460938 85.539062 157.699219 84.78125 C 157.78125 84.578125 158 84.398438 158.21875 84.398438 C 158.578125 84.398438 158.601562 84.578125 158.601562 88.921875 C 158.601562 92.960938 158.558594 93.421875 158.28125 93.359375 C 158.101562 93.320312 157.761719 92.761719 157.480469 92.039062 C 156.140625 88.460938 154.398438 86.261719 152.058594 85.140625 C 150.738281 84.519531 150.621094 84.5 148.199219 84.519531 C 144.921875 84.519531 143.820312 84.921875 142.101562 86.679688 C 139.941406 88.839844 139.261719 91.421875 139.058594 98.101562 C 138.761719 108.121094 140.21875 113.261719 143.859375 114.898438 C 145.300781 115.558594 148.058594 115.898438 149.660156 115.621094 C 153.320312 114.980469 156.261719 112.121094 157.699219 107.800781 C 158.039062 106.800781 158.238281 106.480469 158.578125 106.441406 C 159 106.378906 159 106.378906 159 111.078125 L 159 115.800781 L 158.539062 115.800781 C 158.300781 115.800781 157.980469 115.621094 157.839844 115.398438 C 157.480469 114.820312 156.359375 114.878906 153.601562 115.621094 C 150.71875 116.378906 147.121094 116.578125 144.898438 116.078125 Z M 20 115.5 C 20 115.28125 20.378906 115.199219 21.839844 115.160156 L 23.699219 115.101562 L 30.300781 99.140625 L 36.898438 83.179688 L 37.558594 83.238281 L 38.238281 83.300781 L 45.179688 99.199219 L 52.121094 115.101562 L 54.058594 115.160156 C 55.601562 115.199219 56 115.28125 56 115.5 C 56 115.761719 54.960938 115.800781 48.5 115.800781 C 41.960938 115.800781 41 115.761719 41 115.5 C 41 115.261719 41.359375 115.199219 43 115.199219 C 44.101562 115.199219 45 115.140625 45 115.078125 C 45 114.980469 40.941406 105.578125 40.179688 103.941406 L 39.941406 103.398438 L 34.640625 103.441406 L 29.359375 103.5 L 26.980469 109.179688 C 25.660156 112.300781 24.601562 114.941406 24.601562 115.019531 C 24.601562 115.121094 25.460938 115.199219 26.5 115.199219 C 28.058594 115.199219 28.398438 115.261719 28.398438 115.5 C 28.398438 115.761719 27.800781 115.800781 24.199219 115.800781 C 20.640625 115.800781 20 115.761719 20 115.5 Z M 39.601562 102.621094 C 39.601562 102.398438 34.800781 91.339844 34.621094 91.140625 C 34.480469 91 29.800781 102.101562 29.800781 102.558594 C 29.800781 102.738281 31.121094 102.800781 34.699219 102.800781 C 37.398438 102.800781 39.601562 102.71875 39.601562 102.621094 Z M 96 115.5 C 96 115.261719 96.339844 115.199219 97.859375 115.199219 L 99.699219 115.199219 L 106.300781 99.199219 L 112.898438 83.199219 L 113.578125 83.238281 L 114.28125 83.300781 L 121.21875 99.199219 L 128.160156 115.101562 L 130.078125 115.160156 C 131.601562 115.199219 132 115.28125 132 115.5 C 132 115.761719 130.960938 115.800781 124.5 115.800781 C 117.960938 115.800781 117 115.761719 117 115.5 C 117 115.261719 117.359375 115.199219 119 115.199219 C 120.101562 115.199219 121 115.121094 121 115.039062 C 121 114.941406 119.878906 112.320312 118.519531 109.179688 L 116.058594 103.5 L 110.761719 103.441406 L 105.460938 103.398438 L 105.039062 104.339844 C 103.921875 107 100.601562 115 100.601562 115.101562 C 100.601562 115.160156 101.460938 115.199219 102.5 115.199219 C 104.058594 115.199219 104.398438 115.261719 104.398438 115.5 C 104.398438 115.761719 103.800781 115.800781 100.199219 115.800781 C 96.601562 115.800781 96 115.761719 96 115.5 Z M 115.601562 102.601562 C 115.601562 102.320312 110.839844 91.359375 110.640625 91.160156 C 110.519531 91.039062 105.78125 102.261719 105.800781 102.660156 C 105.800781 102.898438 115.601562 102.839844 115.601562 102.601562 Z M 163.199219 115.5 C 163.199219 115.261719 163.558594 115.199219 165.199219 115.199219 L 167.199219 115.199219 L 167.199219 85 L 165.199219 85 C 163.558594 85 163.199219 84.941406 163.199219 84.699219 C 163.199219 84.441406 164.140625 84.398438 170.5 84.398438 C 176.859375 84.398438 177.800781 84.441406 177.800781 84.699219 C 177.800781 84.941406 177.441406 85 175.800781 85 L 173.800781 85 L 173.800781 115.199219 L 175.800781 115.199219 C 177.441406 115.199219 177.800781 115.261719 177.800781 115.5 C 177.800781 115.761719 176.859375 115.800781 170.5 115.800781 C 164.140625 115.800781 163.199219 115.761719 163.199219 115.5 Z M 53.78125 97.421875 C 53.761719 97.300781 53.738281 97.121094 53.71875 97.019531 C 53.699219 96.941406 54.160156 96.519531 54.699219 96.101562 C 56.101562 95.058594 57.578125 93.601562 57.921875 92.941406 C 58.28125 92.261719 58.320312 90.621094 58.019531 90.019531 C 57.820312 89.679688 57.699219 89.640625 57.28125 89.800781 C 55.859375 90.339844 54.058594 89.820312 53.238281 88.601562 C 52.578125 87.621094 52.679688 85.679688 53.398438 84.878906 C 54.878906 83.320312 57.039062 83.28125 58.699219 84.820312 C 59.898438 85.921875 60.28125 87.101562 60.160156 89.378906 C 60.078125 90.820312 59.960938 91.300781 59.441406 92.339844 C 58.699219 93.78125 57.179688 95.398438 55.5 96.519531 C 53.859375 97.621094 53.800781 97.660156 53.78125 97.421875 Z M 53.78125 97.421875 "/>
<path style=" stroke:none;fill-rule:nonzero;fill:rgb(92.941176%,10.980392%,56.078431%);fill-opacity:1;" d="M 0 100 L 0 0 L 200 0 L 200 200 L 0 200 Z M 85.699219 115.738281 C 86.480469 115.460938 87.859375 114.921875 88.800781 114.519531 C 90.859375 113.660156 91.820312 113.601562 92.519531 114.300781 C 92.800781 114.578125 93.199219 114.800781 93.398438 114.800781 C 93.78125 114.800781 93.800781 114.621094 93.800781 109.800781 L 93.800781 104.800781 L 95.199219 104.800781 C 96.460938 104.800781 96.601562 104.761719 96.601562 104.398438 C 96.601562 104 96.460938 104 89.699219 104 C 82.941406 104 82.800781 104 82.800781 104.398438 C 82.800781 104.78125 82.941406 104.800781 85.101562 104.800781 L 87.398438 104.800781 L 87.398438 106.558594 C 87.398438 108.980469 87.058594 111.5 86.558594 112.640625 C 86.078125 113.78125 84.761719 115.039062 83.679688 115.421875 C 82.578125 115.800781 79.578125 115.738281 78.039062 115.300781 C 75.019531 114.441406 73.339844 112.21875 72.460938 107.878906 C 71.941406 105.261719 71.941406 94.480469 72.460938 92.019531 C 73.621094 86.660156 76.839844 84.121094 82.058594 84.460938 C 86.058594 84.71875 88.558594 86.859375 90.320312 91.558594 C 90.820312 92.921875 91.058594 93.320312 91.378906 93.359375 C 91.800781 93.421875 91.800781 93.398438 91.761719 88.960938 C 91.699219 84.761719 91.679688 84.5 91.320312 84.441406 C 91.121094 84.398438 90.859375 84.5 90.761719 84.699219 C 90.339844 85.421875 89.738281 85.421875 86.460938 84.578125 C 83.820312 83.898438 82.960938 83.761719 81.300781 83.761719 C 73.140625 83.71875 65.640625 90.441406 64.820312 98.519531 C 64.320312 103.378906 65.941406 107.839844 69.441406 111.398438 C 71.679688 113.660156 74.820312 115.398438 77.898438 116.078125 C 80.058594 116.558594 83.878906 116.398438 85.699219 115.738281 Z M 153.601562 115.621094 C 156.359375 114.878906 157.480469 114.820312 157.839844 115.398438 C 157.980469 115.621094 158.300781 115.800781 158.539062 115.800781 L 159 115.800781 L 159 111.078125 C 159 106.378906 159 106.378906 158.578125 106.441406 C 158.238281 106.480469 158.039062 106.800781 157.699219 107.800781 C 156.261719 112.121094 153.320312 114.980469 149.660156 115.621094 C 148.058594 115.898438 145.300781 115.558594 143.859375 114.898438 C 140.21875 113.261719 138.761719 108.121094 139.058594 98.101562 C 139.261719 91.421875 139.941406 88.839844 142.101562 86.679688 C 143.820312 84.921875 144.921875 84.519531 148.199219 84.519531 C 150.621094 84.5 150.738281 84.519531 152.058594 85.140625 C 154.398438 86.261719 156.140625 88.460938 157.480469 92.039062 C 157.761719 92.761719 158.101562 93.320312 158.28125 93.359375 C 158.558594 93.421875 158.601562 92.960938 158.601562 88.921875 C 158.601562 84.578125 158.578125 84.398438 158.21875 84.398438 C 158 84.398438 157.78125 84.578125 157.699219 84.78125 C 157.460938 85.539062 156.699219 85.480469 152.699219 84.398438 C 150.738281 83.859375 149.921875 83.738281 148.300781 83.738281 C 140.160156 83.738281 132.640625 90.460938 131.800781 98.441406 C 131.300781 103.320312 132.921875 107.839844 136.441406 111.398438 C 138.679688 113.660156 141.820312 115.398438 144.898438 116.078125 C 147.121094 116.578125 150.71875 116.378906 153.601562 115.621094 Z M 28.398438 115.5 C 28.398438 115.261719 28.058594 115.199219 26.5 115.199219 C 25.460938 115.199219 24.601562 115.121094 24.601562 115.019531 C 24.601562 114.941406 25.660156 112.300781 26.980469 109.179688 L 29.359375 103.5 L 34.640625 103.441406 L 39.941406 103.398438 L 40.179688 103.941406 C 40.941406 105.578125 45 114.980469 45 115.078125 C 45 115.140625 44.101562 115.199219 43 115.199219 C 41.359375 115.199219 41 115.261719 41 115.5 C 41 115.761719 41.960938 115.800781 48.5 115.800781 C 54.960938 115.800781 56 115.761719 56 115.5 C 56 115.28125 55.601562 115.199219 54.058594 115.160156 L 52.121094 115.101562 L 45.179688 99.199219 L 38.238281 83.300781 L 37.558594 83.238281 L 36.898438 83.179688 L 30.300781 99.140625 L 23.699219 115.101562 L 21.839844 115.160156 C 20.378906 115.199219 20 115.28125 20 115.5 C 20 115.761719 20.640625 115.800781 24.199219 115.800781 C 27.800781 115.800781 28.398438 115.761719 28.398438 115.5 Z M 104.398438 115.5 C 104.398438 115.261719 104.058594 115.199219 102.5 115.199219 C 101.460938 115.199219 100.601562 115.160156 100.601562 115.101562 C 100.601562 115 103.921875 107 105.039062 104.339844 L 105.460938 103.398438 L 110.761719 103.441406 L 116.058594 103.5 L 118.519531 109.179688 C 119.878906 112.320312 121 114.941406 121 115.039062 C 121 115.121094 120.101562 115.199219 119 115.199219 C 117.359375 115.199219 117 115.261719 117 115.5 C 117 115.761719 117.960938 115.800781 124.5 115.800781 C 130.960938 115.800781 132 115.761719 132 115.5 C 132 115.28125 131.601562 115.199219 130.078125 115.160156 L 128.160156 115.101562 L 121.21875 99.199219 L 114.28125 83.300781 L 113.578125 83.238281 L 112.898438 83.199219 L 106.300781 99.199219 L 99.699219 115.199219 L 97.859375 115.199219 C 96.339844 115.199219 96 115.261719 96 115.5 C 96 115.761719 96.601562 115.800781 100.199219 115.800781 C 103.800781 115.800781 104.398438 115.761719 104.398438 115.5 Z M 177.800781 115.5 C 177.800781 115.261719 177.441406 115.199219 175.800781 115.199219 L 173.800781 115.199219 L 173.800781 85 L 175.800781 85 C 177.441406 85 177.800781 84.941406 177.800781 84.699219 C 177.800781 84.441406 176.859375 84.398438 170.5 84.398438 C 164.140625 84.398438 163.199219 84.441406 163.199219 84.699219 C 163.199219 84.941406 163.558594 85 165.199219 85 L 167.199219 85 L 167.199219 115.199219 L 165.199219 115.199219 C 163.558594 115.199219 163.199219 115.261719 163.199219 115.5 C 163.199219 115.761719 164.140625 115.800781 170.5 115.800781 C 176.859375 115.800781 177.800781 115.761719 177.800781 115.5 Z M 55.5 96.519531 C 57.179688 95.398438 58.699219 93.78125 59.441406 92.339844 C 59.960938 91.300781 60.078125 90.820312 60.160156 89.378906 C 60.28125 87.101562 59.898438 85.921875 58.699219 84.820312 C 57.039062 83.28125 54.878906 83.320312 53.398438 84.878906 C 52.679688 85.679688 52.578125 87.621094 53.238281 88.601562 C 54.058594 89.820312 55.859375 90.339844 57.28125 89.800781 C 57.699219 89.640625 57.820312 89.679688 58.019531 90.019531 C 58.320312 90.621094 58.28125 92.261719 57.921875 92.941406 C 57.578125 93.601562 56.101562 95.058594 54.699219 96.101562 C 54.160156 96.519531 53.699219 96.941406 53.71875 97.019531 C 53.800781 97.71875 53.660156 97.761719 55.5 96.519531 Z M 55.5 96.519531 "/>
<path style=" stroke:none;fill-rule:nonzero;fill:rgb(92.941176%,10.980392%,56.078431%);fill-opacity:1;" d="M 29.800781 102.558594 C 29.800781 102.101562 34.480469 91 34.621094 91.140625 C 34.800781 91.339844 39.601562 102.398438 39.601562 102.621094 C 39.601562 102.71875 37.398438 102.800781 34.699219 102.800781 C 31.121094 102.800781 29.800781 102.738281 29.800781 102.558594 Z M 105.800781 102.660156 C 105.78125 102.261719 110.519531 91.039062 110.640625 91.160156 C 110.839844 91.359375 115.601562 102.320312 115.601562 102.601562 C 115.601562 102.839844 105.800781 102.898438 105.800781 102.660156 Z M 105.800781 102.660156 "/>
</g>
</svg>
