<?xml version="1.0" encoding="UTF-8"?>
<svg xmlns="http://www.w3.org/2000/svg" xmlns:xlink="http://www.w3.org/1999/xlink" width="200pt" height="200pt" viewBox="0 0 200 200" version="1.1">
<g id="surface1">
<rect x="0" y="0" width="200" height="200" style="fill:rgb(26.27451%,17.647059%,51.372549%);fill-opacity:1;stroke:none;"/>
<path style=" stroke:none;fill-rule:evenodd;fill:rgb(100%,100%,100%);fill-opacity:1;" d="M 163.089844 80.199219 L 114.003906 103.582031 L 25.945312 86.941406 L 87.460938 69.875 Z M 163.089844 80.199219 "/>
<path style=" stroke:none;fill-rule:evenodd;fill:rgb(0%,0%,0%);fill-opacity:1;" d="M 127.695312 97.050781 L 114.003906 103.582031 L 91.253906 99.15625 L 105.996094 93.257812 Z M 81.5625 89.046875 L 65.761719 94.523438 L 43.429688 90.308594 L 59.863281 85.253906 Z M 120.953125 87.148438 L 105.996094 93.257812 L 81.5625 89.046875 L 97.148438 83.355469 Z M 154.03125 84.410156 L 141.808594 90.308594 L 120.953125 87.148438 L 134.226562 81.671875 Z M 154.03125 84.410156 "/>
<path style=" stroke:none;fill-rule:evenodd;fill:rgb(0%,0%,0%);fill-opacity:1;" d="M 122.007812 74.507812 L 143.917969 77.667969 L 134.226562 81.671875 L 111.6875 78.300781 Z M 76.085938 80.199219 L 59.863281 85.253906 L 42.800781 82.304688 L 59.652344 77.667969 Z M 111.6875 78.300781 L 97.148438 83.355469 L 76.085938 80.199219 L 91.460938 75.351562 Z M 111.6875 78.300781 "/>
<path style=" stroke:none;fill-rule:evenodd;fill:rgb(0%,0%,0%);fill-opacity:1;" d="M 87.460938 69.875 L 102.628906 71.980469 L 91.460938 75.351562 L 75.875 73.035156 Z M 87.460938 69.875 "/>
<path style=" stroke:none;fill-rule:evenodd;fill:rgb(83.137255%,62.352941%,69.803922%);fill-opacity:1;" d="M 99.621094 28.796875 L 94.09375 28.796875 L 95.886719 25.636719 L 100.941406 26.691406 Z M 99.621094 28.796875 "/>
<path style=" stroke:none;fill-rule:evenodd;fill:rgb(74.117647%,49.411765%,58.823529%);fill-opacity:1;" d="M 94.09375 28.796875 L 99.621094 28.796875 L 97.773438 31.746094 L 92.421875 31.746094 Z M 94.09375 28.796875 "/>
<path style=" stroke:none;fill-rule:evenodd;fill:rgb(67.058824%,38.431373%,49.803922%);fill-opacity:1;" d="M 92.421875 31.746094 L 97.773438 31.746094 L 95.792969 34.90625 L 90.628906 34.90625 Z M 92.421875 31.746094 "/>
<path style=" stroke:none;fill-rule:evenodd;fill:rgb(60%,27.058824%,41.176471%);fill-opacity:1;" d="M 90.628906 34.90625 L 95.792969 34.90625 L 93.945312 37.855469 L 88.957031 37.855469 Z M 90.628906 34.90625 "/>
<path style=" stroke:none;fill-rule:evenodd;fill:rgb(53.333333%,15.294118%,34.117647%);fill-opacity:1;" d="M 88.957031 37.855469 L 93.945312 37.855469 L 92.09375 40.804688 L 87.882812 39.75 Z M 88.957031 37.855469 "/>
<path style=" stroke:none;fill-rule:evenodd;fill:rgb(49.411765%,0%,29.019608%);fill-opacity:1;" d="M 112.316406 80.617188 L 117.375 82.515625 L 92.09375 40.804688 L 87.882812 39.75 Z M 112.316406 80.617188 "/>
<path style=" stroke:none;fill-rule:evenodd;fill:rgb(66.666667%,0%,39.215686%);fill-opacity:1;" d="M 131.699219 81.460938 L 100.941406 26.691406 L 92.09375 40.804688 L 117.375 82.515625 Z M 84.722656 86.308594 L 64.917969 88.414062 L 74.1875 71.5625 Z M 84.722656 86.308594 "/>
<path style=" stroke:none;fill-rule:evenodd;fill:rgb(86.666667%,70.980392%,76.470588%);fill-opacity:1;" d="M 73.957031 71.980469 L 68.855469 71.980469 L 70.394531 69.242188 L 74.1875 71.5625 Z M 73.957031 71.980469 "/>
<path style=" stroke:none;fill-rule:evenodd;fill:rgb(80%,60.392157%,67.45098%);fill-opacity:1;" d="M 68.855469 71.980469 L 73.957031 71.980469 L 72.449219 74.71875 L 67.316406 74.71875 Z M 68.855469 71.980469 "/>
<path style=" stroke:none;fill-rule:evenodd;fill:rgb(74.117647%,50.980392%,59.607843%);fill-opacity:1;" d="M 67.316406 74.71875 L 72.449219 74.71875 L 70.945312 77.460938 L 65.773438 77.460938 Z M 67.316406 74.71875 "/>
<path style=" stroke:none;fill-rule:evenodd;fill:rgb(68.235294%,41.960784%,52.156863%);fill-opacity:1;" d="M 65.773438 77.460938 L 70.945312 77.460938 L 69.4375 80.199219 L 64.234375 80.199219 Z M 65.773438 77.460938 "/>
<path style=" stroke:none;fill-rule:evenodd;fill:rgb(62.745098%,33.72549%,45.490196%);fill-opacity:1;" d="M 64.234375 80.199219 L 69.4375 80.199219 L 67.929688 82.9375 L 62.695312 82.9375 Z M 64.234375 80.199219 "/>
<path style=" stroke:none;fill-rule:evenodd;fill:rgb(57.647059%,24.705882%,39.215686%);fill-opacity:1;" d="M 62.695312 82.9375 L 67.929688 82.9375 L 66.425781 85.675781 L 61.152344 85.675781 Z M 62.695312 82.9375 "/>
<path style=" stroke:none;fill-rule:evenodd;fill:rgb(53.333333%,15.294118%,34.117647%);fill-opacity:1;" d="M 61.152344 85.675781 L 66.425781 85.675781 L 64.917969 88.414062 L 60.917969 86.097656 Z M 61.152344 85.675781 "/>
<path style=" stroke:none;fill-rule:evenodd;fill:rgb(50.196078%,50.588235%,51.372549%);fill-opacity:1;" d="M 88.199219 77.183594 C 84.40625 76.15625 81.214844 73.601562 79.386719 70.128906 C 79.011719 69.027344 78.820312 67.875 78.824219 66.714844 C 78.824219 60.816406 83.667969 56.183594 89.355469 56.183594 C 95.253906 56.183594 99.890625 60.816406 99.890625 66.714844 C 99.890625 72.613281 95.253906 77.246094 89.355469 77.246094 C 88.96875 77.25 88.582031 77.226562 88.199219 77.183594 Z M 88.199219 77.183594 "/>
<path style=" stroke:none;fill-rule:evenodd;fill:rgb(61.176471%,61.960784%,62.745098%);fill-opacity:1;" d="M 78.992188 68.613281 C 80.777344 73.066406 84.746094 76.394531 89.488281 77.246094 Z M 99.300781 70.25 C 97.375 72.292969 94.691406 73.453125 91.882812 73.457031 C 86.40625 73.457031 81.773438 69.03125 81.773438 63.554688 C 81.773438 61.507812 82.417969 59.578125 83.515625 57.964844 C 85.242188 56.804688 87.273438 56.183594 89.355469 56.183594 C 95.253906 56.183594 99.890625 60.816406 99.890625 66.714844 C 99.890625 67.960938 99.679688 69.148438 99.300781 70.25 Z M 99.300781 70.25 "/>
<path style=" stroke:none;fill-rule:evenodd;fill:rgb(73.333333%,73.72549%,74.901961%);fill-opacity:1;" d="M 83.496094 57.976562 C 82.367188 59.617188 81.765625 61.5625 81.773438 63.554688 C 81.773438 69.03125 86.195312 73.667969 91.882812 73.667969 C 94.851562 73.667969 97.507812 72.308594 99.320312 70.191406 Z M 97.992188 63.554688 C 97.992188 66.925781 95.253906 69.453125 91.882812 69.453125 C 88.515625 69.453125 85.984375 66.925781 85.984375 63.554688 C 85.984375 60.183594 88.515625 57.445312 91.882812 57.445312 C 95.253906 57.445312 97.992188 60.183594 97.992188 63.554688 Z M 97.992188 63.554688 "/>
<path style=" stroke:none;fill-rule:evenodd;fill:rgb(85.882353%,86.27451%,86.666667%);fill-opacity:1;" d="M 97.992188 63.34375 C 97.992188 60.183594 95.253906 57.445312 91.882812 57.445312 C 88.722656 57.445312 85.984375 60.183594 85.984375 63.34375 C 85.984375 66.714844 88.722656 69.453125 91.882812 69.453125 C 95.257812 69.453125 97.992188 66.71875 97.992188 63.34375 Z M 93.992188 63.554688 C 93.992188 64.609375 92.9375 65.449219 91.882812 65.449219 C 90.832031 65.449219 89.988281 64.609375 89.988281 63.554688 C 89.988281 62.5 90.828125 61.449219 91.882812 61.449219 C 92.9375 61.449219 93.992188 62.5 93.992188 63.554688 Z M 93.992188 63.554688 "/>
<path style=" stroke:none;fill-rule:evenodd;fill:rgb(100%,100%,100%);fill-opacity:1;" d="M 93.78125 63.554688 C 93.78125 63.050781 93.582031 62.566406 93.226562 62.210938 C 92.871094 61.855469 92.386719 61.65625 91.882812 61.660156 C 90.621094 61.660156 89.777344 62.5 89.777344 63.554688 C 89.777344 64.609375 90.621094 65.660156 91.882812 65.660156 C 92.9375 65.664062 93.78125 64.609375 93.78125 63.554688 Z M 114.003906 103.582031 L 25.945312 86.941406 L 25.945312 88.835938 L 114.003906 105.6875 Z M 114.003906 103.582031 "/>
<path style=" stroke:none;fill-rule:evenodd;fill:rgb(81.568627%,81.960784%,82.745098%);fill-opacity:1;" d="M 114.003906 105.6875 L 163.089844 81.882812 L 163.089844 80.199219 L 114.003906 103.582031 Z M 114.003906 105.6875 "/>
<path style=" stroke:none;fill-rule:evenodd;fill:rgb(0%,0%,0%);fill-opacity:1;" d="M 43.429688 92.207031 L 25.945312 88.835938 L 25.945312 86.941406 L 43.429688 90.308594 Z M 91.253906 101.265625 L 65.761719 96.417969 L 65.761719 94.523438 L 91.253906 99.367188 Z M 127.695312 98.945312 L 114.003906 105.6875 L 114.003906 103.582031 L 127.695312 97.050781 Z M 154.03125 86.308594 L 141.808594 92.207031 L 141.808594 90.308594 L 154.03125 84.410156 Z M 154.03125 86.308594 "/>
<path style=" stroke:none;fill-rule:evenodd;fill:rgb(100%,100%,100%);fill-opacity:1;" d="M 38 112.71875 L 41.492188 112.71875 L 51.722656 136.675781 L 46.761719 136.675781 L 44.125 130.484375 L 35.550781 130.484375 L 32.855469 136.675781 L 27.890625 136.675781 Z M 42.347656 126.199219 L 39.777344 118.90625 L 37.140625 126.199219 Z M 53.316406 112.71875 L 59.441406 112.71875 L 65.9375 131.039062 L 72.554688 112.71875 L 78.679688 112.71875 L 78.679688 136.675781 L 74.144531 136.675781 L 74.144531 118.722656 L 67.898438 136.675781 L 64.097656 136.675781 L 57.789062 118.722656 L 57.789062 136.675781 L 53.316406 136.675781 Z M 82.722656 112.71875 L 87.257812 112.71875 L 87.257812 136.675781 L 82.722656 136.675781 Z M 99.632812 112.71875 L 103.125 112.71875 L 113.355469 136.675781 L 108.394531 136.675781 L 105.757812 130.484375 L 97.183594 130.484375 L 94.484375 136.675781 L 89.523438 136.675781 Z M 103.984375 126.199219 L 101.410156 118.90625 L 98.835938 126.199219 Z M 115.4375 112.71875 L 119.851562 112.71875 C 122.054688 112.71875 124.261719 112.660156 126.28125 113.636719 C 128.304688 114.617188 129.714844 116.761719 129.714844 119.03125 C 129.714844 120.867188 128.855469 122.769531 127.078125 123.5625 C 129.714844 124.421875 131.183594 126.6875 131.183594 129.382812 C 131.183594 131.710938 130.144531 133.671875 128.242188 135.078125 C 126.28125 136.488281 123.832031 136.613281 121.503906 136.675781 L 115.4375 136.675781 Z M 121.808594 132.386719 C 123.097656 132.386719 124.324219 132.261719 125.546875 131.527344 C 126.34375 130.976562 126.710938 130.179688 126.710938 129.199219 C 126.710938 128.035156 126.160156 127.300781 125.121094 126.75 C 124.078125 126.199219 122.976562 126.257812 121.871094 126.257812 L 119.910156 126.257812 L 119.910156 132.386719 Z M 120.769531 121.910156 C 121.75 121.910156 122.976562 121.972656 123.832031 121.601562 C 124.691406 121.175781 125.242188 120.253906 125.242188 119.398438 C 125.242188 118.417969 124.628906 117.621094 123.707031 117.253906 C 122.851562 116.886719 121.6875 117.066406 120.769531 117.066406 L 119.910156 117.066406 L 119.910156 121.910156 Z M 134.554688 112.71875 L 139.089844 112.71875 L 139.089844 132.386719 L 146.5 132.386719 L 146.5 136.675781 L 134.554688 136.675781 Z M 149.378906 112.71875 L 162.429688 112.71875 L 162.429688 117.066406 L 153.851562 117.066406 L 153.851562 122.523438 L 162.0625 122.523438 L 162.0625 126.871094 L 153.851562 126.871094 L 153.851562 132.386719 L 162.429688 132.386719 L 162.429688 136.675781 L 149.378906 136.675781 Z M 28.441406 144.027344 L 25.929688 144.027344 L 25.929688 141.636719 L 33.589844 141.636719 L 33.589844 144.027344 L 31.015625 144.027344 L 31.015625 155.113281 L 28.441406 155.113281 Z M 34.875 141.636719 L 42.289062 141.636719 L 42.289062 144.027344 L 37.449219 144.027344 L 37.449219 147.148438 L 42.105469 147.148438 L 42.105469 149.601562 L 37.449219 149.601562 L 37.449219 152.664062 L 42.289062 152.664062 L 42.289062 155.113281 L 34.875 155.113281 Z M 57.359375 151.4375 C 56.320312 153.890625 53.683594 155.421875 50.988281 155.421875 C 47.066406 155.421875 43.882812 152.171875 43.882812 148.375 C 43.882812 144.578125 47.066406 141.390625 50.925781 141.390625 C 53.683594 141.390625 56.378906 142.921875 57.480469 145.496094 L 54.542969 145.496094 C 53.648438 144.421875 52.324219 143.792969 50.925781 143.78125 C 48.414062 143.78125 46.394531 145.925781 46.394531 148.4375 C 46.394531 150.828125 48.476562 152.96875 50.988281 152.96875 C 52.335938 152.96875 53.5 152.417969 54.421875 151.4375 Z M 59.074219 141.636719 L 61.648438 141.636719 L 61.648438 147.027344 L 66.550781 147.027344 L 66.550781 141.636719 L 69.121094 141.636719 L 69.121094 155.113281 L 66.550781 155.113281 L 66.550781 149.417969 L 61.648438 149.417969 L 61.648438 155.113281 L 59.074219 155.113281 Z M 71.757812 141.636719 L 74.636719 141.636719 L 80.394531 151.4375 L 80.394531 141.636719 L 82.90625 141.636719 L 82.90625 155.113281 L 80.089844 155.113281 L 74.332031 145.3125 L 74.332031 155.113281 L 71.757812 155.113281 Z M 99.203125 148.4375 C 99.203125 152.296875 95.894531 155.421875 92.035156 155.421875 C 88.117188 155.421875 84.808594 152.296875 84.808594 148.4375 C 84.808594 144.515625 88.054688 141.390625 92.035156 141.390625 C 95.957031 141.390625 99.203125 144.515625 99.203125 148.4375 Z M 87.378906 148.375 C 87.378906 150.886719 89.460938 152.96875 92.035156 152.96875 C 94.546875 152.96875 96.632812 150.886719 96.632812 148.375 C 96.632812 145.863281 94.546875 143.78125 92.035156 143.78125 C 89.460938 143.78125 87.378906 145.863281 87.378906 148.375 Z M 101.164062 141.636719 L 103.738281 141.636719 L 103.738281 152.664062 L 107.964844 152.664062 L 107.964844 155.113281 L 101.164062 155.113281 Z M 123.035156 148.4375 C 123.035156 152.296875 119.726562 155.421875 115.867188 155.421875 C 111.949219 155.421875 108.699219 152.296875 108.699219 148.4375 C 108.699219 144.515625 111.886719 141.390625 115.867188 141.390625 C 119.789062 141.390625 123.035156 144.515625 123.035156 148.4375 Z M 111.210938 148.375 C 111.210938 150.886719 113.355469 152.96875 115.867188 152.96875 C 118.378906 152.96875 120.464844 150.886719 120.464844 148.375 C 120.464844 147.15625 119.980469 145.988281 119.121094 145.125 C 118.257812 144.261719 117.089844 143.777344 115.867188 143.78125 C 113.292969 143.78125 111.210938 145.863281 111.210938 148.375 Z M 134.863281 145.558594 C 134.066406 144.457031 132.65625 143.78125 131.246094 143.78125 C 130.082031 143.78125 128.980469 144.210938 128.0625 144.945312 C 127.140625 145.800781 126.46875 147.089844 126.46875 148.375 C 126.46875 149.476562 127.019531 150.703125 127.816406 151.5 C 128.765625 152.429688 130.039062 152.957031 131.371094 152.96875 C 133.023438 152.96875 134.679688 151.988281 135.414062 150.582031 L 129.652344 150.582031 L 129.652344 148.253906 L 138.597656 148.253906 L 138.597656 148.496094 C 138.597656 152.417969 135.230469 155.421875 131.308594 155.421875 C 127.324219 155.421875 123.957031 152.417969 123.957031 148.4375 C 123.957031 144.457031 127.324219 141.390625 131.246094 141.390625 C 134.066406 141.390625 136.882812 142.984375 137.925781 145.558594 Z M 140.679688 141.636719 L 143.191406 141.636719 L 143.191406 155.113281 L 140.679688 155.113281 Z M 145.519531 141.636719 L 152.875 141.636719 L 152.875 144.027344 L 148.03125 144.027344 L 148.03125 147.148438 L 152.6875 147.148438 L 152.6875 149.601562 L 148.03125 149.601562 L 148.03125 152.664062 L 152.875 152.664062 L 152.875 155.113281 L 145.519531 155.113281 Z M 156.855469 151.316406 C 156.855469 152.359375 157.710938 152.96875 158.753906 152.96875 C 159.734375 152.96875 160.53125 152.296875 160.53125 151.316406 C 160.53125 149.84375 159.304688 149.417969 158.140625 149.046875 C 157.222656 148.742188 156.425781 148.496094 155.753906 147.765625 C 155.078125 147.089844 154.710938 146.109375 154.710938 145.191406 C 154.710938 142.984375 156.546875 141.390625 158.753906 141.390625 C 160.835938 141.390625 162.796875 143.105469 162.734375 145.191406 L 160.160156 145.191406 C 160.101562 144.394531 159.363281 143.78125 158.570312 143.78125 C 157.773438 143.78125 157.222656 144.394531 157.222656 145.253906 C 157.222656 146.234375 158.140625 146.601562 158.9375 146.84375 C 159.917969 147.210938 160.835938 147.457031 161.632812 148.070312 C 162.613281 148.867188 163.101562 149.847656 163.101562 151.132812 C 163.101562 153.585938 161.082031 155.421875 158.628906 155.421875 C 156.304688 155.421875 154.160156 153.644531 154.160156 151.316406 Z M 26.480469 159.585938 L 27.890625 159.585938 L 27.890625 166.941406 L 26.480469 166.941406 Z M 34.753906 159.585938 L 36.34375 159.585938 L 39.46875 164.980469 L 39.46875 159.585938 L 40.878906 159.585938 L 40.878906 166.941406 L 39.347656 166.941406 L 36.160156 161.546875 L 36.160156 166.941406 L 34.753906 166.941406 Z M 54.785156 164.980469 C 54.171875 166.265625 52.703125 167.125 51.234375 167.125 C 49.089844 167.125 47.3125 165.347656 47.3125 163.261719 C 47.3125 161.179688 49.089844 159.402344 51.234375 159.402344 C 52.703125 159.402344 54.234375 160.261719 54.785156 161.667969 L 53.195312 161.667969 C 52.703125 161.117188 51.96875 160.75 51.234375 160.75 C 49.824219 160.75 48.71875 161.914062 48.71875 163.324219 C 48.71875 164.609375 49.886719 165.835938 51.234375 165.835938 C 51.96875 165.835938 52.640625 165.46875 53.132812 164.980469 Z M 68.570312 163.324219 C 68.570312 165.46875 66.792969 167.125 64.648438 167.125 C 62.503906 167.125 60.667969 165.46875 60.667969 163.324219 C 60.667969 161.117188 62.445312 159.40625 64.648438 159.40625 C 65.691406 159.402344 66.6875 159.8125 67.425781 160.546875 C 68.160156 161.285156 68.574219 162.28125 68.570312 163.324219 Z M 62.078125 163.261719 C 62.078125 164.609375 63.242188 165.835938 64.652344 165.835938 C 66 165.835938 67.164062 164.609375 67.164062 163.261719 C 67.164062 161.855469 66.058594 160.753906 64.652344 160.753906 C 63.242188 160.753906 62.078125 161.855469 62.078125 163.261719 Z M 75.066406 159.585938 L 77.269531 159.585938 C 78.003906 159.585938 78.679688 159.585938 79.230469 160.078125 C 79.78125 160.507812 80.089844 161.242188 80.089844 161.914062 C 80.089844 162.464844 79.84375 163.140625 79.476562 163.507812 C 79.109375 163.9375 78.679688 164.121094 78.128906 164.242188 L 80.210938 166.941406 L 78.433594 166.941406 L 76.476562 164.121094 L 76.476562 166.941406 L 75.066406 166.941406 Z M 77.269531 163.078125 C 77.636719 163.078125 78.066406 163.015625 78.371094 162.773438 C 78.554688 162.589844 78.679688 162.28125 78.679688 161.976562 C 78.679688 161.667969 78.554688 161.363281 78.3125 161.117188 C 77.945312 160.875 77.636719 160.875 77.269531 160.875 L 76.472656 160.875 L 76.472656 163.078125 Z M 86.398438 166.941406 L 86.398438 159.585938 L 88.175781 159.585938 C 88.910156 159.585938 89.585938 159.527344 90.199219 159.957031 C 90.871094 160.382812 91.238281 161.058594 91.238281 161.792969 C 91.238281 162.527344 90.933594 163.261719 90.320312 163.691406 C 89.707031 164.183594 88.789062 164.183594 88.050781 164.183594 L 87.808594 164.183594 L 87.808594 166.9375 L 86.398438 166.9375 Z M 88.054688 162.832031 C 88.421875 162.832031 88.789062 162.832031 89.15625 162.773438 C 89.523438 162.589844 89.828125 162.28125 89.828125 161.855469 C 89.828125 161.363281 89.523438 161.058594 89.09375 160.933594 C 88.789062 160.871094 88.359375 160.871094 88.054688 160.871094 L 87.808594 160.871094 L 87.808594 162.832031 Z M 105.023438 163.324219 C 105.023438 165.46875 103.1875 167.125 101.042969 167.125 C 98.898438 167.125 97.121094 165.46875 97.121094 163.324219 C 97.117188 162.28125 97.53125 161.285156 98.265625 160.546875 C 99.003906 159.8125 100 159.402344 101.042969 159.40625 C 103.246094 159.40625 105.023438 161.117188 105.023438 163.324219 Z M 98.53125 163.261719 C 98.53125 164.609375 99.695312 165.835938 101.042969 165.835938 C 102.449219 165.835938 103.613281 164.609375 103.613281 163.261719 C 103.613281 161.855469 102.449219 160.753906 101.042969 160.753906 C 100.375 160.746094 99.730469 161.007812 99.257812 161.480469 C 98.785156 161.953125 98.523438 162.59375 98.53125 163.261719 Z M 111.519531 159.585938 L 113.660156 159.585938 C 114.398438 159.585938 115.070312 159.585938 115.625 160.078125 C 116.175781 160.507812 116.542969 161.242188 116.542969 161.914062 C 116.542969 162.464844 116.296875 163.140625 115.929688 163.507812 C 115.5625 163.9375 115.074219 164.121094 114.582031 164.242188 L 116.605469 166.941406 L 114.886719 166.941406 L 112.929688 164.121094 L 112.863281 164.121094 L 112.863281 166.941406 L 111.515625 166.941406 L 111.515625 159.585938 Z M 113.660156 163.078125 C 114.03125 163.078125 114.519531 163.015625 114.765625 162.773438 C 115.007812 162.589844 115.132812 162.28125 115.132812 161.976562 C 115.132812 161.667969 115.007812 161.363281 114.703125 161.117188 C 114.398438 160.875 114.089844 160.875 113.660156 160.875 L 112.863281 160.875 L 112.863281 163.078125 Z M 125.363281 159.585938 L 126.464844 159.585938 L 129.652344 166.941406 L 128.058594 166.941406 L 127.261719 165.039062 L 124.566406 165.039062 L 123.707031 166.941406 L 122.175781 166.941406 Z M 126.710938 163.691406 L 125.914062 161.484375 L 125.054688 163.691406 Z M 136.269531 160.875 L 134.921875 160.875 L 134.921875 159.585938 L 139.089844 159.585938 L 139.089844 160.875 L 137.675781 160.875 L 137.675781 166.941406 L 136.269531 166.941406 Z M 145.214844 159.585938 L 149.257812 159.585938 L 149.257812 160.875 L 146.621094 160.875 L 146.621094 162.589844 L 149.136719 162.589844 L 149.136719 163.9375 L 146.621094 163.9375 L 146.621094 165.652344 L 149.257812 165.652344 L 149.257812 166.941406 L 145.214844 166.941406 Z M 155.933594 159.585938 L 157.46875 159.585938 C 158.628906 159.585938 159.796875 159.710938 160.652344 160.445312 C 161.511719 161.117188 162 162.222656 162 163.324219 C 162 164.304688 161.511719 165.40625 160.652344 166.082031 C 159.734375 166.878906 158.691406 166.9375 157.527344 166.9375 L 155.933594 166.9375 Z M 157.46875 165.652344 C 158.265625 165.652344 159 165.589844 159.675781 165.101562 C 160.222656 164.671875 160.59375 164 160.59375 163.324219 C 160.59375 162.527344 160.222656 161.792969 159.550781 161.363281 C 158.9375 160.933594 158.144531 160.871094 157.40625 160.871094 L 157.285156 160.871094 L 157.285156 165.652344 Z M 157.46875 165.652344 "/>
</g>
</svg>
