<?xml version="1.0" encoding="UTF-8"?>
<svg xmlns="http://www.w3.org/2000/svg" xmlns:xlink="http://www.w3.org/1999/xlink" width="200pt" height="200pt" viewBox="0 0 200 200" version="1.1">
<g id="surface1">
<rect x="0" y="0" width="200" height="200" style="fill:rgb(0%,0%,0%);fill-opacity:1;stroke:none;"/>
<path style=" stroke:none;fill-rule:evenodd;fill:rgb(100%,100%,100%);fill-opacity:1;" d="M 154.277344 174.285156 L 154.277344 171.183594 L 155.953125 169.292969 L 158.808594 174.285156 L 161.550781 174.285156 L 157.3125 167.796875 L 161.019531 163.625 L 158.449219 163.625 L 154.347656 168.617188 L 154.277344 168.617188 L 154.277344 159.347656 L 152.140625 159.347656 L 152.140625 174.285156 Z M 148.824219 171.113281 C 148.824219 169.152344 147.828125 168.082031 145.722656 167.902344 L 143.941406 167.792969 C 143.015625 167.722656 142.515625 167.367188 142.515625 166.800781 C 142.515625 165.941406 143.191406 165.550781 144.4375 165.550781 C 145.332031 165.550781 146.257812 165.90625 147.222656 166.546875 L 148.574219 164.941406 C 147.398438 163.980469 146.042969 163.515625 144.441406 163.515625 C 143.226562 163.515625 142.304688 163.800781 141.589844 164.335938 C 140.804688 164.941406 140.375 165.765625 140.375 166.800781 C 140.375 167.6875 140.695312 168.402344 141.269531 168.9375 C 141.804688 169.472656 142.585938 169.757812 143.476562 169.828125 L 145.367188 169.933594 C 146.257812 170.007812 146.6875 170.398438 146.6875 171.078125 C 146.6875 171.96875 145.972656 172.359375 144.546875 172.359375 C 143.300781 172.359375 142.15625 171.96875 141.230469 171.078125 L 139.734375 172.503906 C 141.085938 173.753906 142.65625 174.394531 144.4375 174.394531 C 145.6875 174.394531 146.757812 174.109375 147.578125 173.574219 C 148.394531 172.964844 148.824219 172.148438 148.824219 171.113281 Z M 136.953125 174.285156 L 136.953125 167.011719 C 136.953125 164.695312 135.457031 163.515625 132.496094 163.515625 C 130.890625 163.515625 129.675781 164.050781 128.929688 165.050781 L 130.566406 166.300781 C 130.925781 165.765625 131.605469 165.550781 132.601562 165.550781 C 133.386719 165.550781 133.957031 165.65625 134.277344 165.835938 C 134.632812 166.011719 134.8125 166.371094 134.8125 166.902344 L 134.8125 168.042969 L 131.816406 168.042969 C 130.75 168.042969 129.855469 168.332031 129.214844 168.9375 C 128.605469 169.507812 128.324219 170.289062 128.324219 171.183594 C 128.324219 172.074219 128.679688 172.859375 129.320312 173.425781 C 130 174.105469 130.925781 174.390625 132.136719 174.390625 C 133.421875 174.390625 134.3125 174.035156 134.742188 173.324219 L 134.8125 173.324219 L 134.8125 174.285156 Z M 134.8125 170.542969 C 134.8125 171.289062 134.632812 171.824219 134.277344 172.074219 C 133.957031 172.253906 133.386719 172.359375 132.351562 172.359375 C 131 172.359375 130.355469 171.964844 130.355469 171.078125 C 130.355469 170.1875 131 169.757812 132.246094 169.757812 L 134.8125 169.757812 Z M 122.796875 171.433594 L 122.796875 165.300781 L 124.402344 165.300781 L 124.402344 163.625 L 122.796875 163.625 L 122.796875 160.378906 L 120.660156 160.378906 L 120.660156 163.625 L 119.660156 163.625 L 119.660156 165.300781 L 120.660156 165.300781 L 120.660156 171.648438 C 120.660156 172.429688 120.90625 173.074219 121.441406 173.570312 C 121.90625 174.035156 122.511719 174.285156 123.261719 174.285156 L 124.402344 174.285156 L 124.402344 172.253906 L 123.582031 172.253906 C 123.046875 172.253906 122.796875 171.964844 122.796875 171.433594 Z M 103.898438 174.285156 L 103.898438 167.90625 C 103.898438 167.261719 104.078125 166.65625 104.507812 166.261719 C 104.898438 165.835938 105.398438 165.65625 106.039062 165.65625 C 106.648438 165.65625 107.109375 165.835938 107.539062 166.261719 C 107.929688 166.65625 108.109375 167.261719 108.109375 167.90625 L 108.109375 174.285156 L 110.246094 174.285156 L 110.246094 167.191406 C 110.246094 166.085938 109.890625 165.195312 109.140625 164.480469 C 108.464844 163.804688 107.644531 163.515625 106.679688 163.515625 C 105.328125 163.515625 104.1875 163.980469 103.367188 164.871094 C 102.476562 163.980469 101.476562 163.515625 100.335938 163.515625 C 99.195312 163.515625 98.265625 163.945312 97.554688 164.765625 L 97.554688 163.625 L 95.414062 163.625 L 95.414062 174.285156 L 97.554688 174.285156 L 97.554688 167.902344 C 97.554688 167.261719 97.730469 166.65625 98.125 166.261719 C 98.550781 165.835938 99.015625 165.65625 99.691406 165.65625 C 100.265625 165.65625 100.761719 165.835938 101.15625 166.261719 C 101.585938 166.65625 101.761719 167.261719 101.761719 167.902344 L 101.761719 174.285156 Z M 91.527344 171.539062 L 91.851562 168.9375 L 91.527344 166.367188 C 91.351562 165.832031 91.0625 165.300781 90.636719 164.871094 C 89.886719 163.980469 88.816406 163.515625 87.425781 163.515625 C 86.074219 163.515625 85.003906 163.980469 84.21875 164.871094 C 83.820312 165.304688 83.519531 165.8125 83.328125 166.367188 L 83.042969 168.9375 L 83.328125 171.539062 C 83.507812 172.074219 83.828125 172.539062 84.21875 173.035156 C 85.003906 173.925781 86.074219 174.390625 87.425781 174.390625 C 88.816406 174.390625 89.886719 173.929688 90.636719 173.035156 C 91.0625 172.539062 91.351562 172.074219 91.527344 171.539062 Z M 85.714844 171.46875 C 85.359375 170.933594 85.179688 170.113281 85.179688 168.9375 C 85.179688 167.722656 85.359375 166.90625 85.714844 166.441406 C 86.074219 165.90625 86.679688 165.65625 87.425781 165.65625 C 88.214844 165.65625 88.816406 165.90625 89.175781 166.441406 C 89.53125 166.90625 89.710938 167.722656 89.710938 168.9375 C 89.710938 170.113281 89.53125 170.933594 89.175781 171.46875 C 88.816406 172.003906 88.214844 172.253906 87.425781 172.253906 C 86.679688 172.253906 86.074219 172.003906 85.714844 171.46875 Z M 77.871094 173.144531 L 77.871094 174.285156 L 80.011719 174.285156 L 80.011719 159.347656 L 77.871094 159.347656 L 77.871094 164.765625 C 76.980469 163.945312 76.089844 163.519531 75.128906 163.519531 C 73.878906 163.519531 72.953125 163.980469 72.273438 164.875 C 71.988281 165.300781 71.738281 165.730469 71.632812 166.265625 L 71.523438 168.9375 L 71.632812 171.648438 C 71.738281 172.183594 71.988281 172.609375 72.273438 173.039062 C 72.953125 173.929688 73.878906 174.394531 75.128906 174.394531 C 76.195312 174.390625 77.085938 173.964844 77.871094 173.144531 Z M 75.804688 172.253906 C 74.914062 172.253906 74.234375 171.894531 73.949219 171.183594 L 73.664062 168.9375 L 73.949219 166.65625 C 74.234375 166.015625 74.914062 165.65625 75.804688 165.65625 C 76.695312 165.65625 77.265625 166.015625 77.585938 166.726562 C 77.765625 167.191406 77.871094 167.90625 77.871094 168.9375 L 77.585938 171.183594 C 77.265625 171.894531 76.695312 172.253906 75.804688 172.253906 Z M 61.1875 167.902344 C 61.1875 167.261719 61.363281 166.65625 61.753906 166.261719 C 62.183594 165.835938 62.648438 165.65625 63.324219 165.65625 C 63.96875 165.65625 64.433594 165.835938 64.789062 166.261719 C 65.214844 166.65625 65.394531 167.261719 65.394531 167.902344 L 65.394531 174.285156 L 67.53125 174.285156 L 67.53125 167.191406 C 67.53125 166.082031 67.101562 165.191406 66.355469 164.476562 C 65.679688 163.800781 64.929688 163.515625 63.964844 163.515625 C 62.824219 163.515625 61.898438 163.945312 61.222656 164.765625 L 61.1875 164.765625 L 61.1875 163.621094 L 59.046875 163.621094 L 59.046875 174.285156 L 61.1875 174.285156 Z M 52.914062 170.542969 C 52.914062 171.289062 52.738281 171.824219 52.378906 172.074219 C 52.09375 172.253906 51.488281 172.359375 50.527344 172.359375 C 49.171875 172.359375 48.53125 171.964844 48.53125 171.078125 C 48.53125 170.1875 49.101562 169.757812 50.347656 169.757812 L 52.914062 169.757812 Z M 49.957031 168.042969 C 48.886719 168.042969 48.03125 168.332031 47.390625 168.9375 C 46.78125 169.507812 46.496094 170.289062 46.496094 171.183594 C 46.496094 172.074219 46.855469 172.859375 47.496094 173.425781 C 48.175781 174.105469 49.101562 174.390625 50.3125 174.390625 C 51.597656 174.390625 52.488281 174.035156 52.914062 173.324219 L 52.914062 174.285156 L 55.054688 174.285156 L 55.054688 167.011719 C 55.054688 164.695312 53.558594 163.515625 50.671875 163.515625 C 48.992188 163.515625 47.816406 164.050781 47.03125 165.050781 L 48.742188 166.300781 C 49.0625 165.765625 49.777344 165.550781 50.777344 165.550781 C 51.558594 165.550781 52.097656 165.65625 52.453125 165.835938 C 52.738281 166.011719 52.914062 166.371094 52.914062 166.902344 L 52.914062 168.042969 Z M 40.078125 167.867188 C 40.078125 167.152344 40.328125 166.546875 40.722656 166.121094 C 41.164062 165.824219 41.683594 165.664062 42.21875 165.65625 C 42.648438 165.65625 43.109375 165.835938 43.644531 166.121094 L 45.140625 164.300781 C 44.464844 163.765625 43.714844 163.515625 42.929688 163.515625 C 41.753906 163.515625 40.792969 163.945312 40.148438 164.765625 L 40.078125 164.765625 L 40.078125 163.621094 L 37.9375 163.621094 L 37.9375 174.285156 L 40.078125 174.285156 Z M 40.078125 167.867188 "/>
<path style=" stroke:none;fill-rule:evenodd;fill:rgb(72.941176%,18.823529%,48.235294%);fill-opacity:1;" d="M 94.335938 122.414062 L 66.011719 122.414062 L 66.011719 93.449219 C 73.75 93.558594 80.363281 96.40625 85.851562 101.933594 C 91.492188 107.492188 94.335938 114.257812 94.335938 122.144531 Z M 94.335938 122.414062 "/>
<path style=" stroke:none;fill-rule:evenodd;fill:rgb(80%,14.901961%,17.647059%);fill-opacity:1;" d="M 66.011719 93.449219 L 65.640625 93.449219 C 57.75 93.449219 50.9375 96.292969 45.320312 101.933594 C 39.742188 107.492188 36.941406 114.257812 36.941406 122.144531 C 36.941406 130.035156 39.742188 136.847656 45.320312 142.46875 C 50.9375 148.046875 57.75 150.84375 65.640625 150.84375 C 73.527344 150.84375 80.296875 148.046875 85.851562 142.46875 C 91.382812 136.914062 94.226562 130.234375 94.335938 122.410156 L 66.011719 122.410156 Z M 105.15625 122.304688 L 105.15625 122.652344 C 105.15625 130.566406 108 137.355469 113.644531 142.976562 C 119.199219 148.550781 125.964844 151.351562 133.855469 151.351562 C 141.746094 151.351562 148.558594 148.550781 154.179688 142.976562 C 159.753906 137.355469 162.550781 130.566406 162.550781 122.652344 C 162.550781 114.765625 159.753906 107.996094 154.179688 102.464844 C 148.625 96.910156 141.945312 94.089844 134.121094 93.980469 L 134.121094 122.304688 Z M 105.15625 122.304688 "/>
<path style=" stroke:none;fill-rule:evenodd;fill:rgb(72.941176%,18.823529%,48.235294%);fill-opacity:1;" d="M 134.121094 93.980469 L 134.121094 122.304688 L 105.15625 122.304688 C 105.269531 114.542969 108.113281 107.929688 113.644531 102.464844 C 119.199219 96.800781 125.964844 93.980469 133.855469 93.980469 Z M 134.121094 93.980469 "/>
<path style=" stroke:none;fill-rule:evenodd;fill:rgb(80%,14.901961%,17.647059%);fill-opacity:1;" d="M 134.007812 84.015625 L 134.359375 84.015625 C 142.273438 84.015625 149.0625 81.195312 154.679688 75.53125 C 160.257812 69.976562 163.058594 63.230469 163.058594 55.320312 C 163.058594 47.429688 160.257812 40.640625 154.679688 35.019531 C 149.0625 29.421875 142.273438 26.644531 134.359375 26.644531 C 126.472656 26.644531 119.703125 29.421875 114.171875 35.019531 C 108.617188 40.554688 105.796875 47.253906 105.683594 55.078125 L 134.007812 55.078125 Z M 134.007812 84.015625 "/>
<path style=" stroke:none;fill-rule:evenodd;fill:rgb(72.941176%,18.823529%,48.235294%);fill-opacity:1;" d="M 105.683594 55.078125 L 134.007812 55.078125 L 134.007812 84.015625 C 126.25 83.90625 119.640625 81.085938 114.171875 75.53125 C 108.507812 69.976562 105.683594 63.230469 105.683594 55.320312 Z M 105.683594 55.078125 "/>
<path style=" stroke:none;fill-rule:evenodd;fill:rgb(80%,14.901961%,17.647059%);fill-opacity:1;" d="M 94.84375 54.660156 L 94.84375 54.308594 C 94.84375 46.394531 92.023438 39.605469 86.355469 33.984375 C 80.800781 28.40625 74.058594 25.609375 66.144531 25.609375 C 58.253906 25.609375 51.46875 28.40625 45.847656 33.984375 C 40.246094 39.605469 37.472656 46.394531 37.472656 54.308594 C 37.472656 62.195312 40.25 68.960938 45.847656 74.496094 C 51.378906 80.050781 58.078125 82.871094 65.902344 82.980469 L 65.902344 54.660156 Z M 94.84375 54.660156 "/>
<path style=" stroke:none;fill-rule:evenodd;fill:rgb(72.941176%,18.823529%,48.235294%);fill-opacity:1;" d="M 65.902344 82.980469 L 65.902344 54.660156 L 94.84375 54.660156 C 94.730469 62.417969 91.910156 69.027344 86.355469 74.496094 C 80.800781 80.160156 74.058594 82.980469 66.144531 82.980469 Z M 65.902344 82.980469 "/>
</g>
</svg>
