<?xml version="1.0" encoding="UTF-8"?>
<svg xmlns="http://www.w3.org/2000/svg" xmlns:xlink="http://www.w3.org/1999/xlink" width="200pt" height="200pt" viewBox="0 0 200 200" version="1.1">
<g id="surface1">
<rect x="0" y="0" width="200" height="200" style="fill:rgb(21.568627%,43.529412%,31.764706%);fill-opacity:1;stroke:none;"/>
<path style=" stroke:none;fill-rule:evenodd;fill:rgb(100%,100%,100%);fill-opacity:1;" d="M 179.574219 60.75 C 178.085938 65.835938 176.523438 70.894531 174.886719 75.933594 C 174.039062 78.066406 171.765625 78.988281 169.636719 79.203125 C 167.722656 79.34375 165.523438 79.34375 164.316406 77.570312 C 163.609375 75.648438 164.8125 73.804688 165.308594 72.035156 C 166.730469 69.195312 169.992188 68.554688 173.039062 68.910156 C 173.191406 68.835938 173.328125 69.125 173.191406 69.195312 C 172.476562 69.546875 171.621094 69.476562 170.84375 69.621094 C 167.933594 70.546875 168.359375 73.878906 167.363281 76.148438 C 167.226562 76.433594 167.433594 76.714844 167.511719 77 C 168.359375 77.777344 169.992188 77.425781 170.984375 77.066406 C 171.414062 76.929688 171.839844 76.5 172.054688 76.003906 C 173.257812 70.402344 176.09375 65.433594 179.289062 60.609375 C 179.359375 60.609375 179.503906 60.609375 179.574219 60.75 Z M 34.527344 64.082031 C 34.953125 64.300781 34.527344 64.652344 34.457031 64.933594 L 34.101562 65.292969 L 28.421875 65.359375 C 26.292969 65.929688 26.582031 68.34375 25.871094 69.902344 C 25.871094 70.117188 26.152344 70.398438 26.367188 70.398438 L 32.46875 70.46875 C 32.609375 70.46875 32.683594 70.683594 32.539062 70.828125 L 32.113281 71.035156 L 25.65625 72.457031 C 24.238281 73.308594 24.308594 75.082031 23.8125 76.5 C 23.738281 76.929688 24.09375 77.355469 24.449219 77.496094 C 26.507812 77.777344 28.777344 77.566406 30.835938 77.710938 C 31.261719 77.921875 30.910156 78.34375 30.835938 78.703125 L 30.414062 78.984375 L 22.25 78.984375 C 21.609375 78.84375 20.972656 78.625 20.617188 77.921875 C 20.261719 77.207031 20.472656 76.429688 20.617188 75.648438 C 21.679688 72.527344 22.464844 69.261719 23.808594 66.210938 C 24.664062 64.582031 26.4375 64.15625 28.070312 64.011719 Z M 96.691406 64.082031 C 97.046875 64.300781 96.691406 64.652344 96.691406 64.867188 C 96.550781 65.082031 96.335938 65.359375 96.054688 65.359375 L 90.585938 65.433594 C 88.460938 65.929688 88.605469 68.414062 88.03125 70.046875 C 88.175781 70.332031 88.53125 70.472656 88.8125 70.472656 L 94.703125 70.546875 C 94.84375 70.683594 94.632812 71.039062 94.421875 71.039062 L 87.75 72.53125 C 87.324219 72.742188 87.039062 73.09375 86.832031 73.523438 L 85.265625 78.703125 C 84.558594 79.34375 83.136719 79.0625 82.214844 78.917969 C 81.789062 78.203125 82.425781 77.496094 82.496094 76.785156 C 83.707031 73.242188 84.558594 69.546875 86.046875 66.140625 C 88.316406 62.878906 93 64.511719 96.691406 64.082031 Z M 48.507812 67.632812 L 48.433594 68.0625 L 41.480469 77.996094 C 40.839844 79.0625 39.707031 79.203125 38.5 79.128906 C 37.007812 78.917969 37.367188 77.285156 37.007812 76.289062 L 35.660156 68.910156 C 36.015625 67.777344 37.4375 68.417969 38.429688 68.273438 C 38.785156 68.273438 38.785156 68.703125 38.925781 68.980469 C 39.417969 71.253906 39.707031 73.667969 40.347656 75.933594 C 41.691406 74.304688 42.832031 72.390625 44.53125 70.828125 C 45.738281 69.6875 47.015625 68.417969 48.363281 67.492188 Z M 60.5 69.410156 C 61.207031 70.753906 60.355469 72.246094 59.859375 73.523438 C 59.578125 74.019531 59.007812 74.019531 58.511719 74.089844 C 56.878906 74.230469 54.894531 74.164062 53.332031 74.089844 C 53.117188 74.089844 53.117188 73.875 53.191406 73.734375 C 54.113281 73.382812 55.246094 73.523438 56.242188 73.308594 C 57.449219 72.742188 57.589844 71.25 57.804688 70.046875 C 57.449219 69.476562 56.667969 69.410156 56.027344 69.410156 C 55.179688 69.410156 54.46875 69.621094 53.832031 70.117188 C 52.695312 71.824219 52.335938 73.878906 51.628906 75.796875 C 51.554688 76.289062 51.628906 76.789062 51.914062 77.210938 C 54.039062 78.488281 56.808594 77.496094 58.652344 76.148438 C 58.796875 76.148438 58.9375 76.21875 58.9375 76.359375 C 57.589844 78.628906 54.960938 79.203125 52.410156 79.269531 C 51.0625 79.128906 49.644531 78.988281 48.71875 77.851562 C 47.652344 75.441406 49.359375 73.09375 50 70.828125 C 51.484375 67.988281 54.820312 67.347656 57.875 67.84375 C 58.867188 68.058594 59.859375 68.414062 60.5 69.410156 Z M 74.691406 68.058594 C 74.832031 68.34375 74.480469 68.414062 74.335938 68.484375 C 72.066406 69.121094 69.371094 68.835938 67.808594 70.898438 C 66.890625 73.453125 66.105469 76.078125 65.324219 78.703125 C 64.6875 79.269531 63.695312 78.914062 62.839844 78.984375 C 62.558594 78.984375 62.132812 78.984375 62.0625 78.625 C 62.914062 75.796875 63.554688 72.738281 65.042969 70.042969 C 67.171875 67.203125 71.074219 67.988281 74.480469 67.910156 Z M 121.953125 68.058594 L 121.882812 68.34375 C 119.539062 69.191406 116.558594 68.765625 114.929688 71.039062 C 114.074219 73.59375 113.507812 76.21875 112.585938 78.703125 C 112.015625 79.269531 111.164062 79.0625 110.386719 79.128906 C 110.03125 79.0625 109.535156 79.128906 109.390625 78.703125 C 109.960938 76.289062 110.742188 73.949219 111.449219 71.535156 C 112.085938 69.621094 114.074219 68.273438 116.0625 68.058594 C 117.835938 67.777344 119.820312 67.914062 121.738281 67.914062 Z M 151.257812 68.058594 C 151.96875 68.273438 152.679688 68.699219 152.964844 69.335938 C 153.320312 70.046875 153.246094 70.828125 153.03125 71.535156 C 152.253906 73.734375 151.828125 76.003906 150.691406 77.992188 C 148.984375 80.050781 145.867188 79.34375 143.3125 79.414062 C 142.675781 79.203125 141.964844 79.128906 141.539062 78.558594 C 140.828125 77.710938 140.828125 76.359375 141.253906 75.296875 C 141.75 73.523438 143.671875 72.3125 145.511719 72.171875 C 146.503906 72.101562 147.429688 71.960938 148.492188 72.101562 C 148.5625 72.246094 148.492188 72.3125 148.492188 72.386719 C 147.140625 72.667969 145.65625 72.738281 144.945312 74.160156 C 144.449219 75.082031 143.949219 76.214844 144.304688 77.28125 C 145.015625 77.992188 146.007812 77.566406 147.003906 77.710938 C 147.429688 77.777344 147.710938 77.425781 147.925781 77.140625 L 150.128906 70.1875 C 150.195312 69.902344 149.980469 69.617188 149.773438 69.40625 C 146.578125 69.261719 143.238281 69.335938 139.980469 69.40625 C 138.773438 69.476562 138.132812 70.828125 137.847656 71.890625 C 136.789062 74.160156 136.925781 77.210938 134.300781 78.558594 C 132.527344 79.414062 129.902344 79.621094 128.199219 78.558594 C 126.421875 79.414062 123.726562 79.554688 121.953125 78.625 C 121.171875 78.132812 121.03125 77.210938 121.03125 76.359375 C 121.808594 73.6875 122.660156 71.039062 123.585938 68.414062 C 124.4375 67.988281 125.714844 68.125 126.5625 68.34375 L 126.773438 68.765625 L 124.292969 76.714844 C 124.222656 77.140625 124.503906 77.496094 124.859375 77.636719 C 125.785156 77.851562 126.773438 77.636719 127.273438 76.785156 C 128.335938 74.089844 129.046875 71.320312 130.042969 68.554688 C 130.675781 67.914062 131.816406 68.125 132.59375 68.34375 C 132.878906 68.554688 132.742188 69.050781 132.667969 69.335938 L 130.257812 76.859375 C 130.183594 77.28125 130.464844 77.566406 130.820312 77.710938 C 131.53125 77.851562 132.3125 77.710938 132.878906 77.28125 L 133.449219 76.289062 C 134.867188 73.449219 134.4375 68.90625 138.484375 68.125 L 140.546875 67.910156 Z M 166.871094 68.058594 C 166.871094 68.125 167.011719 68.273438 166.871094 68.34375 C 164.460938 69.410156 160.699219 68.625 159.632812 71.824219 L 157.648438 78.703125 C 156.933594 79.414062 155.589844 79.0625 154.664062 78.988281 C 154.027344 78.703125 154.523438 77.992188 154.59375 77.570312 L 156.652344 71.113281 C 158.5 67.207031 163.25 67.988281 166.871094 68.058594 Z M 161.546875 68.125 L 161.546875 68.058594 Z M 107.832031 69.546875 C 108.542969 72.03125 106.910156 74.164062 106.410156 76.359375 C 104.78125 78.988281 101.726562 79.414062 98.894531 79.203125 C 97.757812 79.0625 96.546875 78.628906 95.984375 77.496094 C 95.273438 75.296875 96.6875 73.308594 97.1875 71.25 C 98.109375 68.910156 100.734375 67.914062 103.074219 67.773438 C 104.917969 67.703125 106.765625 67.988281 107.832031 69.546875 Z M 103.003906 69.410156 C 102.078125 69.546875 101.019531 69.902344 100.664062 70.898438 C 100.097656 72.882812 99.171875 74.796875 98.960938 76.859375 C 99.03125 77.210938 99.246094 77.355469 99.527344 77.496094 C 100.664062 77.925781 101.9375 77.640625 102.792969 76.933594 C 103.714844 75.160156 104.144531 73.09375 104.851562 71.253906 C 104.917969 70.753906 105.0625 70.1875 104.710938 69.832031 C 104.28125 69.410156 103.648438 69.410156 103.003906 69.410156 Z M 23.828125 93.144531 L 46.046875 93.128906 C 47.304688 93.121094 50.1875 93.355469 50.1875 93.355469 L 51.390625 93.46875 C 54.691406 93.761719 58.242188 94.648438 60.648438 95.78125 C 62.273438 96.378906 64.011719 97.390625 65.339844 98.410156 L 65.34375 98.46875 C 67.144531 99.660156 68.292969 101.457031 69.503906 103.015625 L 69.441406 103.015625 C 69.925781 103.796875 69.988281 104.15625 70.527344 104.8125 L 70.46875 104.8125 C 71.011719 105.648438 70.835938 106.253906 71.378906 107.09375 L 71.316406 107.09375 C 71.378906 107.332031 71.679688 108.109375 71.800781 108.410156 C 71.921875 109.007812 71.988281 109.554688 72.167969 110.273438 L 72.222656 110.273438 C 72.472656 111.648438 72.539062 113.09375 72.722656 114.472656 L 73.359375 125.636719 L 74.003906 137.585938 L 73.949219 138.847656 C 73.949219 138.847656 73.667969 139.167969 73.488281 139.285156 L 73.003906 139.316406 C 69.125 139.445312 60.480469 139.367188 60.480469 139.367188 C 60.480469 139.367188 59.835938 139.257812 59.476562 139.078125 C 59.183594 138.960938 58.992188 138.675781 58.992188 138.359375 C 58.546875 130.679688 57.714844 115.425781 57.714844 115.425781 C 57.640625 112.605469 57.027344 108.824219 55.757812 106.007812 C 55.636719 105.882812 55.394531 105.285156 55.273438 105.046875 C 54.851562 104.085938 53.523438 102.347656 52.496094 101.453125 C 52.199219 101.15625 51.113281 100.316406 50.574219 100.078125 C 50.394531 99.898438 49.789062 99.542969 49.308594 99.363281 C 49.011719 99.304688 46.785156 98.226562 45.640625 98.058594 C 45.640625 98.058594 43 97.640625 42.035156 97.527344 C 41.015625 97.410156 39.210938 97.351562 39.210938 97.351562 C 38.492188 97.296875 36.933594 97.363281 36.933594 97.363281 C 36.871094 97.300781 36.628906 97.363281 36.628906 97.363281 C 36.585938 97.347656 36.617188 97.636719 36.585938 97.898438 C 36.59375 99.519531 36.558594 101.417969 36.558594 102.933594 L 36.558594 103.09375 L 36.585938 113.664062 L 36.570312 113.941406 L 36.605469 138.570312 C 36.605469 138.570312 36.609375 138.628906 36.515625 138.761719 L 36.441406 138.859375 L 36.417969 138.921875 L 36.25 139.101562 L 35.9375 139.285156 L 35.789062 139.316406 C 33.339844 139.34375 31.011719 139.300781 28.546875 139.308594 L 22.273438 139.316406 C 22.089844 139.253906 21.835938 139.300781 21.59375 138.882812 L 21.523438 138.671875 L 21.484375 93.632812 C 21.78125 93.09375 22.566406 93.269531 23.164062 93.089844 C 23.285156 93.207031 23.707031 93.207031 23.828125 93.144531 Z M 174.796875 93.039062 C 175.035156 93.039062 175.460938 93.277344 175.582031 93.578125 C 175.761719 94.601562 175.617188 95.527344 175.625 96.671875 C 175.441406 96.96875 175.113281 97.359375 174.6875 97.300781 C 174.6875 97.300781 162.199219 97.289062 162.019531 97.40625 C 161.660156 97.347656 160.523438 97.535156 159.921875 97.535156 L 159.203125 97.660156 L 159.140625 97.660156 C 156.171875 97.960938 153.980469 99.121094 153.980469 99.121094 C 152.542969 99.722656 150.445312 101.414062 150.445312 101.414062 C 150.152344 101.652344 149.785156 102.054688 149.542969 102.355469 C 148.78125 103.339844 148.082031 104.371094 147.457031 105.445312 C 147.457031 105.445312 147.320312 105.71875 146.980469 106.347656 C 146.800781 106.84375 146.628906 107.257812 146.507812 107.558594 C 146.089844 108.785156 145.792969 110.003906 145.738281 111.210938 L 145.972656 111.214844 L 168.675781 111.253906 L 168.738281 111.253906 L 170.902344 111.25 C 170.902344 111.25 171.789062 111.253906 171.800781 111.726562 C 171.863281 112.683594 171.933594 114.128906 171.75 114.910156 C 171.746094 115.125 171.542969 115.351562 171.269531 115.390625 C 171.097656 115.460938 170.914062 115.453125 170.914062 115.453125 C 170.914062 115.453125 147.734375 115.472656 145.214844 115.660156 C 144.8125 122.867188 144.480469 130.496094 144.148438 138.484375 C 144.089844 138.847656 143.730469 139.089844 143.429688 139.148438 C 140.367188 139.160156 137.003906 139.285156 134.308594 139.179688 L 129.863281 139.195312 C 129.558594 139.132812 129.320312 138.839844 129.253906 138.535156 C 129.460938 128.566406 129.976562 121 130.546875 111.988281 C 130.945312 106.707031 134.230469 100.265625 138.84375 97.488281 C 143.878906 94.105469 150.238281 93.425781 155.882812 93.042969 Z M 108.140625 93.089844 L 108.140625 93.152344 C 108.199219 93.03125 108.679688 93.328125 108.679688 93.269531 L 109.046875 93.871094 L 109.113281 131.582031 L 109.097656 138.253906 C 109.058594 138.429688 109.070312 138.730469 108.945312 138.910156 C 108.652344 139.148438 108.390625 139.316406 108.027344 139.316406 L 95.328125 139.316406 L 95.207031 139.257812 C 95.207031 139.378906 94.792969 139.136719 94.667969 139.136719 C 94.488281 139.046875 94.328125 138.925781 94.1875 138.777344 L 94.0625 138.179688 L 94.003906 93.828125 C 94.230469 92.953125 95.910156 93.148438 96.671875 93.132812 Z M 108.140625 93.089844 "/>
</g>
</svg>
