<?xml version="1.0" encoding="UTF-8"?>
<svg xmlns="http://www.w3.org/2000/svg" xmlns:xlink="http://www.w3.org/1999/xlink" width="200pt" height="200pt" viewBox="0 0 200 200" version="1.1">
<g id="surface1">
<rect x="0" y="0" width="200" height="200" style="fill:rgb(42.745098%,43.137255%,43.921569%);fill-opacity:1;stroke:none;"/>
<path style=" stroke:none;fill-rule:evenodd;fill:rgb(84.705882%,52.156863%,22.745098%);fill-opacity:1;" d="M 47.746094 111.167969 C 47.652344 109.394531 47.46875 109.023438 45.695312 108.929688 L 45.882812 108.371094 L 50.449219 108.371094 L 50.449219 118.0625 L 50.542969 118.0625 L 56.230469 108.371094 L 57.441406 108.371094 L 58.558594 118.15625 L 58.652344 118.15625 L 63.21875 108.371094 L 64.617188 108.371094 L 58.371094 121.417969 L 56.226562 121.417969 L 55.296875 112.472656 L 49.890625 121.417969 L 47.839844 121.417969 Z M 67.414062 112.003906 C 67.972656 110.046875 67.601562 109.582031 65.921875 109.488281 L 66.015625 108.929688 L 71.234375 107.996094 L 67.878906 121.417969 L 65.082031 121.417969 Z M 69.089844 103.988281 C 69.371094 103.058594 70.394531 102.3125 71.328125 102.3125 C 72.261719 102.3125 73.007812 103.058594 72.726562 103.988281 C 72.445312 105.015625 71.421875 105.761719 70.398438 105.761719 C 69.464844 105.761719 68.90625 105.015625 69.089844 103.988281 Z M 74.496094 112.003906 C 74.964844 110.046875 74.589844 109.582031 72.820312 109.488281 L 73.007812 108.929688 L 78.226562 107.996094 L 77.292969 111.726562 L 77.386719 111.726562 C 78.132812 110.421875 79.625 107.996094 81.859375 107.996094 C 82.328125 107.996094 82.886719 108.089844 83.351562 108.183594 L 82.699219 110.796875 C 82.234375 110.703125 81.769531 110.515625 81.300781 110.515625 C 78.503906 110.515625 77.105469 112.75 76.546875 114.707031 L 74.871094 121.417969 L 72.074219 121.417969 Z M 86.519531 112.285156 C 86.800781 111.167969 87.917969 109.023438 90.0625 109.023438 C 92.484375 109.023438 91.925781 111.632812 91.742188 112.285156 Z M 92.390625 119.742188 C 91.925781 119.929688 90.808594 120.207031 89.691406 120.207031 C 85.683594 120.207031 85.496094 116.199219 86.242188 113.402344 L 94.257812 113.402344 C 94.722656 111.539062 95.1875 107.996094 90.433594 107.996094 C 86.613281 107.996094 84.003906 109.953125 82.886719 114.425781 C 81.671875 119.085938 83.632812 121.699219 87.917969 121.699219 C 89.875 121.699219 91.554688 121.136719 92.113281 120.953125 Z M 104.511719 115.171875 C 104.136719 116.664062 103.019531 120.207031 100.316406 120.207031 C 97.613281 120.207031 98.265625 116.945312 98.824219 114.707031 C 99.289062 112.75 100.316406 109.582031 102.925781 109.582031 C 105.628906 109.582031 105.164062 112.472656 104.789062 114.054688 Z M 102.925781 121.417969 L 105.71875 121.417969 L 110.660156 101.75 L 105.628906 102.402344 L 105.441406 102.964844 C 107.117188 103.058594 107.398438 103.523438 106.929688 105.574219 L 105.8125 110.140625 L 105.71875 110.140625 C 105.441406 109.210938 104.882812 107.996094 102.550781 107.996094 C 98.824219 107.996094 96.492188 111.539062 95.558594 115.171875 C 94.722656 118.621094 95.28125 121.699219 99.007812 121.699219 C 100.96875 121.699219 102.457031 120.488281 103.296875 119.835938 Z M 102.925781 121.417969 "/>
<path style=" stroke:none;fill-rule:evenodd;fill:rgb(100%,100%,100%);fill-opacity:1;" d="M 119.140625 110.328125 C 118.675781 110.046875 117.558594 109.210938 115.972656 109.210938 C 114.761719 109.210938 113.550781 109.675781 113.175781 111.074219 C 112.523438 113.867188 119.234375 113.40625 118.117188 117.785156 C 117.371094 120.671875 114.949219 121.886719 112.058594 121.886719 C 110.289062 121.886719 109.261719 121.511719 108.609375 121.328125 L 109.074219 119.460938 C 109.261719 119.648438 110.753906 120.765625 112.429688 120.765625 C 114.203125 120.765625 115.601562 120.113281 115.972656 118.34375 C 116.71875 115.453125 110.101562 115.546875 111.03125 111.820312 C 111.59375 109.675781 113.269531 108.089844 116.53125 108.089844 C 117.929688 108.089844 119.046875 108.464844 119.515625 108.648438 Z M 128.554688 121.417969 C 127.902344 121.605469 126.785156 121.882812 125.480469 121.882812 C 120.539062 121.882812 119.421875 118.902344 120.539062 114.613281 C 121.378906 111.074219 123.617188 108.089844 127.71875 108.089844 C 130.699219 108.089844 132.003906 109.953125 131.539062 111.726562 L 128.929688 111.726562 C 129.207031 110.605469 129.117188 109.207031 127.15625 109.207031 C 125.386719 109.207031 123.894531 110.792969 123.148438 113.589844 C 122.308594 117.035156 123.148438 120.765625 127.15625 120.765625 C 127.71875 120.765625 128.277344 120.671875 128.742188 120.578125 Z M 135.453125 104.828125 C 135.824219 103.058594 134.429688 102.964844 133.683594 102.964844 L 133.773438 102.496094 L 138.34375 101.84375 L 135.824219 111.914062 C 136.570312 110.980469 138.714844 108.089844 141.234375 108.089844 C 144.585938 108.089844 143.839844 111.261719 143.28125 113.214844 L 141.234375 121.511719 L 139.089844 121.511719 L 141.140625 113.121094 C 141.605469 111.351562 142.070312 109.488281 140.207031 109.488281 C 138.808594 109.488281 135.640625 112.5625 134.894531 115.453125 L 133.402344 121.511719 L 131.164062 121.511719 Z M 147.289062 115.082031 C 147.847656 112.75 148.875 109.210938 152.230469 109.210938 C 155.308594 109.210938 154.839844 112.75 154.28125 115.082031 C 153.722656 117.222656 152.605469 120.765625 149.433594 120.765625 C 146.359375 120.765625 146.730469 117.132812 147.289062 115.082031 Z M 149.0625 121.886719 C 153.070312 121.886719 155.585938 119.273438 156.609375 114.988281 C 157.726562 110.796875 156.144531 108.09375 152.511719 108.09375 C 148.410156 108.09375 145.984375 110.886719 144.867188 115.082031 C 143.933594 119.089844 145.332031 121.886719 149.0625 121.886719 Z M 161.457031 104.828125 C 161.921875 103.058594 160.523438 102.964844 159.6875 102.964844 L 159.871094 102.496094 L 164.347656 101.84375 L 159.40625 121.511719 L 157.261719 121.511719 Z M 170.402344 116.851562 C 170.03125 118.25 168.539062 120.488281 166.675781 120.488281 C 165.09375 120.488281 164.8125 119.183594 165.09375 118.15625 C 165.746094 115.359375 169.566406 115.265625 170.777344 115.171875 Z M 169.191406 121.511719 L 171.335938 121.511719 L 173.574219 112.75 C 174.226562 110.140625 174.039062 108.089844 170.308594 108.089844 C 166.582031 108.089844 165 110.050781 164.4375 111.726562 L 166.957031 111.726562 C 167.234375 110.980469 167.796875 109.210938 169.9375 109.210938 C 172.265625 109.210938 171.800781 111.261719 171.335938 113.21875 L 171.054688 114.335938 C 169.191406 114.425781 163.597656 114.519531 162.574219 118.527344 C 162.109375 120.488281 163.132812 121.882812 165.089844 121.882812 C 167.328125 121.882812 168.820312 120.484375 169.65625 119.742188 Z M 177.394531 111.261719 C 177.863281 109.488281 176.558594 109.394531 175.71875 109.300781 L 175.90625 108.835938 L 180.378906 108.089844 L 179.539062 111.445312 C 180.191406 110.328125 181.496094 108.089844 184.105469 108.089844 C 184.199219 108.089844 184.292969 108.089844 184.386719 108.183594 L 183.828125 110.515625 C 183.546875 110.421875 183.269531 110.328125 182.894531 110.328125 C 180.191406 110.328125 179.074219 113.03125 178.703125 114.800781 L 176.929688 121.511719 L 174.789062 121.511719 Z M 177.394531 111.261719 "/>
<path style=" stroke:none;fill-rule:evenodd;fill:rgb(57.254902%,58.039216%,58.823529%);fill-opacity:1;" d="M 21.371094 109.023438 L 13.355469 109.023438 L 14.847656 103.335938 L 22.769531 103.335938 Z M 46.628906 103.335938 L 38.613281 103.335938 L 40.105469 97.652344 L 48.027344 97.652344 Z M 46.628906 103.335938 "/>
<path style=" stroke:none;fill-rule:evenodd;fill:rgb(81.568627%,81.960784%,82.745098%);fill-opacity:1;" d="M 63.871094 97.652344 L 55.949219 97.652344 L 57.347656 91.964844 L 65.363281 91.964844 Z M 63.871094 97.652344 "/>
<path style=" stroke:none;fill-rule:evenodd;fill:rgb(100%,100%,100%);fill-opacity:1;" d="M 40.105469 97.652344 L 32.089844 97.652344 L 33.582031 91.964844 L 41.503906 91.964844 Z M 40.105469 97.652344 "/>
<path style=" stroke:none;fill-rule:evenodd;fill:rgb(81.568627%,81.960784%,82.745098%);fill-opacity:1;" d="M 22.769531 103.335938 L 14.847656 103.335938 L 16.246094 97.652344 L 24.167969 97.652344 Z M 32.089844 97.652344 L 24.167969 97.652344 L 25.660156 91.964844 L 33.582031 91.964844 Z M 32.089844 97.652344 "/>
<path style=" stroke:none;fill-rule:evenodd;fill:rgb(100%,100%,100%);fill-opacity:1;" d="M 41.503906 91.964844 L 33.582031 91.964844 L 34.976562 86.28125 L 42.902344 86.28125 Z M 38.613281 103.335938 L 30.691406 103.335938 L 32.089844 97.652344 L 40.105469 97.652344 Z M 54.550781 103.335938 L 46.628906 103.335938 L 48.027344 97.652344 L 55.949219 97.652344 Z M 50.824219 86.28125 L 42.902344 86.28125 L 44.296875 80.59375 L 52.3125 80.59375 Z M 50.824219 86.28125 "/>
<path style=" stroke:none;fill-rule:evenodd;fill:rgb(16.470588%,17.254902%,18.039216%);fill-opacity:1;" d="M 49.425781 91.964844 L 41.503906 91.964844 L 42.902344 86.28125 L 50.824219 86.28125 Z M 49.425781 91.964844 "/>
<path style=" stroke:none;fill-rule:evenodd;fill:rgb(100%,100%,100%);fill-opacity:1;" d="M 48.027344 97.652344 L 40.105469 97.652344 L 41.503906 91.964844 L 49.425781 91.964844 Z M 48.027344 97.652344 "/>
<path style=" stroke:none;fill-rule:evenodd;fill:rgb(81.568627%,81.960784%,82.745098%);fill-opacity:1;" d="M 58.839844 86.28125 L 50.824219 86.28125 L 52.3125 80.59375 L 60.238281 80.59375 Z M 58.839844 86.28125 "/>
<path style=" stroke:none;fill-rule:evenodd;fill:rgb(16.470588%,17.254902%,18.039216%);fill-opacity:1;" d="M 57.347656 91.964844 L 49.425781 91.964844 L 50.824219 86.28125 L 58.839844 86.28125 Z M 57.347656 91.964844 "/>
<path style=" stroke:none;fill-rule:evenodd;fill:rgb(100%,100%,100%);fill-opacity:1;" d="M 55.949219 97.652344 L 48.027344 97.652344 L 49.425781 91.964844 L 57.347656 91.964844 Z M 55.949219 97.652344 "/>
<path style=" stroke:none;fill-rule:evenodd;fill:rgb(57.254902%,58.039216%,58.823529%);fill-opacity:1;" d="M 60.238281 80.59375 L 52.3125 80.59375 L 53.710938 74.910156 L 61.632812 74.910156 Z M 60.238281 80.59375 "/>
<path style=" stroke:none;fill-rule:evenodd;fill:rgb(81.568627%,81.960784%,82.745098%);fill-opacity:1;" d="M 33.582031 91.964844 L 25.660156 91.964844 L 27.054688 86.28125 L 34.976562 86.28125 Z M 62.472656 103.335938 L 54.550781 103.335938 L 55.949219 97.652344 L 63.871094 97.652344 Z M 37.214844 109.023438 L 29.292969 109.023438 L 30.691406 103.335938 L 38.613281 103.335938 Z M 27.894531 114.613281 L 19.878906 114.613281 L 21.371094 109.023438 L 29.292969 109.023438 Z M 66.761719 86.28125 L 58.839844 86.28125 L 60.238281 80.59375 L 68.160156 80.59375 Z M 66.761719 86.28125 "/>
<path style=" stroke:none;fill-rule:evenodd;fill:rgb(57.254902%,58.039216%,58.823529%);fill-opacity:1;" d="M 34.976562 86.28125 L 27.054688 86.28125 L 28.453125 80.59375 L 36.375 80.59375 Z M 34.976562 86.28125 "/>
<path style=" stroke:none;fill-rule:evenodd;fill:rgb(81.568627%,81.960784%,82.745098%);fill-opacity:1;" d="M 27.054688 86.28125 L 19.039062 86.28125 L 20.53125 80.59375 L 28.453125 80.59375 Z M 52.3125 80.59375 L 44.296875 80.59375 L 45.789062 74.910156 L 53.710938 74.910156 Z M 52.3125 80.59375 "/>
<path style=" stroke:none;fill-rule:evenodd;fill:rgb(84.705882%,52.156863%,22.745098%);fill-opacity:1;" d="M 42.902344 86.28125 L 34.976562 86.28125 L 36.375 80.59375 L 44.296875 80.59375 Z M 42.902344 86.28125 "/>
<path style=" stroke:none;fill-rule:evenodd;fill:rgb(15.686275%,37.254902%,64.313725%);fill-opacity:1;" d="M 30.691406 103.335938 L 22.769531 103.335938 L 24.167969 97.652344 L 32.089844 97.652344 Z M 30.691406 103.335938 "/>
<path style=" stroke:none;fill-rule:evenodd;fill:rgb(81.568627%,81.960784%,82.745098%);fill-opacity:1;" d="M 66.015625 89.167969 L 58.09375 89.167969 L 58.839844 86.28125 L 66.761719 86.28125 Z M 65.363281 91.964844 L 57.347656 91.964844 L 58.09375 89.167969 L 66.015625 89.167969 Z M 65.363281 91.964844 "/>
<path style=" stroke:none;fill-rule:evenodd;fill:rgb(15.686275%,37.254902%,64.313725%);fill-opacity:1;" d="M 41.503906 91.964844 L 42.902344 86.28125 L 50.824219 86.28125 L 52.3125 80.59375 L 66.015625 89.167969 L 48.027344 97.652344 L 49.425781 91.964844 Z M 41.503906 91.964844 "/>
<path style=" stroke:none;fill-rule:evenodd;fill:rgb(57.254902%,58.039216%,58.823529%);fill-opacity:1;" d="M 29.292969 109.023438 L 21.371094 109.023438 L 22.769531 103.335938 L 30.691406 103.335938 Z M 29.292969 109.023438 "/>
</g>
</svg>
