<?xml version="1.0" encoding="UTF-8"?>
<svg xmlns="http://www.w3.org/2000/svg" xmlns:xlink="http://www.w3.org/1999/xlink" width="200pt" height="150pt" viewBox="0 0 200 150" version="1.1">
<g id="surface1">
<path style=" stroke:none;fill-rule:nonzero;fill:rgb(24.705882%,23.921569%,33.72549%);fill-opacity:1;" d="M 0 136.074219 L 200 136.074219 L 200 136.507812 L 0 136.507812 Z M 0 136.074219 "/>
<path style=" stroke:none;fill-rule:nonzero;fill:rgb(100%,72.54902%,72.54902%);fill-opacity:1;" d="M 128.53125 41.71875 C 128.53125 41.71875 120.03125 42.46875 115.664062 42.046875 C 111.296875 41.628906 102.628906 44.011719 102.628906 44.011719 L 79.730469 48.496094 C 79.730469 48.496094 59.015625 57.472656 56.105469 51.21875 C 54.472656 47.714844 75.820312 44.898438 75.820312 44.898438 L 113.34375 35.394531 L 126.996094 32.898438 Z M 128.53125 41.71875 "/>
<path style=" stroke:none;fill-rule:nonzero;fill:rgb(18.431373%,18.039216%,25.490196%);fill-opacity:1;" d="M 130.167969 67.875 L 124.179688 70.910156 L 125.25 84.132812 C 125.25 84.132812 126.476562 101.472656 126.066406 102.125 C 125.660156 102.773438 118.28125 129.21875 118.28125 129.21875 C 118.28125 129.21875 126.886719 131.386719 134.675781 130.085938 C 134.675781 130.085938 142.460938 110.578125 142.460938 104.941406 L 151.476562 85.21875 L 165.414062 107.761719 C 165.414062 107.761719 166.230469 122.933594 167.871094 127.917969 C 169.511719 132.90625 169.511719 133.554688 169.511719 133.554688 C 169.511719 133.554688 182.625 135.507812 185.902344 133.554688 C 185.902344 133.554688 184.265625 107.976562 183.035156 105.375 L 180.167969 74.378906 Z M 130.167969 67.875 "/>
<path style=" stroke:none;fill-rule:nonzero;fill:rgb(18.431373%,18.039216%,25.490196%);fill-opacity:1;" d="M 121.558594 129.21875 C 121.558594 129.21875 120.742188 128.570312 118.28125 130.304688 C 115.820312 132.039062 108.035156 135.289062 108.035156 135.289062 C 108.035156 135.289062 86.722656 143.308594 102.707031 143.742188 C 118.691406 144.175781 121.558594 139.839844 121.558594 139.839844 C 121.558594 139.839844 135.085938 138.539062 135.496094 137.023438 C 135.902344 135.507812 133.855469 129.4375 133.855469 129.4375 Z M 121.558594 129.21875 "/>
<path style=" stroke:none;fill-rule:nonzero;fill:rgb(18.431373%,18.039216%,25.490196%);fill-opacity:1;" d="M 170.332031 133.121094 C 170.332031 133.121094 167.460938 138.324219 168.28125 140.492188 C 169.101562 142.660156 166.640625 150.679688 178.117188 150.027344 C 189.59375 149.378906 185.902344 142.441406 185.902344 142.441406 L 182.214844 133.554688 Z M 170.332031 133.121094 "/>
<path style=" stroke:none;fill-rule:nonzero;fill:rgb(100%,72.54902%,72.54902%);fill-opacity:1;" d="M 167.667969 12.492188 C 167.667969 16.445312 161.613281 19.644531 154.140625 19.644531 C 146.671875 19.644531 140.617188 16.445312 140.617188 12.492188 C 140.617188 8.542969 146.671875 5.339844 154.140625 5.339844 C 161.613281 5.339844 167.667969 8.542969 167.667969 12.492188 Z M 167.667969 12.492188 "/>
<path style=" stroke:none;fill-rule:nonzero;fill:rgb(100%,72.54902%,72.54902%);fill-opacity:1;" d="M 146.148438 16.285156 C 146.148438 16.285156 150.25 23.871094 146.96875 26.691406 C 143.691406 29.507812 169.101562 27.125 170.742188 24.523438 C 170.742188 24.523438 162.542969 19.753906 163.773438 15.203125 Z M 146.148438 16.285156 "/>
<path style=" stroke:none;fill-rule:nonzero;fill:rgb(92.941176%,38.823529%,21.568627%);fill-opacity:1;" d="M 152.707031 26.472656 C 152.707031 26.472656 163.925781 26.875 169.382812 23.640625 L 183.980469 26.9375 C 187.265625 27.683594 189.140625 29.527344 188.503906 31.386719 L 180.984375 53.351562 C 180.984375 53.351562 184.425781 67.226562 182.625 76.546875 C 181 84.96875 121.96875 76.546875 124.019531 69.394531 C 124.238281 68.625 124.441406 67.84375 124.628906 67.054688 C 126.351562 60.007812 128.84375 53.023438 132.089844 46.128906 C 133.179688 43.773438 130.167969 30.375 130.167969 30.375 L 148.207031 24.054688 C 148.207031 24.054688 149.019531 26.472656 152.707031 26.472656 Z M 152.707031 26.472656 "/>
<path style=" stroke:none;fill-rule:nonzero;fill:rgb(92.941176%,38.823529%,21.568627%);fill-opacity:1;" d="M 140.546875 29.816406 L 137.117188 27.949219 L 111.996094 35.433594 C 111.996094 35.433594 119.355469 42.230469 122.253906 42.253906 C 123.363281 42.261719 136.542969 42.601562 139.753906 40.347656 C 144.921875 36.71875 140.546875 29.816406 140.546875 29.816406 Z M 140.546875 29.816406 "/>
<path style=" stroke:none;fill-rule:nonzero;fill:rgb(18.431373%,18.039216%,25.490196%);fill-opacity:1;" d="M 150.820312 7.8125 C 152.828125 7.644531 154.847656 7.539062 156.878906 7.496094 C 158.351562 7.460938 159.882812 7.464844 161.210938 7.800781 C 163.214844 8.304688 164.335938 9.445312 165.074219 10.554688 C 165.808594 11.664062 166.328125 12.847656 167.691406 13.773438 C 169.960938 12.519531 170.414062 10.65625 170.753906 8.933594 C 170.988281 7.71875 171.199219 6.425781 170.140625 5.339844 C 169.484375 4.675781 168.40625 4.152344 167.316406 3.671875 C 162.101562 1.378906 155.480469 -0.425781 148.769531 0.0898438 L 148.613281 0.636719 C 147.46875 0.617188 146.320312 0.65625 145.191406 0.75 L 145.429688 2.109375 L 141.863281 2.230469 L 141.726562 3.648438 L 138.121094 3.714844 C 138.191406 4.257812 138.640625 4.769531 139.378906 5.148438 C 138.824219 5.363281 138.195312 5.511719 137.527344 5.59375 C 138.128906 6.824219 138.710938 8.058594 139.332031 9.285156 C 139.792969 10.191406 139.710938 10.988281 141.542969 10.546875 C 142.941406 10.210938 143.886719 9.140625 145.300781 8.699219 C 146.964844 8.179688 148.933594 7.96875 150.820312 7.8125 Z M 150.820312 7.8125 "/>
<path style=" stroke:none;fill-rule:nonzero;fill:rgb(100%,72.54902%,72.54902%);fill-opacity:1;" d="M 195.222656 39.394531 L 195.417969 47.035156 L 191.257812 68.929688 C 191.257812 68.929688 193.503906 80.503906 186.71875 80.882812 C 174.609375 81.558594 183.535156 68.207031 183.535156 68.207031 L 183.734375 55.289062 C 183.734375 55.289062 185.027344 50.171875 182.796875 48.140625 C 180.566406 46.109375 179.011719 41.628906 179.011719 41.628906 Z M 195.222656 39.394531 "/>
<path style=" stroke:none;fill-rule:nonzero;fill:rgb(92.941176%,38.823529%,21.568627%);fill-opacity:1;" d="M 183.855469 27.558594 C 187.265625 27.558594 190.265625 28.75 191.210938 30.484375 C 193.828125 35.28125 198.582031 44.304688 197.378906 44.464844 C 195.742188 44.683594 176.476562 45.332031 176.476562 45.332031 Z M 183.855469 27.558594 "/>
<path style=" stroke:none;fill-rule:nonzero;fill:rgb(92.941176%,38.823529%,21.568627%);fill-opacity:1;" d="M 34.273438 64.335938 L 34.371094 64.347656 C 38.042969 64.816406 40.730469 66.476562 41.035156 68.46875 C 41.339844 70.460938 39.195312 72.328125 35.714844 73.105469 C 35.046875 73.253906 34.347656 73.359375 33.628906 73.414062 C 30.148438 73.695312 26.6875 72.84375 24.851562 71.257812 C 23.011719 69.667969 23.15625 67.652344 25.210938 66.140625 C 27.269531 64.628906 30.839844 63.917969 34.273438 64.335938 Z M 34.273438 64.335938 "/>
<path style=" stroke:none;fill-rule:nonzero;fill:rgb(90.196078%,90.196078%,90.196078%);fill-opacity:1;" d="M 34.273438 64.335938 C 35.121094 67.238281 35.601562 70.167969 35.714844 73.105469 C 35.046875 73.253906 34.347656 73.359375 33.628906 73.414062 C 33.683594 70.332031 33.171875 67.25 32.109375 64.21875 C 32.835938 64.207031 33.5625 64.246094 34.273438 64.335938 Z M 34.273438 64.335938 "/>
<path style=" stroke:none;fill-rule:nonzero;fill:rgb(24.705882%,23.921569%,33.72549%);fill-opacity:1;" d="M 69.082031 65.300781 L 39.082031 65.945312 L 39.925781 71.195312 L 69.742188 68.816406 C 70.84375 68.738281 71.621094 68.207031 71.496094 67.621094 L 71.453125 67.4375 L 72.632812 67.410156 C 72.921875 67.40625 73.195312 67.332031 73.382812 67.214844 C 73.570312 67.09375 73.652344 66.941406 73.613281 66.789062 L 73.605469 66.761719 C 73.523438 66.46875 73.023438 66.265625 72.472656 66.296875 L 71.222656 66.367188 L 71.199219 66.257812 C 71.074219 65.695312 70.152344 65.277344 69.082031 65.300781 Z M 69.082031 65.300781 "/>
<path style=" stroke:none;fill-rule:nonzero;fill:rgb(90.196078%,90.196078%,90.196078%);fill-opacity:1;" d="M 52.464844 68.390625 C 52.402344 68.53125 52.167969 68.632812 51.898438 68.640625 L 49.742188 68.6875 C 49.4375 68.691406 49.171875 68.578125 49.117188 68.421875 L 48.898438 67.792969 C 48.867188 67.703125 48.90625 67.613281 49.007812 67.539062 C 49.113281 67.46875 49.265625 67.421875 49.433594 67.414062 L 51.613281 67.289062 C 51.941406 67.269531 52.238281 67.394531 52.28125 67.566406 L 52.476562 68.269531 C 52.488281 68.3125 52.484375 68.351562 52.464844 68.390625 Z M 49.300781 67.707031 C 49.292969 67.722656 49.292969 67.738281 49.296875 67.753906 L 49.515625 68.382812 C 49.535156 68.4375 49.625 68.472656 49.726562 68.472656 L 51.878906 68.425781 C 51.9375 68.421875 51.992188 68.410156 52.027344 68.386719 C 52.066406 68.363281 52.082031 68.332031 52.074219 68.300781 L 51.878906 67.597656 C 51.863281 67.539062 51.765625 67.496094 51.65625 67.503906 L 49.476562 67.628906 C 49.421875 67.628906 49.371094 67.644531 49.335938 67.667969 C 49.320312 67.679688 49.308594 67.695312 49.300781 67.707031 Z M 49.300781 67.707031 "/>
</g>
</svg>
