<?xml version="1.0" encoding="UTF-8"?>
<svg xmlns="http://www.w3.org/2000/svg" xmlns:xlink="http://www.w3.org/1999/xlink" width="206pt" height="150pt" viewBox="0 0 206 150" version="1.1">
<defs>
<filter id="alpha" filterUnits="objectBoundingBox" x="0%" y="0%" width="100%" height="100%">
  <feColorMatrix type="matrix" in="SourceGraphic" values="0 0 0 0 1 0 0 0 0 1 0 0 0 0 1 0 0 0 1 0"/>
</filter>
<mask id="mask0">
  <g filter="url(#alpha)">
<rect x="0" y="0" width="206" height="150" style="fill:rgb(0%,0%,0%);fill-opacity:0.101961;stroke:none;"/>
  </g>
</mask>
<clipPath id="clip1">
  <rect x="0" y="0" width="206" height="150"/>
</clipPath>
<g id="surface5" clip-path="url(#clip1)">
<path style=" stroke:none;fill-rule:nonzero;fill:rgb(0%,0%,0%);fill-opacity:1;" d="M 144.371094 51.160156 C 146.339844 47.667969 147.628906 43.832031 148.160156 39.855469 C 139.632812 31.601562 127.207031 28.859375 116.019531 32.761719 C 104.828125 36.667969 96.773438 46.550781 95.179688 58.335938 C 100.34375 63.347656 107.066406 66.425781 114.222656 67.054688 C 114.964844 67.121094 115.710938 67.160156 116.464844 67.167969 C 116.644531 67.171875 116.820312 67.175781 117 67.175781 C 128.335938 67.1875 138.792969 61.066406 144.371094 51.160156 Z M 144.371094 51.160156 "/>
</g>
<mask id="mask1">
  <g filter="url(#alpha)">
<rect x="0" y="0" width="206" height="150" style="fill:rgb(0%,0%,0%);fill-opacity:0.101961;stroke:none;"/>
  </g>
</mask>
<clipPath id="clip2">
  <rect x="0" y="0" width="206" height="150"/>
</clipPath>
<g id="surface8" clip-path="url(#clip2)">
<path style=" stroke:none;fill-rule:nonzero;fill:rgb(0%,0%,0%);fill-opacity:1;" d="M 156.234375 74.371094 C 152.269531 83.714844 144.070312 90.578125 134.203125 92.8125 L 141.203125 92.8125 L 141.203125 149.445312 L 94.625 149.445312 L 120.765625 103.988281 L 126.753906 93.574219 L 127.191406 92.8125 L 147.015625 58.339844 Z M 156.234375 74.371094 "/>
</g>
<mask id="mask2">
  <g filter="url(#alpha)">
<rect x="0" y="0" width="206" height="150" style="fill:rgb(0%,0%,0%);fill-opacity:0.101961;stroke:none;"/>
  </g>
</mask>
<clipPath id="clip3">
  <rect x="0" y="0" width="206" height="150"/>
</clipPath>
<g id="surface11" clip-path="url(#clip3)">
<path style=" stroke:none;fill-rule:nonzero;fill:rgb(0%,0%,0%);fill-opacity:1;" d="M 31.292969 143.1875 C 31.292969 143.1875 33.089844 141.082031 33.117188 142.136719 C 33.144531 143.1875 37.089844 146.796875 37.089844 146.796875 C 37.089844 146.796875 43.234375 148.660156 38.480469 149.824219 C 33.726562 150.988281 23.292969 147.609375 22.945312 146.914062 C 22.597656 146.214844 25.84375 140.859375 26.191406 141.324219 C 26.539062 141.789062 28.277344 143.421875 31.292969 143.1875 Z M 31.292969 143.1875 "/>
</g>
<mask id="mask3">
  <g filter="url(#alpha)">
<rect x="0" y="0" width="206" height="150" style="fill:rgb(0%,0%,0%);fill-opacity:0.101961;stroke:none;"/>
  </g>
</mask>
<clipPath id="clip4">
  <rect x="0" y="0" width="206" height="150"/>
</clipPath>
<g id="surface14" clip-path="url(#clip4)">
<path style=" stroke:none;fill-rule:nonzero;fill:rgb(0%,0%,0%);fill-opacity:1;" d="M 35.695312 108.617188 C 35.695312 108.617188 36.394531 114.085938 35.695312 114.902344 C 35 115.714844 35.347656 117.347656 35.695312 117.578125 C 36.046875 117.8125 35.234375 118.742188 34.652344 119.207031 C 34.074219 119.675781 33.261719 121.769531 33.261719 121.769531 C 33.261719 121.769531 30.132812 130.035156 30.132812 130.847656 C 30.132812 131.664062 28.742188 133.410156 28.855469 133.992188 C 28.972656 134.574219 28.046875 136.4375 28.160156 136.785156 C 28.277344 137.132812 26.652344 140.277344 27.117188 140.742188 C 27.582031 141.207031 33.957031 142.839844 33.609375 141.789062 C 33.261719 140.742188 33.03125 139.460938 33.261719 139.460938 C 33.496094 139.460938 34.539062 138.183594 34.304688 137.714844 C 34.074219 137.25 41.261719 125.027344 41.261719 125.027344 Z M 35.695312 108.617188 "/>
</g>
<mask id="mask4">
  <g filter="url(#alpha)">
<rect x="0" y="0" width="206" height="150" style="fill:rgb(0%,0%,0%);fill-opacity:0.101961;stroke:none;"/>
  </g>
</mask>
<clipPath id="clip5">
  <rect x="0" y="0" width="206" height="150"/>
</clipPath>
<g id="surface17" clip-path="url(#clip5)">
<path style=" stroke:none;fill-rule:nonzero;fill:rgb(0%,0%,0%);fill-opacity:1;" d="M 47.175781 85.171875 C 47.175781 85.171875 50.886719 92.386719 50.191406 92.621094 C 49.492188 92.855469 46.710938 94.25 46.710938 94.25 L 45.4375 86.917969 Z M 47.175781 85.171875 "/>
</g>
<mask id="mask5">
  <g filter="url(#alpha)">
<rect x="0" y="0" width="206" height="150" style="fill:rgb(0%,0%,0%);fill-opacity:0.101961;stroke:none;"/>
  </g>
</mask>
<clipPath id="clip6">
  <rect x="0" y="0" width="206" height="150"/>
</clipPath>
<g id="surface20" clip-path="url(#clip6)">
<path style=" stroke:none;fill-rule:nonzero;fill:rgb(0%,0%,0%);fill-opacity:1;" d="M 29.164062 80.703125 C 30.460938 85.402344 33.441406 93.328125 33.609375 93.667969 C 33.652344 93.753906 33.71875 93.925781 33.800781 94.152344 C 35.589844 94.226562 37.851562 94.214844 40.019531 94.164062 C 39.683594 93.28125 39.292969 92.429688 39.292969 92.15625 C 39.292969 91.574219 36.507812 76.558594 36.507812 76.558594 C 36.507812 76.558594 38.710938 69.921875 40.683594 64.335938 C 42.652344 58.746094 34.828125 59.851562 34.828125 59.851562 C 30.652344 58.804688 29.898438 60.609375 29.898438 60.609375 C 29.898438 60.609375 29.53125 70.421875 29.03125 75.070312 C 28.902344 76.261719 28.765625 77.109375 28.625 77.371094 C 28.4375 77.714844 28.691406 78.996094 29.164062 80.703125 Z M 29.164062 80.703125 "/>
</g>
</defs>
<g id="surface1">
<path style=" stroke:none;fill-rule:nonzero;fill:rgb(94.901961%,94.901961%,94.901961%);fill-opacity:1;" d="M 74.050781 41.316406 C 70.175781 45.355469 64.792969 47.585938 59.203125 47.464844 C 53.617188 47.339844 48.335938 44.878906 44.636719 40.671875 L 0 83.09375 L 62.769531 149.671875 L 122.601562 92.8125 Z M 74.050781 41.316406 "/>
<path style=" stroke:none;fill-rule:nonzero;fill:rgb(94.901961%,94.901961%,94.901961%);fill-opacity:1;" d="M 59.605469 43.273438 C 64.363281 43.28125 68.921875 41.335938 72.21875 37.886719 L 59.769531 24.6875 L 46.472656 37.324219 C 49.792969 41.113281 54.578125 43.28125 59.605469 43.273438 Z M 59.605469 43.273438 "/>
<path style=" stroke:none;fill-rule:nonzero;fill:rgb(92.941176%,38.823529%,21.568627%);fill-opacity:1;" d="M 157.589844 62.582031 C 157.601562 70.957031 154.289062 78.992188 148.390625 84.914062 C 142.492188 90.835938 134.488281 94.160156 126.148438 94.152344 C 125.96875 94.152344 125.789062 94.152344 125.609375 94.148438 C 124.855469 94.136719 124.109375 94.097656 123.371094 94.03125 C 106.429688 92.523438 93.753906 77.769531 94.757812 60.726562 C 95.757812 43.683594 110.074219 30.527344 127.074219 31.027344 C 144.070312 31.53125 157.589844 45.511719 157.589844 62.582031 Z M 157.589844 62.582031 "/>
<use xlink:href="#surface5" mask="url(#mask0)"/>
<path style=" stroke:none;fill-rule:nonzero;fill:rgb(18.431373%,18.039216%,25.490196%);fill-opacity:1;" d="M 89.558594 93.386719 L 140.058594 93.386719 L 140.058594 150.019531 L 89.558594 150.019531 Z M 89.558594 93.386719 "/>
<use xlink:href="#surface8" mask="url(#mask1)"/>
<path style=" stroke:none;fill-rule:nonzero;fill:rgb(24.705882%,23.921569%,33.72549%);fill-opacity:1;" d="M 153.496094 58.722656 L 205.996094 150.019531 L 100.992188 150.019531 L 127.242188 104.371094 Z M 153.496094 58.722656 "/>
<path style=" stroke:none;fill-rule:nonzero;fill:rgb(18.431373%,18.039216%,25.490196%);fill-opacity:1;" d="M 7.046875 149.636719 L 205.996094 149.636719 L 205.996094 150.019531 L 7.046875 150.019531 Z M 7.046875 149.636719 "/>
<path style=" stroke:none;fill-rule:nonzero;fill:rgb(62.352941%,38.039216%,41.568627%);fill-opacity:1;" d="M 32.683594 140.976562 L 32.335938 143.886719 L 30.363281 144.816406 L 28.160156 144.117188 L 26.652344 144.816406 L 26.191406 142.140625 L 28.855469 139.113281 Z M 32.683594 140.976562 "/>
<path style=" stroke:none;fill-rule:nonzero;fill:rgb(18.431373%,18.039216%,25.490196%);fill-opacity:1;" d="M 31.292969 143.1875 C 31.292969 143.1875 33.089844 141.082031 33.117188 142.136719 C 33.144531 143.1875 37.089844 146.796875 37.089844 146.796875 C 37.089844 146.796875 43.234375 148.660156 38.480469 149.824219 C 33.726562 150.988281 23.292969 147.609375 22.945312 146.914062 C 22.597656 146.214844 25.84375 140.859375 26.191406 141.324219 C 26.539062 141.789062 28.277344 143.421875 31.292969 143.1875 Z M 31.292969 143.1875 "/>
<path style=" stroke:none;fill-rule:nonzero;fill:rgb(18.431373%,18.039216%,25.490196%);fill-opacity:1;" d="M 35.695312 108.617188 C 35.695312 108.617188 36.394531 114.085938 35.695312 114.902344 C 35 115.714844 35.347656 117.347656 35.695312 117.578125 C 36.046875 117.8125 35.234375 118.742188 34.652344 119.207031 C 34.074219 119.675781 33.261719 121.769531 33.261719 121.769531 C 33.261719 121.769531 30.132812 130.035156 30.132812 130.847656 C 30.132812 131.664062 28.742188 133.410156 28.855469 133.992188 C 28.972656 134.574219 28.046875 136.4375 28.160156 136.785156 C 28.277344 137.132812 26.652344 140.277344 27.117188 140.742188 C 27.582031 141.207031 33.957031 142.839844 33.609375 141.789062 C 33.261719 140.742188 33.03125 139.460938 33.261719 139.460938 C 33.496094 139.460938 34.539062 138.183594 34.304688 137.714844 C 34.074219 137.25 41.261719 125.027344 41.261719 125.027344 Z M 35.695312 108.617188 "/>
<use xlink:href="#surface11" mask="url(#mask2)"/>
<use xlink:href="#surface14" mask="url(#mask3)"/>
<path style=" stroke:none;fill-rule:nonzero;fill:rgb(62.352941%,38.039216%,41.568627%);fill-opacity:1;" d="M 47.523438 139.53125 L 48.796875 142.789062 L 48.21875 147.328125 L 44.507812 147.097656 L 42.421875 145.234375 L 42.421875 141.277344 Z M 47.523438 139.53125 "/>
<path style=" stroke:none;fill-rule:nonzero;fill:rgb(18.431373%,18.039216%,25.490196%);fill-opacity:1;" d="M 46.828125 143.488281 C 46.828125 143.488281 48.101562 139.296875 48.796875 140.460938 C 49.238281 141.210938 49.625 141.988281 49.957031 142.789062 C 49.957031 142.789062 55.636719 146.515625 57.144531 146.515625 C 58.652344 146.515625 60.042969 148.378906 58.074219 149.074219 C 56.101562 149.773438 41.03125 150.707031 40.796875 149.074219 C 40.566406 147.445312 41.03125 142.207031 41.726562 142.789062 C 42.421875 143.371094 46.015625 144.652344 46.828125 143.488281 Z M 46.828125 143.488281 "/>
<path style=" stroke:none;fill-rule:nonzero;fill:rgb(62.352941%,38.039216%,41.568627%);fill-opacity:1;" d="M 49.726562 91.921875 C 49.726562 91.921875 54.835938 95.410156 55.066406 95.875 C 55.300781 96.339844 58.265625 97.773438 55.828125 98.9375 C 53.394531 100.101562 46.941406 92.738281 46.941406 92.738281 Z M 49.726562 91.921875 "/>
<path style=" stroke:none;fill-rule:nonzero;fill:rgb(34.117647%,35.294118%,53.333333%);fill-opacity:1;" d="M 47.175781 85.171875 C 47.175781 85.171875 50.886719 92.386719 50.191406 92.621094 C 49.492188 92.855469 46.710938 94.25 46.710938 94.25 L 45.4375 86.917969 Z M 47.175781 85.171875 "/>
<use xlink:href="#surface17" mask="url(#mask4)"/>
<path style=" stroke:none;fill-rule:nonzero;fill:rgb(18.431373%,18.039216%,25.490196%);fill-opacity:1;" d="M 46.941406 91.222656 C 46.941406 91.222656 47.753906 97.277344 47.40625 98.558594 C 47.058594 99.835938 47.640625 119.042969 47.175781 120.089844 C 46.710938 121.140625 46.363281 127.890625 46.363281 128.707031 C 46.363281 129.519531 47.289062 136.15625 47.523438 136.738281 C 47.753906 137.320312 48.449219 139.296875 48.101562 140.230469 C 47.753906 141.160156 43 143.488281 42.304688 142.671875 C 41.609375 141.859375 42.191406 139.296875 41.609375 139.183594 C 41.03125 139.066406 40.335938 133.59375 40.335938 133.59375 L 36.507812 112.175781 C 36.507812 112.175781 29.320312 94.25 30.945312 92.503906 C 32.566406 90.757812 46.941406 91.222656 46.941406 91.222656 Z M 46.941406 91.222656 "/>
<path style=" stroke:none;fill-rule:nonzero;fill:rgb(62.352941%,38.039216%,41.568627%);fill-opacity:1;" d="M 48.335938 44.199219 C 48.335938 47.347656 45.789062 49.902344 42.652344 49.902344 C 39.515625 49.902344 36.972656 47.347656 36.972656 44.199219 C 36.972656 41.046875 39.515625 38.492188 42.652344 38.492188 C 45.789062 38.492188 48.335938 41.046875 48.335938 44.199219 Z M 48.335938 44.199219 "/>
<path style=" stroke:none;fill-rule:nonzero;fill:rgb(62.352941%,38.039216%,41.568627%);fill-opacity:1;" d="M 44.742188 48.851562 C 44.742188 48.851562 42.886719 53.742188 43.117188 54.789062 C 43.347656 55.835938 37.667969 52.925781 37.667969 52.925781 C 37.667969 52.925781 38.015625 47.222656 37.667969 45.710938 C 37.320312 44.199219 44.742188 48.851562 44.742188 48.851562 Z M 44.742188 48.851562 "/>
<path style=" stroke:none;fill-rule:nonzero;fill:rgb(34.117647%,35.294118%,53.333333%);fill-opacity:1;" d="M 29.164062 80.703125 C 29.1875 81.679688 29.203125 82.261719 29.203125 82.261719 C 29.203125 82.261719 28.855469 87.617188 29.4375 89.363281 C 30.015625 91.109375 30.015625 92.386719 30.363281 93.550781 C 30.464844 93.890625 31.855469 94.074219 33.800781 94.152344 C 35.589844 94.226562 37.851562 94.214844 40.019531 94.164062 C 43.609375 94.082031 46.960938 93.886719 47.523438 93.785156 C 48.796875 93.550781 47.289062 91.574219 47.753906 90.527344 C 48.21875 89.476562 46.941406 76.089844 46.941406 76.089844 C 46.941406 76.089844 47.058594 68.527344 46.480469 65.617188 C 45.898438 62.707031 43.695312 58.050781 43.234375 57.46875 C 42.769531 56.886719 43.117188 56.535156 44.160156 55.835938 C 45.203125 55.140625 44.160156 52.460938 44.160156 52.460938 C 42.191406 50.832031 37.203125 50.597656 37.203125 50.597656 C 37.203125 50.597656 29.550781 58.515625 29.089844 60.144531 C 28.808594 61.128906 28.910156 68.996094 29.03125 75.070312 C 29.078125 77.355469 29.128906 79.386719 29.164062 80.703125 Z M 29.164062 80.703125 "/>
<path style=" stroke:none;fill-rule:nonzero;fill:rgb(62.352941%,38.039216%,41.568627%);fill-opacity:1;" d="M 38.945312 95.179688 C 38.945312 95.179688 43.347656 104.261719 39.871094 104.84375 C 36.394531 105.425781 34.652344 96.578125 34.652344 96.578125 Z M 38.945312 95.179688 "/>
<path style=" stroke:none;fill-rule:nonzero;fill:rgb(18.431373%,18.039216%,25.490196%);fill-opacity:1;" d="M 47.964844 41.304688 C 48.167969 40.328125 47.421875 39.414062 46.636719 38.800781 C 44.929688 37.46875 42.828125 36.75 40.667969 36.753906 C 39.144531 36.761719 37.578125 37.167969 36.429688 38.167969 C 35.085938 39.332031 34.476562 41.203125 34.589844 42.980469 C 34.699219 44.753906 35.472656 46.441406 36.507812 47.882812 C 37.007812 48.578125 37.808594 49.292969 38.605469 48.992188 C 38.914062 48.847656 39.183594 48.621094 39.378906 48.335938 C 39.890625 47.699219 40.335938 47.011719 40.707031 46.285156 C 40.992188 45.730469 41.238281 45.144531 41.644531 44.667969 C 42.046875 44.191406 42.652344 43.835938 43.269531 43.917969 C 43.78125 43.988281 44.28125 44.351562 44.765625 44.179688 C 45.308594 43.992188 45.4375 43.296875 45.480469 42.726562 C 45.527344 42.097656 45.496094 41.371094 45.667969 40.777344 C 45.859375 40.878906 47.871094 41.773438 47.964844 41.304688 Z M 47.964844 41.304688 "/>
<use xlink:href="#surface20" mask="url(#mask5)"/>
<path style=" stroke:none;fill-rule:nonzero;fill:rgb(34.117647%,35.294118%,53.333333%);fill-opacity:1;" d="M 36.507812 56.070312 C 36.507812 56.070312 41.84375 58.28125 39.871094 63.871094 C 37.898438 69.457031 35.695312 76.089844 35.695312 76.089844 C 35.695312 76.089844 38.480469 91.109375 38.480469 91.691406 C 38.480469 92.273438 40.21875 95.414062 39.523438 95.996094 C 38.828125 96.578125 34.191406 97.742188 34.074219 97.160156 C 33.957031 96.578125 33.03125 93.667969 32.796875 93.203125 C 32.566406 92.738281 27.117188 78.1875 27.8125 76.90625 C 28.324219 75.964844 28.773438 67.332031 28.976562 62.835938 C 29.070312 60.230469 30.527344 57.863281 32.8125 56.617188 C 33.894531 56.042969 35.152344 55.730469 36.507812 56.070312 Z M 36.507812 56.070312 "/>
<path style=" stroke:none;fill-rule:nonzero;fill:rgb(92.941176%,38.823529%,21.568627%);fill-opacity:1;" d="M 51.066406 90.132812 L 57.925781 90.132812 L 57.925781 97.023438 L 51.066406 97.023438 Z M 51.066406 90.132812 "/>
<path style=" stroke:none;fill-rule:nonzero;fill:rgb(24.705882%,23.921569%,33.72549%);fill-opacity:1;" d="M 56.59375 88.03125 C 56.59375 89.191406 55.652344 90.132812 54.496094 90.132812 C 53.339844 90.132812 52.398438 89.191406 52.398438 88.03125 C 52.398438 86.867188 53.339844 85.925781 54.496094 85.925781 C 55.652344 85.925781 56.59375 86.867188 56.59375 88.03125 Z M 56.59375 88.03125 "/>
<path style=" stroke:none;fill-rule:nonzero;fill:rgb(100%,39.607843%,51.764706%);fill-opacity:1;" d="M 145.863281 10.71875 C 145.863281 16.457031 141.230469 21.109375 135.515625 21.109375 C 129.796875 21.109375 125.164062 16.457031 125.164062 10.71875 C 125.164062 4.976562 129.796875 0.324219 135.515625 0.324219 C 141.230469 0.324219 145.863281 4.976562 145.863281 10.71875 Z M 145.863281 10.71875 "/>
<path style=" stroke:none;fill-rule:nonzero;fill:rgb(94.901961%,94.901961%,94.901961%);fill-opacity:1;" d="M 135.484375 17.816406 C 135.484375 25.65625 130.84375 28.394531 125.117188 28.394531 C 119.390625 28.394531 114.746094 25.65625 114.746094 17.816406 C 114.746094 9.972656 125.117188 0 125.117188 0 C 125.117188 0 135.484375 9.972656 135.484375 17.816406 Z M 135.484375 17.816406 "/>
<path style=" stroke:none;fill-rule:nonzero;fill:rgb(24.705882%,23.921569%,33.72549%);fill-opacity:1;" d="M 124.738281 27.195312 L 124.84375 20.632812 L 129.265625 12.515625 L 124.863281 19.601562 L 124.910156 16.652344 L 127.957031 10.777344 L 124.921875 15.871094 L 125.007812 10.566406 L 128.269531 5.890625 L 125.019531 9.730469 L 125.074219 0 L 124.738281 12.882812 L 124.765625 12.351562 L 121.449219 7.253906 L 124.710938 13.371094 L 124.402344 19.296875 L 124.394531 19.140625 L 120.570312 13.777344 L 124.382812 19.695312 L 124.34375 20.4375 L 124.335938 20.449219 L 124.339844 20.507812 L 123.554688 35.542969 L 124.601562 35.542969 L 124.730469 27.777344 L 128.53125 21.875 Z M 124.738281 27.195312 "/>
<path style=" stroke:none;fill-rule:nonzero;fill:rgb(94.901961%,94.901961%,94.901961%);fill-opacity:1;" d="M 160.472656 29.535156 C 157.996094 36.96875 152.726562 38.085938 147.296875 36.261719 C 141.863281 34.4375 138.328125 30.363281 140.804688 22.929688 C 143.28125 15.492188 156.269531 9.335938 156.269531 9.335938 C 156.269531 9.335938 162.949219 22.097656 160.472656 29.535156 Z M 160.472656 29.535156 "/>
<path style=" stroke:none;fill-rule:nonzero;fill:rgb(24.705882%,23.921569%,33.72549%);fill-opacity:1;" d="M 147.316406 35.003906 L 149.492188 28.816406 L 156.246094 22.527344 L 149.832031 27.84375 L 150.808594 25.0625 L 155.554688 20.464844 L 151.066406 24.328125 L 152.828125 19.320312 L 157.398438 15.925781 L 153.101562 18.535156 L 156.230469 9.324219 L 151.839844 21.433594 L 152.03125 20.9375 L 150.5 15.046875 L 151.660156 21.886719 L 149.492188 27.410156 L 149.535156 27.257812 L 147.605469 20.953125 L 149.347656 27.78125 L 149.078125 28.472656 L 149.066406 28.480469 L 149.050781 28.539062 L 143.554688 42.546875 L 144.550781 42.882812 L 147.121094 35.554688 L 152.59375 31.167969 Z M 147.316406 35.003906 "/>
<path style=" stroke:none;fill-rule:nonzero;fill:rgb(94.901961%,94.901961%,94.901961%);fill-opacity:1;" d="M 109 23.550781 C 111.808594 30.867188 108.457031 35.097656 103.113281 37.167969 C 97.769531 39.234375 92.457031 38.355469 89.648438 31.039062 C 86.839844 23.722656 92.945312 10.671875 92.945312 10.671875 C 92.945312 10.671875 106.191406 16.234375 109 23.550781 Z M 109 23.550781 "/>
<path style=" stroke:none;fill-rule:nonzero;fill:rgb(24.705882%,23.921569%,33.72549%);fill-opacity:1;" d="M 102.332031 36.183594 L 100.082031 30.023438 L 101.296875 20.851562 L 99.726562 29.054688 L 98.714844 26.285156 L 99.453125 19.707031 L 98.449219 25.550781 L 96.625 20.570312 L 97.996094 15.027344 L 96.339844 19.785156 L 92.90625 10.6875 L 97.203125 22.828125 L 97.039062 22.324219 L 92.121094 18.765625 L 97.355469 23.292969 L 99.191406 28.9375 L 99.125 28.792969 L 93.636719 25.167969 L 99.3125 29.316406 L 99.542969 30.019531 L 99.539062 30.035156 L 99.566406 30.089844 L 104.21875 44.402344 L 105.199219 44.023438 L 102.53125 36.730469 L 103.964844 29.851562 Z M 102.332031 36.183594 "/>
<path style=" stroke:none;fill-rule:nonzero;fill:rgb(92.941176%,38.823529%,21.568627%);fill-opacity:1;" d="M 86.976562 85.714844 C 86.335938 86.742188 85.503906 86.71875 84.75 86.246094 C 84 85.773438 83.613281 85.03125 84.257812 84 C 84.898438 82.972656 87.078125 82.519531 87.078125 82.519531 C 87.078125 82.519531 87.621094 84.6875 86.976562 85.714844 Z M 86.976562 85.714844 "/>
<path style=" stroke:none;fill-rule:nonzero;fill:rgb(92.941176%,38.823529%,21.568627%);fill-opacity:1;" d="M 163.609375 54.875 C 163.730469 56.082031 163.054688 56.578125 162.171875 56.664062 C 161.289062 56.75 160.53125 56.398438 160.414062 55.191406 C 160.292969 53.984375 161.742188 52.285156 161.742188 52.285156 C 161.742188 52.285156 163.492188 53.664062 163.609375 54.875 Z M 163.609375 54.875 "/>
<path style=" stroke:none;fill-rule:nonzero;fill:rgb(92.941176%,38.823529%,21.568627%);fill-opacity:1;" d="M 83.558594 63.800781 C 82.917969 64.828125 82.085938 64.804688 81.332031 64.332031 C 80.582031 63.859375 80.195312 63.113281 80.839844 62.085938 C 81.480469 61.058594 83.660156 60.605469 83.660156 60.605469 C 83.660156 60.605469 84.203125 62.769531 83.558594 63.800781 Z M 83.558594 63.800781 "/>
</g>
</svg>
