<?xml version="1.0" encoding="UTF-8"?>
<svg xmlns="http://www.w3.org/2000/svg" xmlns:xlink="http://www.w3.org/1999/xlink" width="200pt" height="150pt" viewBox="0 0 200 150" version="1.1">
<g id="surface1">
<path style=" stroke:none;fill-rule:nonzero;fill:rgb(94.901961%,94.901961%,94.901961%);fill-opacity:1;" d="M 116.117188 146.671875 C 114.628906 147.8125 113.019531 148.75 111.316406 149.472656 C 110.871094 149.660156 110.421875 149.839844 109.96875 150 L 86.71875 150 C 86.625 149.824219 86.53125 149.648438 86.4375 149.472656 C 84.550781 145.863281 82.839844 142.113281 82.355469 138.035156 C 81.773438 133.144531 83.40625 127.601562 87.4375 125.195312 C 87.964844 124.882812 88.527344 124.628906 89.105469 124.449219 C 89.347656 124.371094 89.589844 124.308594 89.839844 124.25 C 92.917969 123.519531 96.121094 124.625 98.226562 127.136719 C 100.328125 129.644531 100.996094 133.175781 99.976562 136.363281 C 103.394531 132.617188 102.753906 126.542969 101.578125 121.464844 C 100.394531 116.390625 98.964844 110.738281 101.367188 106.175781 C 102.703125 103.640625 105.050781 102.066406 107.6875 101.429688 C 107.765625 101.414062 107.847656 101.394531 107.929688 101.378906 C 111.066406 100.699219 114.332031 101.308594 117.070312 103.089844 C 122.109375 106.480469 124.695312 112.917969 125.535156 119.21875 C 126.886719 129.363281 123.894531 140.679688 116.117188 146.671875 Z M 116.117188 146.671875 "/>
<path style=" stroke:none;fill-rule:nonzero;fill:rgb(100%,100%,100%);fill-opacity:1;" d="M 91.664062 127.484375 C 93.523438 131.523438 94.117188 136.097656 93.355469 140.523438 C 92.78125 143.769531 91.515625 146.832031 89.652344 149.472656 C 89.527344 149.652344 89.398438 149.828125 89.265625 150 L 88.347656 150 C 88.488281 149.828125 88.628906 149.652344 88.761719 149.472656 C 92.179688 144.917969 93.613281 139.023438 92.707031 133.265625 C 92.171875 130.066406 90.9375 127.046875 89.105469 124.449219 C 89.347656 124.371094 89.589844 124.308594 89.839844 124.25 C 90.535156 125.269531 91.148438 126.351562 91.664062 127.484375 Z M 91.664062 127.484375 "/>
<path style=" stroke:none;fill-rule:nonzero;fill:rgb(100%,100%,100%);fill-opacity:1;" d="M 113.90625 130.414062 C 113.707031 132.648438 113.203125 134.84375 112.414062 136.925781 C 111.683594 138.769531 110.703125 140.484375 109.496094 142.015625 C 107.039062 145.175781 103.785156 147.554688 100.253906 149.136719 C 99.996094 149.253906 99.738281 149.363281 99.476562 149.472656 C 99.019531 149.660156 98.558594 149.835938 98.097656 150 L 95.589844 150 C 96.179688 149.839844 96.769531 149.664062 97.351562 149.472656 C 98.734375 149.011719 100.082031 148.441406 101.386719 147.769531 C 104.703125 146.089844 107.585938 143.566406 109.773438 140.417969 C 112.125 136.953125 113.160156 132.785156 113.339844 128.550781 C 113.527344 124.019531 112.976562 119.40625 112.007812 114.996094 C 111.019531 110.472656 109.519531 106.101562 107.535156 101.972656 C 107.441406 101.777344 107.507812 101.539062 107.6875 101.429688 C 107.757812 101.378906 107.84375 101.363281 107.929688 101.378906 C 108.011719 101.402344 108.082031 101.464844 108.117188 101.546875 C 108.363281 102.058594 108.601562 102.570312 108.832031 103.085938 C 110.753906 107.386719 112.167969 111.925781 113.046875 116.597656 C 113.894531 121.105469 114.351562 125.824219 113.90625 130.414062 Z M 113.90625 130.414062 "/>
<path style=" stroke:none;fill-rule:nonzero;fill:rgb(24.705882%,23.921569%,33.72549%);fill-opacity:1;" d="M 10.511719 74.867188 C 4.769531 74.867188 0.117188 69.894531 0.117188 63.757812 C 0.117188 57.621094 4.769531 52.644531 10.511719 52.644531 C 16.253906 52.644531 20.910156 57.621094 20.910156 63.757812 C 20.902344 69.890625 16.25 74.859375 10.511719 74.867188 Z M 10.511719 53.175781 C 5.042969 53.175781 0.609375 57.914062 0.609375 63.757812 C 0.609375 69.601562 5.042969 74.339844 10.511719 74.339844 C 15.980469 74.339844 20.414062 69.601562 20.414062 63.757812 C 20.40625 57.914062 15.976562 53.179688 10.511719 53.175781 Z M 10.511719 53.175781 "/>
<path style=" stroke:none;fill-rule:nonzero;fill:rgb(24.705882%,23.921569%,33.72549%);fill-opacity:1;" d="M 52.589844 39.152344 C 46.851562 39.152344 42.195312 34.179688 42.195312 28.042969 C 42.195312 21.90625 46.851562 16.929688 52.589844 16.929688 C 58.332031 16.929688 62.988281 21.90625 62.988281 28.042969 C 62.980469 34.175781 58.332031 39.148438 52.589844 39.152344 Z M 52.589844 17.460938 C 47.125 17.460938 42.691406 22.199219 42.691406 28.042969 C 42.691406 33.886719 47.125 38.625 52.589844 38.625 C 58.058594 38.625 62.492188 33.886719 62.492188 28.042969 C 62.488281 22.199219 58.058594 17.46875 52.589844 17.460938 Z M 52.589844 17.460938 "/>
<path style=" stroke:none;fill-rule:nonzero;fill:rgb(24.705882%,23.921569%,33.72549%);fill-opacity:1;" d="M 97.640625 22.222656 C 91.898438 22.222656 87.246094 17.246094 87.246094 11.109375 C 87.246094 4.976562 91.898438 0 97.640625 0 C 103.382812 0 108.035156 4.976562 108.035156 11.109375 C 108.03125 17.246094 103.378906 22.214844 97.640625 22.222656 Z M 97.640625 0.527344 C 92.171875 0.527344 87.738281 5.265625 87.738281 11.109375 C 87.738281 16.957031 92.171875 21.691406 97.640625 21.691406 C 103.109375 21.691406 107.542969 16.957031 107.542969 11.109375 C 107.535156 5.269531 103.105469 0.535156 97.640625 0.527344 Z M 97.640625 0.527344 "/>
<path style=" stroke:none;fill-rule:nonzero;fill:rgb(24.705882%,23.921569%,33.72549%);fill-opacity:1;" d="M 145.660156 39.683594 C 139.917969 39.683594 135.265625 34.707031 135.265625 28.570312 C 135.265625 22.433594 139.917969 17.460938 145.660156 17.460938 C 151.402344 17.460938 156.058594 22.433594 156.058594 28.570312 C 156.050781 34.703125 151.398438 39.675781 145.660156 39.683594 Z M 145.660156 17.988281 C 140.191406 17.988281 135.761719 22.726562 135.761719 28.570312 C 135.761719 34.414062 140.191406 39.152344 145.660156 39.152344 C 151.128906 39.152344 155.5625 34.414062 155.5625 28.570312 C 155.554688 22.730469 151.125 17.996094 145.660156 17.988281 Z M 145.660156 17.988281 "/>
<path style=" stroke:none;fill-rule:nonzero;fill:rgb(24.705882%,23.921569%,33.72549%);fill-opacity:1;" d="M 189.71875 66.402344 C 183.980469 66.402344 179.324219 61.425781 179.324219 55.289062 C 179.324219 49.15625 183.980469 44.179688 189.71875 44.179688 C 195.460938 44.179688 200.117188 49.15625 200.117188 55.289062 C 200.109375 61.425781 195.460938 66.394531 189.71875 66.402344 Z M 189.71875 44.710938 C 184.253906 44.710938 179.820312 49.445312 179.820312 55.289062 C 179.820312 61.136719 184.253906 65.871094 189.71875 65.871094 C 195.1875 65.871094 199.621094 61.136719 199.621094 55.289062 C 199.613281 49.449219 195.1875 44.714844 189.71875 44.710938 Z M 189.71875 44.710938 "/>
<path style=" stroke:none;fill-rule:nonzero;fill:rgb(24.705882%,23.921569%,33.72549%);fill-opacity:1;" d="M 58.53125 25 L 59.769531 24.734375 C 59.769531 24.734375 58.730469 25.976562 58.53125 26.058594 C 58.511719 26.320312 58.511719 26.585938 58.53125 26.851562 C 56.15625 37.75 47.394531 32.9375 47.394531 32.9375 C 50.585938 33.015625 50.859375 31.613281 50.859375 31.613281 C 49.003906 31.320312 48.632812 30.027344 48.632812 30.027344 C 48.976562 30.21875 49.402344 30.105469 49.621094 29.761719 C 47.617188 29.207031 47.886719 27.117188 47.886719 27.117188 C 48.246094 27.390625 48.664062 27.566406 49.101562 27.617188 C 48.878906 27.328125 46.996094 24.921875 48.136719 23.675781 C 48.136719 23.675781 49.523438 26.320312 53.160156 26.558594 L 53.410156 26.507812 C 53.367188 26.316406 53.347656 26.121094 53.359375 25.925781 C 53.359375 24.390625 54.523438 23.148438 55.957031 23.148438 C 57.691406 23.148438 58.0625 24.207031 58.0625 24.207031 L 59.300781 23.410156 C 59.273438 23.410156 59.152344 24.734375 58.53125 25 Z M 58.53125 25 "/>
<path style=" stroke:none;fill-rule:nonzero;fill:rgb(100%,72.156863%,72.156863%);fill-opacity:1;" d="M 137.574219 142.761719 L 140.300781 144.1875 L 146.746094 133.632812 L 142.726562 131.527344 Z M 137.574219 142.761719 "/>
<path style=" stroke:none;fill-rule:nonzero;fill:rgb(18.431373%,18.039216%,25.490196%);fill-opacity:1;" d="M 137.316406 141.445312 L 142.679688 144.257812 C 144.570312 145.246094 145.351562 147.683594 144.425781 149.703125 L 144.371094 149.820312 L 135.585938 145.21875 Z M 137.316406 141.445312 "/>
<path style=" stroke:none;fill-rule:nonzero;fill:rgb(100%,72.156863%,72.156863%);fill-opacity:1;" d="M 164.578125 147.734375 L 167.613281 147.734375 L 169.054688 135.226562 L 164.578125 135.226562 Z M 164.578125 147.734375 "/>
<path style=" stroke:none;fill-rule:nonzero;fill:rgb(18.431373%,18.039216%,25.490196%);fill-opacity:1;" d="M 163.804688 145.621094 L 169.78125 145.617188 C 171.882812 145.617188 173.589844 147.441406 173.589844 149.6875 L 173.589844 149.820312 L 163.804688 149.820312 Z M 163.804688 145.621094 "/>
<path style=" stroke:none;fill-rule:nonzero;fill:rgb(100%,72.156863%,72.156863%);fill-opacity:1;" d="M 164.136719 54.902344 C 164.136719 58.488281 161.417969 61.398438 158.058594 61.398438 C 154.703125 61.398438 151.980469 58.488281 151.980469 54.902344 C 151.980469 51.3125 154.703125 48.402344 158.058594 48.402344 C 161.417969 48.402344 164.136719 51.3125 164.136719 54.902344 Z M 164.136719 54.902344 "/>
<path style=" stroke:none;fill-rule:nonzero;fill:rgb(18.431373%,18.039216%,25.490196%);fill-opacity:1;" d="M 164.113281 143.609375 C 163.515625 143.609375 163.027344 143.109375 163 142.472656 L 160.652344 109.042969 C 160.644531 108.863281 160.527344 108.707031 160.363281 108.667969 C 160.199219 108.628906 160.03125 108.710938 159.953125 108.871094 L 144.917969 139.542969 C 144.636719 140.117188 143.976562 140.34375 143.433594 140.054688 L 139.242188 137.816406 C 138.695312 137.523438 138.472656 136.8125 138.742188 136.226562 L 147.710938 116.800781 L 153.652344 102.246094 C 155.949219 97.417969 158.382812 94.929688 161.097656 94.640625 C 163.886719 94.34375 166.863281 96.390625 170.199219 100.902344 L 170.226562 100.9375 L 170.226562 100.984375 L 169.730469 141.820312 C 169.730469 142.4375 169.292969 142.949219 168.71875 143.003906 L 164.222656 143.605469 C 164.183594 143.609375 164.148438 143.609375 164.113281 143.609375 Z M 164.113281 143.609375 "/>
<path style=" stroke:none;fill-rule:nonzero;fill:rgb(100%,72.156863%,72.156863%);fill-opacity:1;" d="M 151.644531 104.597656 C 152.3125 104.15625 152.765625 103.417969 152.878906 102.585938 C 152.992188 101.753906 152.753906 100.910156 152.230469 100.285156 L 153.144531 74.398438 L 148.691406 74.992188 L 148.316406 100.175781 C 147.367188 101.210938 147.292969 102.839844 148.140625 103.964844 C 148.988281 105.09375 150.496094 105.367188 151.644531 104.597656 Z M 151.644531 104.597656 "/>
<path style=" stroke:none;fill-rule:nonzero;fill:rgb(92.941176%,38.823529%,21.568627%);fill-opacity:1;" d="M 154.460938 78.972656 L 148.476562 78.246094 C 148.132812 78.207031 147.824219 78.003906 147.628906 77.699219 C 147.433594 77.394531 147.371094 77.011719 147.460938 76.652344 L 149.003906 70.453125 C 149.222656 68.515625 150.863281 67.132812 152.675781 67.359375 C 154.488281 67.582031 155.789062 69.335938 155.582031 71.273438 L 155.789062 77.664062 C 155.800781 78.035156 155.660156 78.390625 155.40625 78.644531 C 155.148438 78.894531 154.804688 79.015625 154.460938 78.972656 Z M 154.460938 78.972656 "/>
<path style=" stroke:none;fill-rule:nonzero;fill:rgb(100%,72.156863%,72.156863%);fill-opacity:1;" d="M 180.234375 62.679688 C 180.203125 62.820312 180.183594 62.964844 180.175781 63.113281 L 169.542969 69.667969 L 166.957031 68.078125 L 164.203125 71.933594 L 168.523438 75.222656 C 169.238281 75.769531 170.207031 75.742188 170.898438 75.160156 L 181.863281 65.917969 C 182.875 66.316406 184.015625 66.007812 184.722656 65.136719 C 185.433594 64.265625 185.566406 63.015625 185.054688 61.996094 C 184.542969 60.980469 183.496094 60.40625 182.425781 60.558594 C 181.351562 60.710938 180.480469 61.554688 180.234375 62.679688 Z M 180.234375 62.679688 "/>
<path style=" stroke:none;fill-rule:nonzero;fill:rgb(92.941176%,38.823529%,21.568627%);fill-opacity:1;" d="M 169.1875 69.976562 L 165.75 74.738281 C 165.554688 75.011719 165.253906 75.179688 164.929688 75.199219 C 164.605469 75.21875 164.292969 75.085938 164.066406 74.835938 L 160.175781 70.519531 C 158.832031 69.398438 158.589844 67.324219 159.632812 65.886719 C 160.679688 64.445312 162.621094 64.179688 163.96875 65.296875 L 168.847656 68.210938 C 169.132812 68.382812 169.332031 68.671875 169.398438 69.011719 C 169.460938 69.351562 169.386719 69.703125 169.1875 69.976562 Z M 169.1875 69.976562 "/>
<path style=" stroke:none;fill-rule:nonzero;fill:rgb(92.941176%,38.823529%,21.568627%);fill-opacity:1;" d="M 171.992188 102.925781 L 165.394531 68.582031 C 164.742188 65.1875 161.695312 62.953125 158.5 63.523438 L 156.300781 63.914062 C 154.753906 64.191406 153.378906 65.109375 152.46875 66.46875 C 151.019531 68.640625 150.566406 71.390625 151.238281 73.960938 L 154.878906 87.890625 L 152.175781 102.8125 C 152.113281 103.148438 152.210938 103.496094 152.429688 103.742188 C 152.648438 103.992188 152.96875 104.109375 153.285156 104.0625 C 154.640625 103.855469 156.871094 103.558594 159.429688 103.398438 L 160.820312 97.675781 L 161.382812 103.308594 C 164.53125 103.214844 167.945312 103.378906 170.761719 104.160156 C 171.09375 104.253906 171.449219 104.160156 171.699219 103.910156 C 171.949219 103.65625 172.058594 103.285156 171.992188 102.925781 Z M 171.992188 102.925781 "/>
<path style=" stroke:none;fill-rule:nonzero;fill:rgb(18.431373%,18.039216%,25.490196%);fill-opacity:1;" d="M 160.398438 53.457031 C 161.960938 54.597656 164.011719 55.773438 165.609375 54.558594 C 166.65625 53.757812 166.988281 52.277344 166.5625 50.980469 C 165.796875 48.644531 163.699219 47.613281 161.691406 46.828125 C 159.082031 45.800781 156.238281 44.988281 153.542969 45.722656 C 150.847656 46.453125 148.46875 49.242188 148.953125 52.167969 C 149.347656 54.523438 151.421875 56.480469 151.128906 58.847656 C 150.832031 61.234375 148.324219 62.488281 146.109375 62.914062 C 143.894531 63.339844 141.414062 63.476562 139.824219 65.175781 C 137.792969 67.347656 138.300781 71.222656 140.210938 73.511719 C 142.121094 75.804688 145.003906 76.839844 147.796875 77.546875 C 151.5 78.480469 155.503906 78.972656 159.019531 77.421875 C 162.535156 75.871094 165.269531 71.691406 164.25 67.777344 C 163.820312 66.121094 162.808594 64.722656 161.828125 63.363281 C 160.847656 62 159.855469 60.578125 159.484375 58.90625 C 159.171875 57.515625 159.402344 55.898438 160.265625 54.855469 C 160.589844 54.480469 160.648438 53.925781 160.414062 53.484375 Z M 160.398438 53.457031 "/>
<path style=" stroke:none;fill-rule:nonzero;fill:rgb(24.705882%,23.921569%,33.72549%);fill-opacity:1;" d="M 100.472656 5.613281 C 101.914062 5.617188 103.082031 6.867188 103.085938 8.40625 L 103.085938 13.992188 C 103.082031 15.535156 101.914062 16.78125 100.472656 16.785156 L 95.246094 16.785156 C 93.804688 16.78125 92.636719 15.535156 92.632812 13.992188 L 92.632812 8.40625 C 92.636719 6.867188 93.804688 5.617188 95.246094 5.613281 L 100.472656 5.613281 M 100.472656 4.496094 L 95.246094 4.496094 C 93.226562 4.503906 91.59375 6.25 91.585938 8.40625 L 91.585938 13.992188 C 91.59375 16.152344 93.226562 17.898438 95.246094 17.902344 L 100.472656 17.902344 C 102.492188 17.898438 104.125 16.152344 104.132812 13.992188 L 104.132812 8.40625 C 104.125 6.25 102.492188 4.503906 100.472656 4.496094 Z M 100.472656 4.496094 "/>
<path style=" stroke:none;fill-rule:nonzero;fill:rgb(24.705882%,23.921569%,33.72549%);fill-opacity:1;" d="M 101.257812 8.40625 C 100.824219 8.40625 100.476562 8.03125 100.476562 7.570312 C 100.476562 7.109375 100.828125 6.734375 101.257812 6.734375 C 101.691406 6.734375 102.039062 7.109375 102.039062 7.570312 C 102.039062 8.03125 101.691406 8.40625 101.261719 8.40625 C 101.257812 8.40625 101.257812 8.40625 101.257812 8.40625 Z M 101.257812 8.40625 "/>
<path style=" stroke:none;fill-rule:nonzero;fill:rgb(24.705882%,23.921569%,33.72549%);fill-opacity:1;" d="M 97.859375 8.964844 C 99.015625 8.964844 99.949219 9.964844 99.949219 11.199219 C 99.949219 12.433594 99.015625 13.433594 97.859375 13.433594 C 96.703125 13.433594 95.769531 12.433594 95.769531 11.199219 C 95.769531 9.964844 96.703125 8.964844 97.859375 8.964844 M 97.859375 7.847656 C 96.128906 7.847656 94.722656 9.347656 94.722656 11.199219 C 94.722656 13.050781 96.128906 14.550781 97.859375 14.550781 C 99.589844 14.550781 100.996094 13.050781 100.996094 11.199219 C 100.996094 9.351562 99.589844 7.847656 97.859375 7.847656 Z M 97.859375 7.847656 "/>
<path style=" stroke:none;fill-rule:nonzero;fill:rgb(100%,72.156863%,72.156863%);fill-opacity:1;" d="M 40.386719 146.488281 L 37.433594 145.746094 L 38.710938 133.214844 L 43.074219 134.3125 Z M 40.386719 146.488281 "/>
<path style=" stroke:none;fill-rule:nonzero;fill:rgb(18.431373%,18.039216%,25.490196%);fill-opacity:1;" d="M 40.46875 149.738281 L 30.941406 147.339844 L 30.972656 147.210938 C 31.453125 145.023438 33.503906 143.667969 35.550781 144.183594 L 41.367188 145.648438 Z M 40.46875 149.738281 "/>
<path style=" stroke:none;fill-rule:nonzero;fill:rgb(100%,72.156863%,72.156863%);fill-opacity:1;" d="M 51.898438 146.59375 L 48.863281 146.59375 L 47.421875 134.085938 L 51.898438 134.085938 Z M 51.898438 146.59375 "/>
<path style=" stroke:none;fill-rule:nonzero;fill:rgb(18.431373%,18.039216%,25.490196%);fill-opacity:1;" d="M 52.671875 149.738281 L 42.886719 149.738281 L 42.886719 149.605469 C 42.886719 147.359375 44.59375 145.535156 46.695312 145.535156 L 52.671875 145.535156 Z M 52.671875 149.738281 "/>
<path style=" stroke:none;fill-rule:nonzero;fill:rgb(100%,72.156863%,72.156863%);fill-opacity:1;" d="M 68.289062 97.121094 C 68.699219 96.402344 68.792969 95.527344 68.542969 94.730469 C 68.292969 93.933594 67.726562 93.296875 66.992188 92.988281 L 58.109375 68.910156 L 53.164062 72.117188 L 63.453125 94.777344 C 63.042969 96.15625 63.664062 97.648438 64.894531 98.246094 C 66.128906 98.84375 67.585938 98.359375 68.289062 97.121094 Z M 68.289062 97.121094 "/>
<path style=" stroke:none;fill-rule:nonzero;fill:rgb(92.941176%,38.823529%,21.568627%);fill-opacity:1;" d="M 59.996094 72.890625 L 54.347656 75.125 C 54.023438 75.253906 53.660156 75.226562 53.359375 75.046875 C 53.054688 74.867188 52.839844 74.554688 52.769531 74.191406 L 51.53125 67.914062 C 50.90625 66.082031 51.789062 64.054688 53.503906 63.382812 C 55.214844 62.710938 57.117188 63.648438 57.75 65.476562 L 60.628906 71.082031 C 60.792969 71.40625 60.820312 71.792969 60.699219 72.140625 C 60.578125 72.488281 60.320312 72.761719 59.996094 72.890625 Z M 59.996094 72.890625 "/>
<path style=" stroke:none;fill-rule:nonzero;fill:rgb(18.431373%,18.039216%,25.490196%);fill-opacity:1;" d="M 51.695312 142.105469 C 51.683594 142.105469 51.667969 142.105469 51.652344 142.105469 L 47.351562 141.917969 C 46.746094 141.898438 46.269531 141.359375 46.28125 140.714844 L 46.613281 115.316406 C 46.613281 115.105469 46.460938 114.929688 46.261719 114.914062 C 46.0625 114.902344 45.890625 115.058594 45.871094 115.269531 L 43.375 140.695312 C 43.324219 141.226562 42.945312 141.65625 42.453125 141.746094 L 42.4375 141.746094 L 38.398438 141.410156 C 38.078125 141.460938 37.75 141.359375 37.503906 141.132812 C 37.253906 140.90625 37.113281 140.574219 37.117188 140.222656 L 37.359375 97.160156 L 57.171875 98.5 L 52.804688 141.042969 C 52.742188 141.648438 52.265625 142.101562 51.695312 142.105469 Z M 51.695312 142.105469 "/>
<path style=" stroke:none;fill-rule:nonzero;fill:rgb(100%,72.156863%,72.156863%);fill-opacity:1;" d="M 54.15625 53.070312 C 54.15625 56.660156 51.433594 59.570312 48.074219 59.570312 C 44.71875 59.570312 41.996094 56.660156 41.996094 53.070312 C 41.996094 49.484375 44.71875 46.574219 48.074219 46.574219 C 51.433594 46.574219 54.15625 49.484375 54.15625 53.070312 Z M 54.15625 53.070312 "/>
<path style=" stroke:none;fill-rule:nonzero;fill:rgb(92.941176%,38.823529%,21.568627%);fill-opacity:1;" d="M 56.1875 100.398438 C 56.160156 100.398438 56.132812 100.398438 56.101562 100.394531 L 37.789062 98.960938 C 37.199219 98.917969 36.746094 98.382812 36.757812 97.75 L 37.242188 73.171875 C 37.152344 69.0625 39.199219 65.238281 42.554688 63.238281 C 45.914062 61.234375 50.035156 61.378906 53.257812 63.617188 C 56.484375 65.855469 58.289062 69.816406 57.945312 73.910156 C 57.625 77.695312 57.367188 94.246094 57.296875 99.226562 C 57.289062 99.875 56.792969 100.398438 56.1875 100.398438 Z M 56.1875 100.398438 "/>
<path style=" stroke:none;fill-rule:nonzero;fill:rgb(100%,72.156863%,72.156863%);fill-opacity:1;" d="M 23.550781 60.367188 C 23.582031 60.511719 23.601562 60.65625 23.613281 60.800781 L 34.246094 67.359375 L 36.828125 65.769531 L 39.585938 69.625 L 35.265625 72.914062 C 34.546875 73.460938 33.582031 73.433594 32.890625 72.851562 L 21.925781 63.605469 C 20.910156 64.007812 19.773438 63.695312 19.0625 62.824219 C 18.355469 61.953125 18.222656 60.707031 18.734375 59.6875 C 19.246094 58.671875 20.292969 58.097656 21.363281 58.25 C 22.433594 58.398438 23.304688 59.242188 23.550781 60.367188 Z M 23.550781 60.367188 "/>
<path style=" stroke:none;fill-rule:nonzero;fill:rgb(92.941176%,38.823529%,21.568627%);fill-opacity:1;" d="M 34.390625 66.703125 C 34.457031 66.363281 34.65625 66.070312 34.9375 65.902344 L 39.816406 62.988281 C 41.167969 61.875 43.105469 62.136719 44.152344 63.578125 C 45.195312 65.015625 44.953125 67.089844 43.613281 68.210938 L 39.722656 72.527344 C 39.496094 72.777344 39.179688 72.910156 38.859375 72.890625 C 38.535156 72.871094 38.234375 72.703125 38.035156 72.429688 L 34.601562 67.667969 C 34.402344 67.394531 34.324219 67.042969 34.390625 66.703125 Z M 34.390625 66.703125 "/>
<path style=" stroke:none;fill-rule:nonzero;fill:rgb(18.431373%,18.039216%,25.490196%);fill-opacity:1;" d="M 51.214844 58.214844 C 49.316406 58.199219 47.554688 57.144531 46.550781 55.414062 C 46.496094 55.324219 46.207031 54.867188 45.867188 54.335938 C 44.914062 52.839844 44.691406 52.484375 44.671875 52.433594 C 44.414062 51.722656 43.597656 51.449219 42.957031 51.34375 C 42.835938 51.324219 42.714844 51.304688 42.59375 51.289062 C 41.691406 51.160156 40.757812 51.027344 40.246094 49.964844 C 39.871094 49.1875 39.257812 46.019531 39.730469 45.246094 C 40.320312 44.273438 41.453125 44.589844 42.550781 44.894531 C 43.253906 45.089844 43.980469 45.292969 44.558594 45.164062 C 47.066406 44.605469 49.90625 43.972656 52.417969 45.605469 C 54.414062 46.90625 55.617188 49.363281 55.550781 52.015625 C 55.484375 54.863281 54.320312 57.109375 52.441406 58.027344 L 52.050781 58.148438 L 51.832031 58.179688 C 51.628906 58.203125 51.421875 58.214844 51.214844 58.214844 Z M 51.214844 58.214844 "/>
<path style=" stroke:none;fill-rule:nonzero;fill:rgb(24.705882%,23.921569%,33.72549%);fill-opacity:1;" d="M 190.085938 48.09375 C 186.859375 48.09375 184.074219 50.511719 183.410156 53.886719 C 182.75 57.261719 184.394531 60.671875 187.347656 62.054688 C 187.320312 61.496094 187.359375 60.933594 187.46875 60.382812 C 187.597656 59.792969 188.34375 56.414062 188.34375 56.414062 C 188.195312 56.050781 188.121094 55.65625 188.125 55.261719 C 188.125 54.179688 188.707031 53.375 189.4375 53.375 C 190.058594 53.375 190.359375 53.871094 190.359375 54.46875 C 190.359375 55.132812 189.960938 56.128906 189.753906 57.054688 C 189.671875 57.398438 189.75 57.769531 189.960938 58.046875 C 190.175781 58.320312 190.5 58.472656 190.832031 58.453125 C 192.125 58.453125 192.992188 56.683594 192.992188 54.582031 C 192.992188 52.984375 191.988281 51.789062 190.15625 51.789062 C 188.089844 51.789062 186.800781 53.4375 186.800781 55.28125 C 186.78125 55.800781 186.941406 56.308594 187.25 56.707031 C 187.363281 56.808594 187.402344 56.972656 187.347656 57.113281 C 187.316406 57.25 187.242188 57.570312 187.207031 57.699219 C 187.195312 57.78125 187.148438 57.847656 187.082031 57.886719 C 187.015625 57.921875 186.933594 57.921875 186.867188 57.882812 C 185.914062 57.464844 185.46875 56.355469 185.46875 55.097656 C 185.46875 53.03125 187.105469 50.546875 190.34375 50.546875 C 192.945312 50.546875 194.660156 52.5625 194.660156 54.722656 C 194.660156 57.578125 193.171875 59.714844 190.980469 59.714844 C 190.242188 59.714844 189.550781 59.289062 189.3125 58.804688 C 189.3125 58.804688 188.917969 60.484375 188.832031 60.808594 C 188.675781 61.363281 188.445312 61.886719 188.148438 62.371094 C 190.710938 63.179688 193.476562 62.316406 195.226562 60.160156 C 196.980469 58.007812 197.390625 54.957031 196.285156 52.359375 C 195.179688 49.765625 192.753906 48.097656 190.085938 48.09375 Z M 190.085938 48.09375 "/>
<path style=" stroke:none;fill-rule:nonzero;fill:rgb(24.705882%,23.921569%,33.72549%);fill-opacity:1;" d="M 151.695312 24.199219 L 142.925781 21.3125 C 142.703125 21.226562 142.453125 21.238281 142.238281 21.347656 C 142.023438 21.457031 141.855469 21.652344 141.777344 21.894531 L 139.074219 31.285156 C 138.933594 31.816406 139.207031 32.367188 139.695312 32.542969 L 148.460938 35.425781 C 148.945312 35.5625 149.445312 35.257812 149.578125 34.742188 L 152.285156 25.347656 C 152.355469 25.113281 152.332031 24.855469 152.222656 24.636719 C 152.109375 24.417969 151.917969 24.261719 151.695312 24.199219 Z M 142.589844 31.449219 L 141.085938 30.957031 L 142.527344 25.953125 L 144.03125 26.449219 Z M 143.550781 25.457031 L 143.539062 25.453125 C 143.089844 25.300781 142.835938 24.789062 142.976562 24.308594 C 143.117188 23.828125 143.597656 23.558594 144.046875 23.707031 C 144.5 23.855469 144.75 24.363281 144.613281 24.847656 C 144.476562 25.328125 144 25.601562 143.550781 25.457031 Z M 148.089844 33.257812 L 146.585938 32.765625 L 147.375 30.027344 C 147.5625 29.375 147.472656 28.855469 146.929688 28.675781 C 146.578125 28.5625 146.199219 28.699219 145.984375 29.015625 C 145.910156 29.128906 145.851562 29.257812 145.820312 29.394531 L 145 32.242188 L 143.492188 31.746094 L 144.933594 26.746094 L 146.4375 27.238281 L 146.238281 27.9375 C 146.667969 27.511719 147.277344 27.371094 147.828125 27.570312 C 148.816406 27.894531 149.363281 28.835938 148.933594 30.335938 Z M 148.089844 33.257812 "/>
<path style=" stroke:none;fill-rule:evenodd;fill:rgb(24.705882%,23.921569%,33.72549%);fill-opacity:1;" d="M 17.308594 63.800781 C 17.308594 59.9375 14.476562 56.75 10.867188 56.546875 C 7.257812 56.347656 4.128906 59.199219 3.753906 63.042969 C 3.375 66.886719 5.878906 70.371094 9.449219 70.976562 L 9.449219 65.902344 L 7.722656 65.902344 L 7.722656 63.800781 L 9.449219 63.800781 L 9.449219 62.199219 C 9.449219 60.378906 10.464844 59.375 12.015625 59.375 C 12.527344 59.382812 13.035156 59.429688 13.539062 59.515625 L 13.539062 61.304688 L 12.679688 61.304688 C 11.835938 61.304688 11.574219 61.863281 11.574219 62.4375 L 11.574219 63.800781 L 13.457031 63.800781 L 13.15625 65.902344 L 11.574219 65.902344 L 11.574219 70.976562 C 14.875 70.417969 17.308594 67.375 17.308594 63.800781 Z M 17.308594 63.800781 "/>
<path style=" stroke:none;fill-rule:nonzero;fill:rgb(24.705882%,23.921569%,33.72549%);fill-opacity:1;" d="M 200 149.734375 C 200 149.882812 199.890625 150 199.753906 150 L 0.246094 150 C 0.109375 150 0 149.882812 0 149.734375 C 0 149.589844 0.109375 149.472656 0.246094 149.472656 L 199.753906 149.472656 C 199.890625 149.472656 200 149.589844 200 149.734375 Z M 200 149.734375 "/>
</g>
</svg>
