<?xml version="1.0" encoding="UTF-8"?>
<svg xmlns="http://www.w3.org/2000/svg" xmlns:xlink="http://www.w3.org/1999/xlink" width="200pt" height="150pt" viewBox="0 0 200 150" version="1.1">
<g id="surface1">
<path style=" stroke:none;fill-rule:nonzero;fill:rgb(92.941176%,38.823529%,21.568627%);fill-opacity:1;" d="M 153.671875 104.546875 C 152.800781 104.546875 152.082031 103.953125 152.027344 103.195312 L 151.78125 99.921875 C 151.71875 99.125 152.410156 98.4375 153.320312 98.382812 L 182.652344 96.703125 C 184.597656 96.589844 186.277344 97.878906 186.40625 99.582031 C 186.535156 101.285156 185.058594 102.753906 183.113281 102.863281 L 153.78125 104.542969 C 153.746094 104.546875 153.707031 104.546875 153.671875 104.546875 Z M 153.671875 104.546875 "/>
<path style=" stroke:none;fill-rule:nonzero;fill:rgb(18.431373%,18.039216%,25.490196%);fill-opacity:1;" d="M 159.457031 104.96875 C 158.566406 104.96875 157.839844 104.355469 157.804688 103.578125 L 157.597656 98.6875 C 157.5625 97.886719 158.273438 97.21875 159.183594 97.1875 L 183.304688 96.398438 C 184.21875 96.367188 184.984375 96.992188 185.019531 97.789062 L 185.226562 102.679688 C 185.261719 103.480469 184.550781 104.148438 183.636719 104.179688 L 159.519531 104.96875 C 159.496094 104.96875 159.476562 104.96875 159.457031 104.96875 Z M 159.457031 104.96875 "/>
<path style=" stroke:none;fill-rule:nonzero;fill:rgb(18.431373%,18.039216%,25.490196%);fill-opacity:1;" d="M 187.71875 150.0625 L 183.96875 150.0625 C 183.054688 150.0625 182.316406 149.414062 182.316406 148.617188 L 182.316406 121.261719 C 182.316406 120.464844 183.054688 119.816406 183.96875 119.816406 L 187.71875 119.816406 C 188.632812 119.816406 189.371094 120.464844 189.371094 121.261719 L 189.371094 148.617188 C 189.371094 149.414062 188.632812 150.0625 187.71875 150.0625 Z M 187.71875 150.0625 "/>
<path style=" stroke:none;fill-rule:nonzero;fill:rgb(18.431373%,18.039216%,25.490196%);fill-opacity:1;" d="M 178.757812 150.0625 L 175.003906 150.0625 C 174.09375 150.0625 173.355469 149.414062 173.351562 148.617188 L 173.351562 121.261719 C 173.355469 120.464844 174.09375 119.816406 175.003906 119.816406 L 178.757812 119.816406 C 179.667969 119.816406 180.410156 120.464844 180.410156 121.261719 L 180.410156 148.617188 C 180.410156 149.414062 179.667969 150.0625 178.757812 150.0625 Z M 178.757812 150.0625 "/>
<path style=" stroke:none;fill-rule:nonzero;fill:rgb(92.941176%,38.823529%,21.568627%);fill-opacity:1;" d="M 194.984375 79.925781 C 194.984375 86.191406 189.179688 91.269531 182.019531 91.269531 C 174.863281 91.269531 169.058594 86.191406 169.058594 79.925781 C 169.058594 73.664062 174.863281 68.585938 182.019531 68.585938 C 189.179688 68.585938 194.984375 73.664062 194.984375 79.925781 Z M 194.984375 79.925781 "/>
<path style=" stroke:none;fill-rule:nonzero;fill:rgb(18.431373%,18.039216%,25.490196%);fill-opacity:1;" d="M 175.003906 83.800781 C 174.585938 83.679688 174.203125 83.484375 173.882812 83.222656 C 173.449219 82.847656 173.226562 82.324219 173.277344 81.789062 C 173.304688 81.410156 173.535156 81.066406 173.894531 80.855469 C 174.359375 80.59375 174.980469 80.59375 175.609375 80.835938 L 175.585938 76.410156 L 176.09375 76.40625 L 176.121094 81.613281 L 175.730469 81.394531 C 175.277344 81.148438 174.628906 80.972656 174.171875 81.230469 C 173.941406 81.367188 173.796875 81.589844 173.78125 81.832031 C 173.75 82.230469 173.914062 82.617188 174.234375 82.902344 C 174.792969 83.371094 175.613281 83.515625 176.546875 83.648438 L 176.464844 84.085938 C 175.96875 84.03125 175.480469 83.933594 175.003906 83.800781 Z M 175.003906 83.800781 "/>
<path style=" stroke:none;fill-rule:nonzero;fill:rgb(18.431373%,18.039216%,25.490196%);fill-opacity:1;" d="M 170.28125 76.625 L 170.347656 76.1875 L 173.0625 76.5 L 172.992188 76.941406 Z M 170.28125 76.625 "/>
<path style=" stroke:none;fill-rule:nonzero;fill:rgb(18.431373%,18.039216%,25.490196%);fill-opacity:1;" d="M 178.847656 77.617188 L 178.914062 77.175781 L 181.628906 77.488281 L 181.5625 77.929688 Z M 178.847656 77.617188 "/>
<path style=" stroke:none;fill-rule:nonzero;fill:rgb(18.431373%,18.039216%,25.490196%);fill-opacity:1;" d="M 190.476562 128.601562 L 170.984375 128.601562 C 169.992188 128.601562 169.128906 128.007812 168.886719 127.164062 C 168.828125 126.941406 168.820312 126.707031 168.859375 126.480469 C 168.859375 126.480469 172.667969 107.777344 174.550781 98.796875 C 175.117188 96.09375 177.808594 94.132812 180.949219 94.132812 C 188.710938 94.132812 195.007812 99.640625 195.007812 106.433594 L 195.007812 124.636719 C 195.007812 126.828125 192.976562 128.601562 190.476562 128.601562 Z M 190.476562 128.601562 "/>
<path style=" stroke:none;fill-rule:nonzero;fill:rgb(92.941176%,38.823529%,21.568627%);fill-opacity:1;" d="M 186.714844 126.128906 C 186.425781 126.640625 185.820312 126.953125 185.167969 126.929688 L 181.417969 126.792969 C 180.507812 126.757812 179.800781 126.085938 179.839844 125.285156 L 181.074219 99.59375 C 181.15625 97.890625 182.800781 96.570312 184.75 96.640625 C 186.695312 96.714844 188.207031 98.152344 188.125 99.855469 L 186.886719 125.546875 C 186.878906 125.75 186.820312 125.949219 186.714844 126.128906 Z M 186.714844 126.128906 "/>
<path style=" stroke:none;fill-rule:nonzero;fill:rgb(18.431373%,18.039216%,25.490196%);fill-opacity:1;" d="M 188.636719 119.316406 C 188.34375 119.828125 187.738281 120.140625 187.085938 120.117188 L 180.683594 119.882812 C 179.773438 119.847656 179.066406 119.175781 179.101562 118.375 L 180.117188 97.28125 C 180.15625 96.484375 180.925781 95.863281 181.839844 95.898438 L 188.242188 96.132812 C 189.152344 96.167969 189.863281 96.839844 189.824219 97.636719 L 188.808594 118.734375 C 188.796875 118.9375 188.738281 119.136719 188.636719 119.316406 Z M 188.636719 119.316406 "/>
<path style=" stroke:none;fill-rule:nonzero;fill:rgb(18.431373%,18.039216%,25.490196%);fill-opacity:1;" d="M 181.300781 72.558594 C 178.503906 73.523438 174.28125 74.550781 172.4375 71.6875 C 171.707031 70.503906 171.597656 69.101562 172.132812 67.839844 C 172.6875 66.488281 173.875 65.375 175.222656 64.589844 C 177.75 63.117188 180.949219 62.714844 183.894531 63.285156 C 185.375 63.566406 186.78125 64.09375 188.035156 64.839844 C 189.457031 65.695312 190.460938 66.847656 191.46875 68.054688 C 192.5 69.289062 193.667969 70.53125 195.359375 71.074219 C 196.746094 71.515625 198.480469 71.289062 199.460938 70.261719 C 199.691406 70.019531 199.867188 69.746094 199.980469 69.449219 C 200.125 69.070312 199.441406 68.910156 199.296875 69.285156 C 198.78125 70.609375 196.886719 70.90625 195.546875 70.476562 C 193.78125 69.910156 192.667969 68.441406 191.609375 67.171875 C 190.59375 65.960938 189.476562 64.894531 188.011719 64.089844 C 186.699219 63.371094 185.242188 62.875 183.71875 62.621094 C 180.652344 62.113281 177.351562 62.5625 174.753906 64.121094 C 173.320312 64.941406 172.199219 66.113281 171.53125 67.492188 C 170.933594 68.796875 170.949219 70.25 171.570312 71.546875 C 172.207031 72.855469 173.539062 73.804688 175.132812 74.085938 C 176.84375 74.386719 178.625 74.039062 180.25 73.558594 C 180.667969 73.433594 181.078125 73.296875 181.488281 73.15625 C 181.90625 73.011719 181.726562 72.414062 181.300781 72.558594 Z M 181.300781 72.558594 "/>
<path style=" stroke:none;fill-rule:nonzero;fill:rgb(94.901961%,94.901961%,94.901961%);fill-opacity:1;" d="M 11.351562 0 L 100.105469 0 C 106.371094 0.0078125 111.449219 4.449219 111.453125 9.929688 L 111.453125 52.40625 C 111.449219 57.890625 106.371094 62.332031 100.105469 62.335938 L 11.351562 62.335938 C 5.085938 62.332031 0.0078125 57.890625 0 52.40625 L 0 9.929688 C 0.0078125 4.449219 5.085938 0.0078125 11.351562 0 Z M 11.351562 0 "/>
<path style=" stroke:none;fill-rule:nonzero;fill:rgb(100%,100%,100%);fill-opacity:1;" d="M 11.351562 2.859375 L 100.105469 2.859375 C 104.566406 2.863281 108.183594 6.027344 108.1875 9.929688 L 108.1875 52.40625 C 108.183594 56.3125 104.566406 59.472656 100.105469 59.476562 L 11.351562 59.476562 C 6.886719 59.472656 3.273438 56.3125 3.265625 52.40625 L 3.265625 9.929688 C 3.273438 6.027344 6.886719 2.863281 11.351562 2.859375 Z M 11.351562 2.859375 "/>
<path style=" stroke:none;fill-rule:nonzero;fill:rgb(94.901961%,94.901961%,94.901961%);fill-opacity:1;" d="M 12.214844 77.546875 C 11.949219 77.542969 11.683594 77.496094 11.4375 77.40625 C 10.679688 77.140625 10.191406 76.5 10.199219 75.789062 L 10.199219 61.101562 L 32.578125 60.445312 L 13.621094 77.027344 C 13.25 77.355469 12.746094 77.542969 12.214844 77.546875 Z M 12.214844 77.546875 "/>
<path style=" stroke:none;fill-rule:nonzero;fill:rgb(94.901961%,94.901961%,94.901961%);fill-opacity:1;" d="M 22.25 13.425781 L 88.988281 13.425781 C 91.660156 13.425781 93.828125 15.320312 93.828125 17.65625 C 93.828125 19.996094 91.660156 21.890625 88.988281 21.890625 L 22.25 21.890625 C 19.578125 21.890625 17.410156 19.996094 17.410156 17.65625 C 17.410156 15.320312 19.578125 13.425781 22.25 13.425781 Z M 22.25 13.425781 "/>
<path style=" stroke:none;fill-rule:nonzero;fill:rgb(94.901961%,94.901961%,94.901961%);fill-opacity:1;" d="M 22.359375 26.9375 L 89.097656 26.9375 C 91.769531 26.9375 93.933594 28.832031 93.933594 31.167969 C 93.933594 33.507812 91.769531 35.402344 89.097656 35.402344 L 22.359375 35.402344 C 19.6875 35.402344 17.519531 33.507812 17.519531 31.167969 C 17.519531 28.832031 19.6875 26.9375 22.359375 26.9375 Z M 22.359375 26.9375 "/>
<path style=" stroke:none;fill-rule:nonzero;fill:rgb(94.901961%,94.901961%,94.901961%);fill-opacity:1;" d="M 22.464844 40.449219 L 89.203125 40.449219 C 91.878906 40.449219 94.042969 42.34375 94.042969 44.679688 C 94.042969 47.019531 91.878906 48.914062 89.203125 48.914062 L 22.464844 48.914062 C 19.792969 48.914062 17.628906 47.019531 17.628906 44.679688 C 17.628906 42.34375 19.792969 40.449219 22.464844 40.449219 Z M 22.464844 40.449219 "/>
<path style=" stroke:none;fill-rule:nonzero;fill:rgb(90.196078%,90.196078%,90.196078%);fill-opacity:1;" d="M 151.5 21.664062 L 62.746094 21.664062 C 56.480469 21.671875 51.402344 26.113281 51.394531 31.59375 L 51.394531 74.070312 C 51.402344 79.554688 56.480469 83.996094 62.746094 84 L 151.5 84 C 157.765625 83.996094 162.84375 79.554688 162.851562 74.070312 L 162.851562 31.59375 C 162.84375 26.113281 157.765625 21.671875 151.5 21.664062 Z M 151.5 21.664062 "/>
<path style=" stroke:none;fill-rule:nonzero;fill:rgb(100%,100%,100%);fill-opacity:1;" d="M 151.5 24.523438 L 62.746094 24.523438 C 58.285156 24.527344 54.667969 27.691406 54.664062 31.59375 L 54.664062 74.070312 C 54.667969 77.976562 58.285156 81.136719 62.746094 81.144531 L 151.5 81.144531 C 155.960938 81.136719 159.578125 77.976562 159.582031 74.070312 L 159.582031 31.59375 C 159.578125 27.691406 155.960938 24.527344 151.5 24.523438 Z M 151.5 24.523438 "/>
<path style=" stroke:none;fill-rule:nonzero;fill:rgb(90.196078%,90.196078%,90.196078%);fill-opacity:1;" d="M 144.75 98.691406 L 125.792969 82.109375 L 148.171875 82.765625 L 148.171875 97.453125 C 148.179688 98.164062 147.6875 98.804688 146.933594 99.070312 C 146.6875 99.164062 146.421875 99.210938 146.152344 99.210938 C 145.625 99.207031 145.117188 99.023438 144.75 98.691406 Z M 144.75 98.691406 "/>
<path style=" stroke:none;fill-rule:nonzero;fill:rgb(92.941176%,38.823529%,21.568627%);fill-opacity:1;" d="M 93.679688 52.832031 C 93.679688 55.796875 90.933594 58.199219 87.546875 58.199219 C 84.160156 58.199219 81.414062 55.796875 81.414062 52.832031 C 81.414062 49.871094 84.160156 47.46875 87.546875 47.46875 C 90.933594 47.46875 93.679688 49.871094 93.679688 52.832031 Z M 93.679688 52.832031 "/>
<path style=" stroke:none;fill-rule:nonzero;fill:rgb(92.941176%,38.823529%,21.568627%);fill-opacity:1;" d="M 113.253906 52.832031 C 113.253906 55.796875 110.507812 58.199219 107.121094 58.199219 C 103.734375 58.199219 100.992188 55.796875 100.992188 52.832031 C 100.992188 49.871094 103.734375 47.46875 107.121094 47.46875 C 110.507812 47.46875 113.253906 49.871094 113.253906 52.832031 Z M 113.253906 52.832031 "/>
<path style=" stroke:none;fill-rule:nonzero;fill:rgb(92.941176%,38.823529%,21.568627%);fill-opacity:1;" d="M 132.832031 52.832031 C 132.832031 55.796875 130.085938 58.199219 126.699219 58.199219 C 123.3125 58.199219 120.566406 55.796875 120.566406 52.832031 C 120.566406 49.871094 123.3125 47.46875 126.699219 47.46875 C 130.085938 47.46875 132.832031 49.871094 132.832031 52.832031 Z M 132.832031 52.832031 "/>
</g>
</svg>
